G04 #@! TF.FileFunction,Soldermask,Top*
%FSLAX46Y46*%
G04 Gerber Fmt 4.6, Leading zero omitted, Abs format (unit mm)*
G04 Created by KiCad (PCBNEW (2015-04-30 BZR 5634)-product) date Friday, May 08, 2015 'PMt' 05:38:52 PM*
%MOMM*%
G01*
G04 APERTURE LIST*
%ADD10C,0.100000*%
%ADD11R,0.500000X0.600000*%
%ADD12R,0.600000X0.500000*%
%ADD13R,1.800860X2.499360*%
%ADD14R,0.797560X0.797560*%
%ADD15R,2.500000X0.900000*%
%ADD16R,0.800100X0.800100*%
%ADD17R,0.400000X0.600000*%
%ADD18R,1.143000X0.508000*%
%ADD19R,1.060000X0.650000*%
%ADD20C,0.220000*%
%ADD21R,0.800000X0.900000*%
%ADD22R,1.600000X1.900000*%
%ADD23R,2.000000X2.000000*%
%ADD24R,0.400000X1.350000*%
%ADD25R,0.700000X0.400000*%
%ADD26R,1.200000X0.650000*%
%ADD27R,0.500000X1.600000*%
%ADD28R,2.032000X2.032000*%
%ADD29O,2.032000X2.032000*%
%ADD30R,1.500000X1.500000*%
%ADD31R,1.100000X0.250000*%
G04 APERTURE END LIST*
D10*
D11*
X175600000Y-91150000D03*
X175600000Y-92250000D03*
D12*
X163950000Y-114800000D03*
X162850000Y-114800000D03*
X159150000Y-114200000D03*
X158050000Y-114200000D03*
X159150000Y-115200000D03*
X158050000Y-115200000D03*
X172950000Y-83700000D03*
X174050000Y-83700000D03*
X173050000Y-89600000D03*
X174150000Y-89600000D03*
X182150000Y-83800000D03*
X183250000Y-83800000D03*
X174050000Y-82500000D03*
X172950000Y-82500000D03*
X174050000Y-84900000D03*
X172950000Y-84900000D03*
D13*
X183000000Y-110298980D03*
X183000000Y-106301020D03*
D14*
X182050700Y-103600000D03*
X183549300Y-103600000D03*
D15*
X174300000Y-108050000D03*
X174300000Y-105150000D03*
D16*
X177499240Y-107250000D03*
X177499240Y-109150000D03*
X179498220Y-108200000D03*
D17*
X183550000Y-101900000D03*
X182650000Y-101900000D03*
X179650000Y-110800000D03*
X180550000Y-110800000D03*
X180550000Y-112200000D03*
X179650000Y-112200000D03*
X160850000Y-108600000D03*
X159950000Y-108600000D03*
X161150000Y-112800000D03*
X160250000Y-112800000D03*
D18*
X162825000Y-112305000D03*
X162825000Y-111035000D03*
X162825000Y-109765000D03*
X162825000Y-108495000D03*
X169175000Y-108495000D03*
X169175000Y-109765000D03*
X169175000Y-111035000D03*
X169175000Y-112305000D03*
D19*
X175700000Y-103350000D03*
X175700000Y-102400000D03*
X175700000Y-101450000D03*
X173500000Y-101450000D03*
X173500000Y-103350000D03*
X180000000Y-105450000D03*
X180000000Y-104500000D03*
X180000000Y-103550000D03*
X177800000Y-103550000D03*
X177800000Y-105450000D03*
D20*
X176600000Y-82050000D03*
X176850000Y-82500000D03*
X176350000Y-82500000D03*
X176350000Y-83100000D03*
X176850000Y-83100000D03*
D21*
X174000000Y-90900000D03*
X174000000Y-92350000D03*
X172925000Y-90925000D03*
X172925000Y-92350000D03*
D10*
G36*
X180119238Y-91589087D02*
X179977817Y-91730508D01*
X179412132Y-91164823D01*
X179553553Y-91023402D01*
X180119238Y-91589087D01*
X180119238Y-91589087D01*
G37*
G36*
X180402081Y-91306245D02*
X180260660Y-91447666D01*
X179694975Y-90881981D01*
X179836396Y-90740560D01*
X180402081Y-91306245D01*
X180402081Y-91306245D01*
G37*
G36*
X180684924Y-91023402D02*
X180543503Y-91164823D01*
X179977818Y-90599138D01*
X180119239Y-90457717D01*
X180684924Y-91023402D01*
X180684924Y-91023402D01*
G37*
G36*
X180967767Y-90740559D02*
X180826346Y-90881980D01*
X180260661Y-90316295D01*
X180402082Y-90174874D01*
X180967767Y-90740559D01*
X180967767Y-90740559D01*
G37*
G36*
X181250609Y-90457716D02*
X181109188Y-90599137D01*
X180543503Y-90033452D01*
X180684924Y-89892031D01*
X181250609Y-90457716D01*
X181250609Y-90457716D01*
G37*
G36*
X181533452Y-90174874D02*
X181392031Y-90316295D01*
X180826346Y-89750610D01*
X180967767Y-89609189D01*
X181533452Y-90174874D01*
X181533452Y-90174874D01*
G37*
G36*
X181816295Y-89892031D02*
X181674874Y-90033452D01*
X181109189Y-89467767D01*
X181250610Y-89326346D01*
X181816295Y-89892031D01*
X181816295Y-89892031D01*
G37*
G36*
X182099137Y-89609188D02*
X181957716Y-89750609D01*
X181392031Y-89184924D01*
X181533452Y-89043503D01*
X182099137Y-89609188D01*
X182099137Y-89609188D01*
G37*
G36*
X182381980Y-89326346D02*
X182240559Y-89467767D01*
X181674874Y-88902082D01*
X181816295Y-88760661D01*
X182381980Y-89326346D01*
X182381980Y-89326346D01*
G37*
G36*
X182664823Y-89043503D02*
X182523402Y-89184924D01*
X181957717Y-88619239D01*
X182099138Y-88477818D01*
X182664823Y-89043503D01*
X182664823Y-89043503D01*
G37*
G36*
X182947666Y-88760660D02*
X182806245Y-88902081D01*
X182240560Y-88336396D01*
X182381981Y-88194975D01*
X182947666Y-88760660D01*
X182947666Y-88760660D01*
G37*
G36*
X183230508Y-88477817D02*
X183089087Y-88619238D01*
X182523402Y-88053553D01*
X182664823Y-87912132D01*
X183230508Y-88477817D01*
X183230508Y-88477817D01*
G37*
G36*
X183089087Y-86780762D02*
X183230508Y-86922183D01*
X182664823Y-87487868D01*
X182523402Y-87346447D01*
X183089087Y-86780762D01*
X183089087Y-86780762D01*
G37*
G36*
X182806245Y-86497919D02*
X182947666Y-86639340D01*
X182381981Y-87205025D01*
X182240560Y-87063604D01*
X182806245Y-86497919D01*
X182806245Y-86497919D01*
G37*
G36*
X182523402Y-86215076D02*
X182664823Y-86356497D01*
X182099138Y-86922182D01*
X181957717Y-86780761D01*
X182523402Y-86215076D01*
X182523402Y-86215076D01*
G37*
G36*
X182240559Y-85932233D02*
X182381980Y-86073654D01*
X181816295Y-86639339D01*
X181674874Y-86497918D01*
X182240559Y-85932233D01*
X182240559Y-85932233D01*
G37*
G36*
X181957716Y-85649391D02*
X182099137Y-85790812D01*
X181533452Y-86356497D01*
X181392031Y-86215076D01*
X181957716Y-85649391D01*
X181957716Y-85649391D01*
G37*
G36*
X181674874Y-85366548D02*
X181816295Y-85507969D01*
X181250610Y-86073654D01*
X181109189Y-85932233D01*
X181674874Y-85366548D01*
X181674874Y-85366548D01*
G37*
G36*
X181392031Y-85083705D02*
X181533452Y-85225126D01*
X180967767Y-85790811D01*
X180826346Y-85649390D01*
X181392031Y-85083705D01*
X181392031Y-85083705D01*
G37*
G36*
X181109188Y-84800863D02*
X181250609Y-84942284D01*
X180684924Y-85507969D01*
X180543503Y-85366548D01*
X181109188Y-84800863D01*
X181109188Y-84800863D01*
G37*
G36*
X180826346Y-84518020D02*
X180967767Y-84659441D01*
X180402082Y-85225126D01*
X180260661Y-85083705D01*
X180826346Y-84518020D01*
X180826346Y-84518020D01*
G37*
G36*
X180543503Y-84235177D02*
X180684924Y-84376598D01*
X180119239Y-84942283D01*
X179977818Y-84800862D01*
X180543503Y-84235177D01*
X180543503Y-84235177D01*
G37*
G36*
X180260660Y-83952334D02*
X180402081Y-84093755D01*
X179836396Y-84659440D01*
X179694975Y-84518019D01*
X180260660Y-83952334D01*
X180260660Y-83952334D01*
G37*
G36*
X179977817Y-83669492D02*
X180119238Y-83810913D01*
X179553553Y-84376598D01*
X179412132Y-84235177D01*
X179977817Y-83669492D01*
X179977817Y-83669492D01*
G37*
G36*
X178987868Y-84235177D02*
X178846447Y-84376598D01*
X178280762Y-83810913D01*
X178422183Y-83669492D01*
X178987868Y-84235177D01*
X178987868Y-84235177D01*
G37*
G36*
X178705025Y-84518019D02*
X178563604Y-84659440D01*
X177997919Y-84093755D01*
X178139340Y-83952334D01*
X178705025Y-84518019D01*
X178705025Y-84518019D01*
G37*
G36*
X178422182Y-84800862D02*
X178280761Y-84942283D01*
X177715076Y-84376598D01*
X177856497Y-84235177D01*
X178422182Y-84800862D01*
X178422182Y-84800862D01*
G37*
G36*
X178139339Y-85083705D02*
X177997918Y-85225126D01*
X177432233Y-84659441D01*
X177573654Y-84518020D01*
X178139339Y-85083705D01*
X178139339Y-85083705D01*
G37*
G36*
X177856497Y-85366548D02*
X177715076Y-85507969D01*
X177149391Y-84942284D01*
X177290812Y-84800863D01*
X177856497Y-85366548D01*
X177856497Y-85366548D01*
G37*
G36*
X177573654Y-85649390D02*
X177432233Y-85790811D01*
X176866548Y-85225126D01*
X177007969Y-85083705D01*
X177573654Y-85649390D01*
X177573654Y-85649390D01*
G37*
G36*
X177290811Y-85932233D02*
X177149390Y-86073654D01*
X176583705Y-85507969D01*
X176725126Y-85366548D01*
X177290811Y-85932233D01*
X177290811Y-85932233D01*
G37*
G36*
X177007969Y-86215076D02*
X176866548Y-86356497D01*
X176300863Y-85790812D01*
X176442284Y-85649391D01*
X177007969Y-86215076D01*
X177007969Y-86215076D01*
G37*
G36*
X176725126Y-86497918D02*
X176583705Y-86639339D01*
X176018020Y-86073654D01*
X176159441Y-85932233D01*
X176725126Y-86497918D01*
X176725126Y-86497918D01*
G37*
G36*
X176442283Y-86780761D02*
X176300862Y-86922182D01*
X175735177Y-86356497D01*
X175876598Y-86215076D01*
X176442283Y-86780761D01*
X176442283Y-86780761D01*
G37*
G36*
X176159440Y-87063604D02*
X176018019Y-87205025D01*
X175452334Y-86639340D01*
X175593755Y-86497919D01*
X176159440Y-87063604D01*
X176159440Y-87063604D01*
G37*
G36*
X175876598Y-87346447D02*
X175735177Y-87487868D01*
X175169492Y-86922183D01*
X175310913Y-86780762D01*
X175876598Y-87346447D01*
X175876598Y-87346447D01*
G37*
G36*
X175735177Y-87912132D02*
X175876598Y-88053553D01*
X175310913Y-88619238D01*
X175169492Y-88477817D01*
X175735177Y-87912132D01*
X175735177Y-87912132D01*
G37*
G36*
X176018019Y-88194975D02*
X176159440Y-88336396D01*
X175593755Y-88902081D01*
X175452334Y-88760660D01*
X176018019Y-88194975D01*
X176018019Y-88194975D01*
G37*
G36*
X176300862Y-88477818D02*
X176442283Y-88619239D01*
X175876598Y-89184924D01*
X175735177Y-89043503D01*
X176300862Y-88477818D01*
X176300862Y-88477818D01*
G37*
G36*
X176583705Y-88760661D02*
X176725126Y-88902082D01*
X176159441Y-89467767D01*
X176018020Y-89326346D01*
X176583705Y-88760661D01*
X176583705Y-88760661D01*
G37*
G36*
X176866548Y-89043503D02*
X177007969Y-89184924D01*
X176442284Y-89750609D01*
X176300863Y-89609188D01*
X176866548Y-89043503D01*
X176866548Y-89043503D01*
G37*
G36*
X177149390Y-89326346D02*
X177290811Y-89467767D01*
X176725126Y-90033452D01*
X176583705Y-89892031D01*
X177149390Y-89326346D01*
X177149390Y-89326346D01*
G37*
G36*
X177432233Y-89609189D02*
X177573654Y-89750610D01*
X177007969Y-90316295D01*
X176866548Y-90174874D01*
X177432233Y-89609189D01*
X177432233Y-89609189D01*
G37*
G36*
X177715076Y-89892031D02*
X177856497Y-90033452D01*
X177290812Y-90599137D01*
X177149391Y-90457716D01*
X177715076Y-89892031D01*
X177715076Y-89892031D01*
G37*
G36*
X177997918Y-90174874D02*
X178139339Y-90316295D01*
X177573654Y-90881980D01*
X177432233Y-90740559D01*
X177997918Y-90174874D01*
X177997918Y-90174874D01*
G37*
G36*
X178280761Y-90457717D02*
X178422182Y-90599138D01*
X177856497Y-91164823D01*
X177715076Y-91023402D01*
X178280761Y-90457717D01*
X178280761Y-90457717D01*
G37*
G36*
X178563604Y-90740560D02*
X178705025Y-90881981D01*
X178139340Y-91447666D01*
X177997919Y-91306245D01*
X178563604Y-90740560D01*
X178563604Y-90740560D01*
G37*
G36*
X178846447Y-91023402D02*
X178987868Y-91164823D01*
X178422183Y-91730508D01*
X178280762Y-91589087D01*
X178846447Y-91023402D01*
X178846447Y-91023402D01*
G37*
G36*
X179986656Y-85340031D02*
X179200000Y-86126687D01*
X178413344Y-85340031D01*
X179200000Y-84553375D01*
X179986656Y-85340031D01*
X179986656Y-85340031D01*
G37*
G36*
X179200000Y-86126687D02*
X178413344Y-86913343D01*
X177626688Y-86126687D01*
X178413344Y-85340031D01*
X179200000Y-86126687D01*
X179200000Y-86126687D01*
G37*
G36*
X178413343Y-86913344D02*
X177626687Y-87700000D01*
X176840031Y-86913344D01*
X177626687Y-86126688D01*
X178413343Y-86913344D01*
X178413343Y-86913344D01*
G37*
G36*
X177626687Y-87700000D02*
X176840031Y-88486656D01*
X176053375Y-87700000D01*
X176840031Y-86913344D01*
X177626687Y-87700000D01*
X177626687Y-87700000D01*
G37*
G36*
X180773312Y-86126687D02*
X179986656Y-86913343D01*
X179200000Y-86126687D01*
X179986656Y-85340031D01*
X180773312Y-86126687D01*
X180773312Y-86126687D01*
G37*
G36*
X179986656Y-86913344D02*
X179200000Y-87700000D01*
X178413344Y-86913344D01*
X179200000Y-86126688D01*
X179986656Y-86913344D01*
X179986656Y-86913344D01*
G37*
G36*
X179200000Y-87700000D02*
X178413344Y-88486656D01*
X177626688Y-87700000D01*
X178413344Y-86913344D01*
X179200000Y-87700000D01*
X179200000Y-87700000D01*
G37*
G36*
X178413343Y-88486656D02*
X177626687Y-89273312D01*
X176840031Y-88486656D01*
X177626687Y-87700000D01*
X178413343Y-88486656D01*
X178413343Y-88486656D01*
G37*
G36*
X181559969Y-86913344D02*
X180773313Y-87700000D01*
X179986657Y-86913344D01*
X180773313Y-86126688D01*
X181559969Y-86913344D01*
X181559969Y-86913344D01*
G37*
G36*
X180773312Y-87700000D02*
X179986656Y-88486656D01*
X179200000Y-87700000D01*
X179986656Y-86913344D01*
X180773312Y-87700000D01*
X180773312Y-87700000D01*
G37*
G36*
X179986656Y-88486656D02*
X179200000Y-89273312D01*
X178413344Y-88486656D01*
X179200000Y-87700000D01*
X179986656Y-88486656D01*
X179986656Y-88486656D01*
G37*
G36*
X179200000Y-89273313D02*
X178413344Y-90059969D01*
X177626688Y-89273313D01*
X178413344Y-88486657D01*
X179200000Y-89273313D01*
X179200000Y-89273313D01*
G37*
G36*
X182346625Y-87700000D02*
X181559969Y-88486656D01*
X180773313Y-87700000D01*
X181559969Y-86913344D01*
X182346625Y-87700000D01*
X182346625Y-87700000D01*
G37*
G36*
X181559969Y-88486656D02*
X180773313Y-89273312D01*
X179986657Y-88486656D01*
X180773313Y-87700000D01*
X181559969Y-88486656D01*
X181559969Y-88486656D01*
G37*
G36*
X180773312Y-89273313D02*
X179986656Y-90059969D01*
X179200000Y-89273313D01*
X179986656Y-88486657D01*
X180773312Y-89273313D01*
X180773312Y-89273313D01*
G37*
G36*
X179986656Y-90059969D02*
X179200000Y-90846625D01*
X178413344Y-90059969D01*
X179200000Y-89273313D01*
X179986656Y-90059969D01*
X179986656Y-90059969D01*
G37*
G36*
X154142804Y-111701561D02*
X153930672Y-111489429D01*
X154531712Y-110888389D01*
X154743844Y-111100521D01*
X154142804Y-111701561D01*
X154142804Y-111701561D01*
G37*
G36*
X154496358Y-112055114D02*
X154284226Y-111842982D01*
X154885266Y-111241942D01*
X155097398Y-111454074D01*
X154496358Y-112055114D01*
X154496358Y-112055114D01*
G37*
G36*
X154849911Y-112408668D02*
X154637779Y-112196536D01*
X155238819Y-111595496D01*
X155450951Y-111807628D01*
X154849911Y-112408668D01*
X154849911Y-112408668D01*
G37*
G36*
X155203464Y-112762221D02*
X154991332Y-112550089D01*
X155592372Y-111949049D01*
X155804504Y-112161181D01*
X155203464Y-112762221D01*
X155203464Y-112762221D01*
G37*
G36*
X155557018Y-113115774D02*
X155344886Y-112903642D01*
X155945926Y-112302602D01*
X156158058Y-112514734D01*
X155557018Y-113115774D01*
X155557018Y-113115774D01*
G37*
G36*
X155910571Y-113469328D02*
X155698439Y-113257196D01*
X156299479Y-112656156D01*
X156511611Y-112868288D01*
X155910571Y-113469328D01*
X155910571Y-113469328D01*
G37*
G36*
X157501561Y-113257196D02*
X157289429Y-113469328D01*
X156688389Y-112868288D01*
X156900521Y-112656156D01*
X157501561Y-113257196D01*
X157501561Y-113257196D01*
G37*
G36*
X157855114Y-112903642D02*
X157642982Y-113115774D01*
X157041942Y-112514734D01*
X157254074Y-112302602D01*
X157855114Y-112903642D01*
X157855114Y-112903642D01*
G37*
G36*
X158208668Y-112550089D02*
X157996536Y-112762221D01*
X157395496Y-112161181D01*
X157607628Y-111949049D01*
X158208668Y-112550089D01*
X158208668Y-112550089D01*
G37*
G36*
X158562221Y-112196536D02*
X158350089Y-112408668D01*
X157749049Y-111807628D01*
X157961181Y-111595496D01*
X158562221Y-112196536D01*
X158562221Y-112196536D01*
G37*
G36*
X158915774Y-111842982D02*
X158703642Y-112055114D01*
X158102602Y-111454074D01*
X158314734Y-111241942D01*
X158915774Y-111842982D01*
X158915774Y-111842982D01*
G37*
G36*
X159269328Y-111489429D02*
X159057196Y-111701561D01*
X158456156Y-111100521D01*
X158668288Y-110888389D01*
X159269328Y-111489429D01*
X159269328Y-111489429D01*
G37*
G36*
X158668288Y-110711611D02*
X158456156Y-110499479D01*
X159057196Y-109898439D01*
X159269328Y-110110571D01*
X158668288Y-110711611D01*
X158668288Y-110711611D01*
G37*
G36*
X158314734Y-110358058D02*
X158102602Y-110145926D01*
X158703642Y-109544886D01*
X158915774Y-109757018D01*
X158314734Y-110358058D01*
X158314734Y-110358058D01*
G37*
G36*
X157961181Y-110004504D02*
X157749049Y-109792372D01*
X158350089Y-109191332D01*
X158562221Y-109403464D01*
X157961181Y-110004504D01*
X157961181Y-110004504D01*
G37*
G36*
X157607628Y-109650951D02*
X157395496Y-109438819D01*
X157996536Y-108837779D01*
X158208668Y-109049911D01*
X157607628Y-109650951D01*
X157607628Y-109650951D01*
G37*
G36*
X157254074Y-109297398D02*
X157041942Y-109085266D01*
X157642982Y-108484226D01*
X157855114Y-108696358D01*
X157254074Y-109297398D01*
X157254074Y-109297398D01*
G37*
G36*
X156900521Y-108943844D02*
X156688389Y-108731712D01*
X157289429Y-108130672D01*
X157501561Y-108342804D01*
X156900521Y-108943844D01*
X156900521Y-108943844D01*
G37*
G36*
X156511611Y-108731712D02*
X156299479Y-108943844D01*
X155698439Y-108342804D01*
X155910571Y-108130672D01*
X156511611Y-108731712D01*
X156511611Y-108731712D01*
G37*
G36*
X156158058Y-109085266D02*
X155945926Y-109297398D01*
X155344886Y-108696358D01*
X155557018Y-108484226D01*
X156158058Y-109085266D01*
X156158058Y-109085266D01*
G37*
G36*
X155804504Y-109438819D02*
X155592372Y-109650951D01*
X154991332Y-109049911D01*
X155203464Y-108837779D01*
X155804504Y-109438819D01*
X155804504Y-109438819D01*
G37*
G36*
X155450951Y-109792372D02*
X155238819Y-110004504D01*
X154637779Y-109403464D01*
X154849911Y-109191332D01*
X155450951Y-109792372D01*
X155450951Y-109792372D01*
G37*
G36*
X155097398Y-110145926D02*
X154885266Y-110358058D01*
X154284226Y-109757018D01*
X154496358Y-109544886D01*
X155097398Y-110145926D01*
X155097398Y-110145926D01*
G37*
G36*
X154743844Y-110499479D02*
X154531712Y-110711611D01*
X153930672Y-110110571D01*
X154142804Y-109898439D01*
X154743844Y-110499479D01*
X154743844Y-110499479D01*
G37*
D22*
X175950000Y-114370000D03*
X173450000Y-114370000D03*
X178810000Y-114370000D03*
D23*
X177700000Y-111940000D03*
D24*
X173399100Y-111637460D03*
X174049100Y-111637460D03*
X174699100Y-111637460D03*
X175349100Y-111637460D03*
X175999100Y-111637460D03*
D23*
X171700000Y-111940000D03*
D22*
X170590000Y-114370000D03*
D25*
X168100000Y-115200000D03*
D26*
X167900000Y-114100000D03*
X165700000Y-114100000D03*
D25*
X165500000Y-115200000D03*
X154700000Y-115200000D03*
D26*
X154500000Y-114100000D03*
X152300000Y-114100000D03*
D25*
X152100000Y-115200000D03*
X183700000Y-115100000D03*
D26*
X183500000Y-114000000D03*
X181300000Y-114000000D03*
D25*
X181100000Y-115100000D03*
D27*
X184800000Y-81800000D03*
X178800000Y-81800000D03*
D28*
X173800000Y-96500000D03*
D29*
X173800000Y-99040000D03*
D28*
X151700000Y-109200000D03*
D29*
X151700000Y-111740000D03*
D30*
X179600000Y-101750000D03*
D31*
X177100000Y-99750000D03*
X177100000Y-99250000D03*
X177100000Y-98750000D03*
X177100000Y-98250000D03*
X177100000Y-97750000D03*
X177100000Y-97250000D03*
X177100000Y-96750000D03*
X177100000Y-96250000D03*
X177100000Y-95750000D03*
X177100000Y-100250000D03*
D30*
X179600000Y-94250000D03*
M02*
