G04 #@! TF.FileFunction,Copper,L4,Bot,Signal*
%FSLAX46Y46*%
G04 Gerber Fmt 4.6, Leading zero omitted, Abs format (unit mm)*
G04 Created by KiCad (PCBNEW (2015-07-20 BZR 5967)-product) date Thursday, July 23, 2015 'PMt' 01:28:37 PM*
%MOMM*%
G01*
G04 APERTURE LIST*
%ADD10C,0.100000*%
%ADD11R,2.032000X2.032000*%
%ADD12O,2.032000X2.032000*%
%ADD13C,0.355000*%
%ADD14C,0.127000*%
%ADD15C,0.200000*%
G04 APERTURE END LIST*
D10*
D11*
X173800000Y-96500000D03*
D12*
X173800000Y-99040000D03*
D11*
X151700000Y-109200000D03*
D12*
X151700000Y-111740000D03*
D13*
X161250000Y-112550000D03*
X174613000Y-85029040D03*
X177700000Y-111940000D03*
X180000000Y-104650000D03*
X173300000Y-102650000D03*
X169325000Y-111035000D03*
X151590000Y-114200000D03*
X164725000Y-114145000D03*
X181550000Y-114030000D03*
X177800000Y-103700000D03*
X173600000Y-87550000D03*
X179200000Y-92000000D03*
X178250000Y-99150000D03*
X162975000Y-111035000D03*
X155000000Y-108500000D03*
X182350000Y-90700000D03*
X161250000Y-108850000D03*
X161250000Y-110550000D03*
X157300000Y-110550000D03*
X167700000Y-112250000D03*
X181900000Y-93050000D03*
X183330000Y-86160000D03*
X183770000Y-114080000D03*
X183170000Y-85360000D03*
X166860000Y-114110000D03*
X182680000Y-84920000D03*
X153760000Y-114140000D03*
X181051200Y-92146120D03*
X174708820Y-109720380D03*
X180662580Y-92801440D03*
X173804580Y-109923580D03*
X181493160Y-83903820D03*
X175701960Y-109888020D03*
X173400000Y-111650000D03*
X180925000Y-111590000D03*
X176660000Y-107290000D03*
X174550000Y-94550000D03*
X173300000Y-103600000D03*
D14*
X153900000Y-111400000D02*
X151700000Y-109200000D01*
X160100000Y-111400000D02*
X153900000Y-111400000D01*
X161250000Y-112550000D02*
X160100000Y-111400000D01*
X172850000Y-95550000D02*
X172850000Y-87450000D01*
X174100000Y-86200000D02*
X172850000Y-87450000D01*
X174100000Y-85542040D02*
X174100000Y-86200000D01*
X174100000Y-85542040D02*
X174613000Y-85029040D01*
X172850000Y-95550000D02*
X173800000Y-96500000D01*
X177700000Y-111940000D02*
X176560000Y-110800000D01*
X176560000Y-110800000D02*
X173500000Y-110800000D01*
X173500000Y-110800000D02*
X172800000Y-110100000D01*
X172800000Y-110100000D02*
X172800000Y-105150000D01*
X172800000Y-105150000D02*
X173350000Y-104600000D01*
X173350000Y-104600000D02*
X175250000Y-104600000D01*
X175200000Y-100750000D02*
X173300000Y-102650000D01*
X175200000Y-100750000D02*
X175200000Y-97900000D01*
X173800000Y-96500000D02*
X175200000Y-97900000D01*
X175250000Y-104600000D02*
X173300000Y-102650000D01*
X179950000Y-104600000D02*
X175250000Y-104600000D01*
X179950000Y-104600000D02*
X180000000Y-104650000D01*
X178250000Y-103250000D02*
X177800000Y-103700000D01*
X178250000Y-99150000D02*
X178250000Y-103250000D01*
D15*
X179200000Y-92000000D02*
X178050000Y-92000000D01*
X178050000Y-92000000D02*
X173600000Y-87550000D01*
X179200000Y-92000000D02*
X178250000Y-92950000D01*
X178250000Y-92950000D02*
X178250000Y-99150000D01*
D14*
X163000000Y-109150000D02*
X163000000Y-111010000D01*
X163000000Y-111010000D02*
X162975000Y-111035000D01*
X161250000Y-108850000D02*
X155350000Y-108850000D01*
X155350000Y-108850000D02*
X155000000Y-108500000D01*
X182300000Y-107950000D02*
X182350000Y-90700000D01*
X178100000Y-115050000D02*
X182300000Y-107950000D01*
X169600000Y-115000000D02*
X178100000Y-115050000D01*
X164300000Y-109150000D02*
X169600000Y-115000000D01*
X161550000Y-109150000D02*
X163000000Y-109150000D01*
X163000000Y-109150000D02*
X164300000Y-109150000D01*
X161250000Y-108850000D02*
X161550000Y-109150000D01*
X161250000Y-110550000D02*
X157300000Y-110550000D01*
X181200000Y-108450000D02*
X181200000Y-109000000D01*
X181000000Y-109200000D02*
X179250000Y-110950000D01*
X179250000Y-110950000D02*
X179250000Y-112100000D01*
X179250000Y-112100000D02*
X177500000Y-113850000D01*
X177500000Y-113850000D02*
X169300000Y-113850000D01*
X169300000Y-113850000D02*
X167700000Y-112250000D01*
X181900000Y-93050000D02*
X181900000Y-107750000D01*
X181900000Y-107750000D02*
X181200000Y-108450000D01*
X181200000Y-109000000D02*
X181000000Y-109200000D01*
X181051200Y-106535220D02*
X181051200Y-92146120D01*
X178508660Y-109077760D02*
X181051200Y-106535220D01*
X175351440Y-109077760D02*
X178508660Y-109077760D01*
X174708820Y-109720380D02*
X175351440Y-109077760D01*
X180662580Y-106265980D02*
X180662580Y-92801440D01*
X178412140Y-108516420D02*
X180662580Y-106265980D01*
X175211740Y-108516420D02*
X178412140Y-108516420D01*
X173804580Y-109923580D02*
X175211740Y-108516420D01*
X181493160Y-107198160D02*
X181493160Y-83903820D01*
X178765200Y-109926120D02*
X181493160Y-107198160D01*
X175740060Y-109926120D02*
X178765200Y-109926120D01*
X175701960Y-109888020D02*
X175740060Y-109926120D01*
D15*
X172500000Y-100340000D02*
X173800000Y-99040000D01*
X172500000Y-103350000D02*
X172500000Y-100340000D01*
X172850000Y-103700000D02*
X172500000Y-103350000D01*
X173200000Y-103700000D02*
X172850000Y-103700000D01*
X173300000Y-103600000D02*
X173200000Y-103700000D01*
D14*
G36*
X172370059Y-107870059D02*
X172422193Y-107792035D01*
X172440500Y-107700000D01*
X172440500Y-107362879D01*
X176291936Y-107362879D01*
X176347842Y-107498183D01*
X176451272Y-107601794D01*
X176586479Y-107657936D01*
X176732879Y-107658064D01*
X176868183Y-107602158D01*
X176971794Y-107498728D01*
X177027936Y-107363521D01*
X177028064Y-107217121D01*
X176972158Y-107081817D01*
X176868728Y-106978206D01*
X176733521Y-106922064D01*
X176587121Y-106921936D01*
X176451817Y-106977842D01*
X176348206Y-107081272D01*
X176292064Y-107216479D01*
X176291936Y-107362879D01*
X172440500Y-107362879D01*
X172440500Y-103701330D01*
X172644583Y-103905412D01*
X172644585Y-103905415D01*
X172688361Y-103934665D01*
X172738831Y-103968388D01*
X172850000Y-103990501D01*
X172850005Y-103990500D01*
X173199995Y-103990500D01*
X173200000Y-103990501D01*
X173292725Y-103972056D01*
X173311170Y-103968387D01*
X173311733Y-103968011D01*
X173372879Y-103968064D01*
X173508183Y-103912158D01*
X173611794Y-103808728D01*
X173667936Y-103673521D01*
X173668064Y-103527121D01*
X173612158Y-103391817D01*
X173508728Y-103288206D01*
X173373521Y-103232064D01*
X173227121Y-103231936D01*
X173091817Y-103287842D01*
X172988206Y-103391272D01*
X172980637Y-103409500D01*
X172970329Y-103409500D01*
X172790500Y-103229670D01*
X172790500Y-100460330D01*
X173183682Y-100067147D01*
X173314655Y-100154661D01*
X173776363Y-100246500D01*
X173823637Y-100246500D01*
X174285345Y-100154661D01*
X174676761Y-99893124D01*
X174938298Y-99501708D01*
X175030137Y-99040000D01*
X174938298Y-98578292D01*
X174676761Y-98186876D01*
X174285345Y-97925339D01*
X173823637Y-97833500D01*
X173776363Y-97833500D01*
X173314655Y-97925339D01*
X172923239Y-98186876D01*
X172661702Y-98578292D01*
X172569863Y-99040000D01*
X172661702Y-99501708D01*
X172768151Y-99661019D01*
X172440500Y-99988670D01*
X172440500Y-96548375D01*
X172592500Y-96548375D01*
X172592500Y-97554091D01*
X172621654Y-97624476D01*
X172675524Y-97678346D01*
X172745908Y-97707500D01*
X173751625Y-97707500D01*
X173799500Y-97659625D01*
X173799500Y-96500500D01*
X173800500Y-96500500D01*
X173800500Y-97659625D01*
X173848375Y-97707500D01*
X174854092Y-97707500D01*
X174924476Y-97678346D01*
X174978346Y-97624476D01*
X175007500Y-97554091D01*
X175007500Y-96548375D01*
X174959625Y-96500500D01*
X173800500Y-96500500D01*
X173799500Y-96500500D01*
X173799500Y-96500500D01*
X172640375Y-96500500D01*
X172592500Y-96548375D01*
X172440500Y-96548375D01*
X172440500Y-95445909D01*
X172592500Y-95445909D01*
X172592500Y-96451625D01*
X172640375Y-96499500D01*
X173799500Y-96499500D01*
X173799500Y-95340375D01*
X173800500Y-95340375D01*
X173800500Y-96499500D01*
X174959625Y-96499500D01*
X175007500Y-96451625D01*
X175007500Y-95445909D01*
X174978346Y-95375524D01*
X174924476Y-95321654D01*
X174854092Y-95292500D01*
X173848375Y-95292500D01*
X173800500Y-95340375D01*
X173799500Y-95340375D01*
X173799500Y-95340375D01*
X173751625Y-95292500D01*
X172745908Y-95292500D01*
X172675524Y-95321654D01*
X172621654Y-95375524D01*
X172592500Y-95445909D01*
X172440500Y-95445909D01*
X172440500Y-94622879D01*
X174181936Y-94622879D01*
X174237842Y-94758183D01*
X174341272Y-94861794D01*
X174476479Y-94917936D01*
X174622879Y-94918064D01*
X174758183Y-94862158D01*
X174861794Y-94758728D01*
X174917936Y-94623521D01*
X174918064Y-94477121D01*
X174862158Y-94341817D01*
X174758728Y-94238206D01*
X174623521Y-94182064D01*
X174477121Y-94181936D01*
X174341817Y-94237842D01*
X174238206Y-94341272D01*
X174182064Y-94476479D01*
X174181936Y-94622879D01*
X172440500Y-94622879D01*
X172440500Y-87622879D01*
X173231936Y-87622879D01*
X173287842Y-87758183D01*
X173391272Y-87861794D01*
X173526479Y-87917936D01*
X173557133Y-87917963D01*
X177844583Y-92205412D01*
X177844585Y-92205415D01*
X177938830Y-92268387D01*
X178050000Y-92290500D01*
X178498670Y-92290500D01*
X178044585Y-92744585D01*
X177981613Y-92838830D01*
X177981613Y-92838831D01*
X177959499Y-92950000D01*
X177959500Y-92950005D01*
X177959500Y-98920015D01*
X177938206Y-98941272D01*
X177882064Y-99076479D01*
X177881936Y-99222879D01*
X177937842Y-99358183D01*
X177996000Y-99416443D01*
X177996000Y-103144790D01*
X177808783Y-103332007D01*
X177727121Y-103331936D01*
X177591817Y-103387842D01*
X177488206Y-103491272D01*
X177432064Y-103626479D01*
X177431936Y-103772879D01*
X177487842Y-103908183D01*
X177591272Y-104011794D01*
X177726479Y-104067936D01*
X177872879Y-104068064D01*
X178008183Y-104012158D01*
X178111794Y-103908728D01*
X178167936Y-103773521D01*
X178168008Y-103691202D01*
X178429605Y-103429605D01*
X178482795Y-103350000D01*
X178484665Y-103347202D01*
X178504000Y-103250000D01*
X178504000Y-99416421D01*
X178561794Y-99358728D01*
X178617936Y-99223521D01*
X178618064Y-99077121D01*
X178562158Y-98941817D01*
X178540500Y-98920121D01*
X178540500Y-93070330D01*
X179242791Y-92368038D01*
X179272879Y-92368064D01*
X179408183Y-92312158D01*
X179511794Y-92208728D01*
X179567936Y-92073521D01*
X179568064Y-91927121D01*
X179512158Y-91791817D01*
X179408728Y-91688206D01*
X179273521Y-91632064D01*
X179127121Y-91631936D01*
X178991817Y-91687842D01*
X178970121Y-91709500D01*
X178170329Y-91709500D01*
X173968038Y-87507208D01*
X173968064Y-87477121D01*
X173912158Y-87341817D01*
X173808728Y-87238206D01*
X173673521Y-87182064D01*
X173527121Y-87181936D01*
X173391817Y-87237842D01*
X173288206Y-87341272D01*
X173232064Y-87476479D01*
X173231936Y-87622879D01*
X172440500Y-87622879D01*
X172440500Y-80940500D01*
X177966500Y-80940500D01*
X177966500Y-82980000D01*
X177971334Y-83004300D01*
X177985099Y-83024901D01*
X178005700Y-83038666D01*
X178030000Y-83043500D01*
X184959500Y-83043500D01*
X184959500Y-115459500D01*
X150440500Y-115459500D01*
X150440500Y-114272879D01*
X151221936Y-114272879D01*
X151277842Y-114408183D01*
X151381272Y-114511794D01*
X151516479Y-114567936D01*
X151662879Y-114568064D01*
X151798183Y-114512158D01*
X151901794Y-114408728D01*
X151957936Y-114273521D01*
X151957989Y-114212879D01*
X153391936Y-114212879D01*
X153447842Y-114348183D01*
X153551272Y-114451794D01*
X153686479Y-114507936D01*
X153832879Y-114508064D01*
X153968183Y-114452158D01*
X154071794Y-114348728D01*
X154126126Y-114217879D01*
X164356936Y-114217879D01*
X164412842Y-114353183D01*
X164516272Y-114456794D01*
X164651479Y-114512936D01*
X164797879Y-114513064D01*
X164933183Y-114457158D01*
X165036794Y-114353728D01*
X165092936Y-114218521D01*
X165092967Y-114182879D01*
X166491936Y-114182879D01*
X166547842Y-114318183D01*
X166651272Y-114421794D01*
X166786479Y-114477936D01*
X166932879Y-114478064D01*
X167068183Y-114422158D01*
X167171794Y-114318728D01*
X167227936Y-114183521D01*
X167228064Y-114037121D01*
X167172158Y-113901817D01*
X167068728Y-113798206D01*
X166933521Y-113742064D01*
X166787121Y-113741936D01*
X166651817Y-113797842D01*
X166548206Y-113901272D01*
X166492064Y-114036479D01*
X166491936Y-114182879D01*
X165092967Y-114182879D01*
X165093064Y-114072121D01*
X165037158Y-113936817D01*
X164933728Y-113833206D01*
X164798521Y-113777064D01*
X164652121Y-113776936D01*
X164516817Y-113832842D01*
X164413206Y-113936272D01*
X164357064Y-114071479D01*
X164356936Y-114217879D01*
X154126126Y-114217879D01*
X154127936Y-114213521D01*
X154128064Y-114067121D01*
X154072158Y-113931817D01*
X153968728Y-113828206D01*
X153833521Y-113772064D01*
X153687121Y-113771936D01*
X153551817Y-113827842D01*
X153448206Y-113931272D01*
X153392064Y-114066479D01*
X153391936Y-114212879D01*
X151957989Y-114212879D01*
X151958064Y-114127121D01*
X151902158Y-113991817D01*
X151798728Y-113888206D01*
X151663521Y-113832064D01*
X151517121Y-113831936D01*
X151381817Y-113887842D01*
X151278206Y-113991272D01*
X151222064Y-114126479D01*
X151221936Y-114272879D01*
X150440500Y-114272879D01*
X150440500Y-111740000D01*
X150469863Y-111740000D01*
X150561702Y-112201708D01*
X150823239Y-112593124D01*
X151214655Y-112854661D01*
X151676363Y-112946500D01*
X151723637Y-112946500D01*
X152185345Y-112854661D01*
X152576761Y-112593124D01*
X152838298Y-112201708D01*
X152930137Y-111740000D01*
X152838298Y-111278292D01*
X152576761Y-110886876D01*
X152185345Y-110625339D01*
X152172978Y-110622879D01*
X156931936Y-110622879D01*
X156987842Y-110758183D01*
X157091272Y-110861794D01*
X157226479Y-110917936D01*
X157372879Y-110918064D01*
X157508183Y-110862158D01*
X157566443Y-110804000D01*
X160983579Y-110804000D01*
X161041272Y-110861794D01*
X161176479Y-110917936D01*
X161322879Y-110918064D01*
X161458183Y-110862158D01*
X161561794Y-110758728D01*
X161617936Y-110623521D01*
X161618064Y-110477121D01*
X161562158Y-110341817D01*
X161458728Y-110238206D01*
X161323521Y-110182064D01*
X161177121Y-110181936D01*
X161041817Y-110237842D01*
X160983557Y-110296000D01*
X157566421Y-110296000D01*
X157508728Y-110238206D01*
X157373521Y-110182064D01*
X157227121Y-110181936D01*
X157091817Y-110237842D01*
X156988206Y-110341272D01*
X156932064Y-110476479D01*
X156931936Y-110622879D01*
X152172978Y-110622879D01*
X151723637Y-110533500D01*
X151676363Y-110533500D01*
X151214655Y-110625339D01*
X150823239Y-110886876D01*
X150561702Y-111278292D01*
X150469863Y-111740000D01*
X150440500Y-111740000D01*
X150440500Y-109248375D01*
X150492500Y-109248375D01*
X150492500Y-110254091D01*
X150521654Y-110324476D01*
X150575524Y-110378346D01*
X150645908Y-110407500D01*
X151651625Y-110407500D01*
X151699500Y-110359625D01*
X151699500Y-109200500D01*
X151700500Y-109200500D01*
X151700500Y-110359625D01*
X151748375Y-110407500D01*
X152754092Y-110407500D01*
X152824476Y-110378346D01*
X152878346Y-110324476D01*
X152907500Y-110254091D01*
X152907500Y-109248375D01*
X152859625Y-109200500D01*
X151700500Y-109200500D01*
X151699500Y-109200500D01*
X151699500Y-109200500D01*
X150540375Y-109200500D01*
X150492500Y-109248375D01*
X150440500Y-109248375D01*
X150440500Y-108145909D01*
X150492500Y-108145909D01*
X150492500Y-109151625D01*
X150540375Y-109199500D01*
X151699500Y-109199500D01*
X151699500Y-108040375D01*
X151700500Y-108040375D01*
X151700500Y-109199500D01*
X152859625Y-109199500D01*
X152907500Y-109151625D01*
X152907500Y-108572879D01*
X154631936Y-108572879D01*
X154687842Y-108708183D01*
X154791272Y-108811794D01*
X154926479Y-108867936D01*
X155008798Y-108868008D01*
X155170395Y-109029605D01*
X155252799Y-109084666D01*
X155350000Y-109104000D01*
X160983579Y-109104000D01*
X161041272Y-109161794D01*
X161176479Y-109217936D01*
X161258798Y-109218008D01*
X161370395Y-109329605D01*
X161452798Y-109384665D01*
X161550000Y-109404000D01*
X162746000Y-109404000D01*
X162746000Y-110743623D01*
X162663206Y-110826272D01*
X162607064Y-110961479D01*
X162606936Y-111107879D01*
X162662842Y-111243183D01*
X162766272Y-111346794D01*
X162901479Y-111402936D01*
X163047879Y-111403064D01*
X163183183Y-111347158D01*
X163286794Y-111243728D01*
X163342936Y-111108521D01*
X163343064Y-110962121D01*
X163287158Y-110826817D01*
X163254000Y-110793601D01*
X163254000Y-109404000D01*
X164187379Y-109404000D01*
X169411764Y-115170539D01*
X169416262Y-115173876D01*
X169419342Y-115178545D01*
X169455890Y-115203278D01*
X169491356Y-115229592D01*
X169496785Y-115230953D01*
X169501419Y-115234089D01*
X169544656Y-115242955D01*
X169587486Y-115253692D01*
X169593023Y-115252872D01*
X169598506Y-115253996D01*
X178098506Y-115303996D01*
X178130555Y-115297817D01*
X178163140Y-115296027D01*
X178178781Y-115288518D01*
X178195820Y-115285233D01*
X178223063Y-115267260D01*
X178252483Y-115253137D01*
X178264061Y-115240213D01*
X178278545Y-115230658D01*
X178296835Y-115203631D01*
X178318614Y-115179321D01*
X178955382Y-114102879D01*
X181181936Y-114102879D01*
X181237842Y-114238183D01*
X181341272Y-114341794D01*
X181476479Y-114397936D01*
X181622879Y-114398064D01*
X181758183Y-114342158D01*
X181861794Y-114238728D01*
X181897441Y-114152879D01*
X183401936Y-114152879D01*
X183457842Y-114288183D01*
X183561272Y-114391794D01*
X183696479Y-114447936D01*
X183842879Y-114448064D01*
X183978183Y-114392158D01*
X184081794Y-114288728D01*
X184137936Y-114153521D01*
X184138064Y-114007121D01*
X184082158Y-113871817D01*
X183978728Y-113768206D01*
X183843521Y-113712064D01*
X183697121Y-113711936D01*
X183561817Y-113767842D01*
X183458206Y-113871272D01*
X183402064Y-114006479D01*
X183401936Y-114152879D01*
X181897441Y-114152879D01*
X181917936Y-114103521D01*
X181918064Y-113957121D01*
X181862158Y-113821817D01*
X181758728Y-113718206D01*
X181623521Y-113662064D01*
X181477121Y-113661936D01*
X181341817Y-113717842D01*
X181238206Y-113821272D01*
X181182064Y-113956479D01*
X181181936Y-114102879D01*
X178955382Y-114102879D01*
X180398762Y-111662879D01*
X180556936Y-111662879D01*
X180612842Y-111798183D01*
X180716272Y-111901794D01*
X180851479Y-111957936D01*
X180997879Y-111958064D01*
X181133183Y-111902158D01*
X181236794Y-111798728D01*
X181292936Y-111663521D01*
X181293064Y-111517121D01*
X181237158Y-111381817D01*
X181133728Y-111278206D01*
X180998521Y-111222064D01*
X180852121Y-111221936D01*
X180716817Y-111277842D01*
X180613206Y-111381272D01*
X180557064Y-111516479D01*
X180556936Y-111662879D01*
X180398762Y-111662879D01*
X182518614Y-108079321D01*
X182524490Y-108062594D01*
X182534382Y-108047882D01*
X182540768Y-108016259D01*
X182551462Y-107985817D01*
X182550490Y-107968114D01*
X182553999Y-107950736D01*
X182603227Y-90967193D01*
X182661794Y-90908728D01*
X182717936Y-90773521D01*
X182718064Y-90627121D01*
X182662158Y-90491817D01*
X182558728Y-90388206D01*
X182423521Y-90332064D01*
X182277121Y-90331936D01*
X182141817Y-90387842D01*
X182038206Y-90491272D01*
X181982064Y-90626479D01*
X181981936Y-90772879D01*
X182037842Y-90908183D01*
X182095229Y-90965670D01*
X182090113Y-92730477D01*
X181973521Y-92682064D01*
X181827121Y-92681936D01*
X181747160Y-92714975D01*
X181747160Y-86232879D01*
X182961936Y-86232879D01*
X183017842Y-86368183D01*
X183121272Y-86471794D01*
X183256479Y-86527936D01*
X183402879Y-86528064D01*
X183538183Y-86472158D01*
X183641794Y-86368728D01*
X183697936Y-86233521D01*
X183698064Y-86087121D01*
X183642158Y-85951817D01*
X183538728Y-85848206D01*
X183403521Y-85792064D01*
X183257121Y-85791936D01*
X183121817Y-85847842D01*
X183018206Y-85951272D01*
X182962064Y-86086479D01*
X182961936Y-86232879D01*
X181747160Y-86232879D01*
X181747160Y-84992879D01*
X182311936Y-84992879D01*
X182367842Y-85128183D01*
X182471272Y-85231794D01*
X182606479Y-85287936D01*
X182752879Y-85288064D01*
X182811456Y-85263861D01*
X182802064Y-85286479D01*
X182801936Y-85432879D01*
X182857842Y-85568183D01*
X182961272Y-85671794D01*
X183096479Y-85727936D01*
X183242879Y-85728064D01*
X183378183Y-85672158D01*
X183481794Y-85568728D01*
X183537936Y-85433521D01*
X183538064Y-85287121D01*
X183482158Y-85151817D01*
X183378728Y-85048206D01*
X183243521Y-84992064D01*
X183097121Y-84991936D01*
X183038544Y-85016139D01*
X183047936Y-84993521D01*
X183048064Y-84847121D01*
X182992158Y-84711817D01*
X182888728Y-84608206D01*
X182753521Y-84552064D01*
X182607121Y-84551936D01*
X182471817Y-84607842D01*
X182368206Y-84711272D01*
X182312064Y-84846479D01*
X182311936Y-84992879D01*
X181747160Y-84992879D01*
X181747160Y-84170241D01*
X181804954Y-84112548D01*
X181861096Y-83977341D01*
X181861224Y-83830941D01*
X181805318Y-83695637D01*
X181701888Y-83592026D01*
X181566681Y-83535884D01*
X181420281Y-83535756D01*
X181284977Y-83591662D01*
X181181366Y-83695092D01*
X181125224Y-83830299D01*
X181125096Y-83976699D01*
X181181002Y-84112003D01*
X181239160Y-84170263D01*
X181239160Y-91825703D01*
X181124721Y-91778184D01*
X180978321Y-91778056D01*
X180843017Y-91833962D01*
X180739406Y-91937392D01*
X180683264Y-92072599D01*
X180683136Y-92218999D01*
X180739042Y-92354303D01*
X180797200Y-92412563D01*
X180797200Y-92458874D01*
X180736101Y-92433504D01*
X180589701Y-92433376D01*
X180454397Y-92489282D01*
X180350786Y-92592712D01*
X180294644Y-92727919D01*
X180294516Y-92874319D01*
X180350422Y-93009623D01*
X180408580Y-93067883D01*
X180408580Y-106160770D01*
X178306930Y-108262420D01*
X175211740Y-108262420D01*
X175114539Y-108281754D01*
X175032135Y-108336815D01*
X173813363Y-109555587D01*
X173731701Y-109555516D01*
X173596397Y-109611422D01*
X173492786Y-109714852D01*
X173436644Y-109850059D01*
X173436516Y-109996459D01*
X173492422Y-110131763D01*
X173595852Y-110235374D01*
X173731059Y-110291516D01*
X173877459Y-110291644D01*
X174012763Y-110235738D01*
X174116374Y-110132308D01*
X174172516Y-109997101D01*
X174172588Y-109914782D01*
X174340797Y-109746573D01*
X174340756Y-109793259D01*
X174396662Y-109928563D01*
X174500092Y-110032174D01*
X174635299Y-110088316D01*
X174781699Y-110088444D01*
X174917003Y-110032538D01*
X175020614Y-109929108D01*
X175076756Y-109793901D01*
X175076828Y-109711582D01*
X175456650Y-109331760D01*
X178508660Y-109331760D01*
X178605862Y-109312425D01*
X178688265Y-109257365D01*
X181230805Y-106714825D01*
X181239160Y-106702321D01*
X181239160Y-107092950D01*
X178659990Y-109672120D01*
X176006414Y-109672120D01*
X175910688Y-109576226D01*
X175775481Y-109520084D01*
X175629081Y-109519956D01*
X175493777Y-109575862D01*
X175390166Y-109679292D01*
X175334024Y-109814499D01*
X175333896Y-109960899D01*
X175389802Y-110096203D01*
X175493232Y-110199814D01*
X175628439Y-110255956D01*
X175774839Y-110256084D01*
X175910143Y-110200178D01*
X175930236Y-110180120D01*
X178765200Y-110180120D01*
X178862402Y-110160785D01*
X178944805Y-110105725D01*
X181646000Y-107404530D01*
X181646000Y-107644790D01*
X181020395Y-108270395D01*
X180965335Y-108352798D01*
X180946000Y-108450000D01*
X180946000Y-108894790D01*
X179070395Y-110770395D01*
X179015335Y-110852798D01*
X178996000Y-110950000D01*
X178996000Y-111994790D01*
X177394790Y-113596000D01*
X169405210Y-113596000D01*
X168067993Y-112258783D01*
X168068064Y-112177121D01*
X168012158Y-112041817D01*
X167908728Y-111938206D01*
X167773521Y-111882064D01*
X167627121Y-111881936D01*
X167491817Y-111937842D01*
X167388206Y-112041272D01*
X167348600Y-112136656D01*
X166973726Y-111722879D01*
X173031936Y-111722879D01*
X173087842Y-111858183D01*
X173191272Y-111961794D01*
X173326479Y-112017936D01*
X173472879Y-112018064D01*
X173608183Y-111962158D01*
X173711794Y-111858728D01*
X173767936Y-111723521D01*
X173768064Y-111577121D01*
X173712158Y-111441817D01*
X173608728Y-111338206D01*
X173473521Y-111282064D01*
X173327121Y-111281936D01*
X173191817Y-111337842D01*
X173088206Y-111441272D01*
X173032064Y-111576479D01*
X173031936Y-111722879D01*
X166973726Y-111722879D01*
X166416546Y-111107879D01*
X168956936Y-111107879D01*
X169012842Y-111243183D01*
X169116272Y-111346794D01*
X169251479Y-111402936D01*
X169397879Y-111403064D01*
X169533183Y-111347158D01*
X169636794Y-111243728D01*
X169692936Y-111108521D01*
X169693064Y-110962121D01*
X169637158Y-110826817D01*
X169533728Y-110723206D01*
X169398521Y-110667064D01*
X169252121Y-110666936D01*
X169116817Y-110722842D01*
X169013206Y-110826272D01*
X168957064Y-110961479D01*
X168956936Y-111107879D01*
X166416546Y-111107879D01*
X164488236Y-108979462D01*
X164483134Y-108975677D01*
X164479605Y-108970395D01*
X164443509Y-108946276D01*
X164408644Y-108920408D01*
X164402483Y-108918863D01*
X164397202Y-108915335D01*
X164354623Y-108906865D01*
X164312514Y-108896309D01*
X164306232Y-108897240D01*
X164300000Y-108896000D01*
X161655210Y-108896000D01*
X161617993Y-108858783D01*
X161618064Y-108777121D01*
X161562158Y-108641817D01*
X161458728Y-108538206D01*
X161323521Y-108482064D01*
X161177121Y-108481936D01*
X161041817Y-108537842D01*
X160983557Y-108596000D01*
X155455210Y-108596000D01*
X155367993Y-108508783D01*
X155368064Y-108427121D01*
X155312158Y-108291817D01*
X155208728Y-108188206D01*
X155073521Y-108132064D01*
X154927121Y-108131936D01*
X154791817Y-108187842D01*
X154688206Y-108291272D01*
X154632064Y-108426479D01*
X154631936Y-108572879D01*
X152907500Y-108572879D01*
X152907500Y-108145909D01*
X152878346Y-108075524D01*
X152824476Y-108021654D01*
X152754092Y-107992500D01*
X151748375Y-107992500D01*
X151700500Y-108040375D01*
X151699500Y-108040375D01*
X151699500Y-108040375D01*
X151651625Y-107992500D01*
X150645908Y-107992500D01*
X150575524Y-108021654D01*
X150521654Y-108075524D01*
X150492500Y-108145909D01*
X150440500Y-108145909D01*
X150440500Y-107940500D01*
X172200000Y-107940500D01*
X172292035Y-107922193D01*
X172370059Y-107870059D01*
X172370059Y-107870059D01*
G37*
X172370059Y-107870059D02*
X172422193Y-107792035D01*
X172440500Y-107700000D01*
X172440500Y-107362879D01*
X176291936Y-107362879D01*
X176347842Y-107498183D01*
X176451272Y-107601794D01*
X176586479Y-107657936D01*
X176732879Y-107658064D01*
X176868183Y-107602158D01*
X176971794Y-107498728D01*
X177027936Y-107363521D01*
X177028064Y-107217121D01*
X176972158Y-107081817D01*
X176868728Y-106978206D01*
X176733521Y-106922064D01*
X176587121Y-106921936D01*
X176451817Y-106977842D01*
X176348206Y-107081272D01*
X176292064Y-107216479D01*
X176291936Y-107362879D01*
X172440500Y-107362879D01*
X172440500Y-103701330D01*
X172644583Y-103905412D01*
X172644585Y-103905415D01*
X172688361Y-103934665D01*
X172738831Y-103968388D01*
X172850000Y-103990501D01*
X172850005Y-103990500D01*
X173199995Y-103990500D01*
X173200000Y-103990501D01*
X173292725Y-103972056D01*
X173311170Y-103968387D01*
X173311733Y-103968011D01*
X173372879Y-103968064D01*
X173508183Y-103912158D01*
X173611794Y-103808728D01*
X173667936Y-103673521D01*
X173668064Y-103527121D01*
X173612158Y-103391817D01*
X173508728Y-103288206D01*
X173373521Y-103232064D01*
X173227121Y-103231936D01*
X173091817Y-103287842D01*
X172988206Y-103391272D01*
X172980637Y-103409500D01*
X172970329Y-103409500D01*
X172790500Y-103229670D01*
X172790500Y-100460330D01*
X173183682Y-100067147D01*
X173314655Y-100154661D01*
X173776363Y-100246500D01*
X173823637Y-100246500D01*
X174285345Y-100154661D01*
X174676761Y-99893124D01*
X174938298Y-99501708D01*
X175030137Y-99040000D01*
X174938298Y-98578292D01*
X174676761Y-98186876D01*
X174285345Y-97925339D01*
X173823637Y-97833500D01*
X173776363Y-97833500D01*
X173314655Y-97925339D01*
X172923239Y-98186876D01*
X172661702Y-98578292D01*
X172569863Y-99040000D01*
X172661702Y-99501708D01*
X172768151Y-99661019D01*
X172440500Y-99988670D01*
X172440500Y-96548375D01*
X172592500Y-96548375D01*
X172592500Y-97554091D01*
X172621654Y-97624476D01*
X172675524Y-97678346D01*
X172745908Y-97707500D01*
X173751625Y-97707500D01*
X173799500Y-97659625D01*
X173799500Y-96500500D01*
X173800500Y-96500500D01*
X173800500Y-97659625D01*
X173848375Y-97707500D01*
X174854092Y-97707500D01*
X174924476Y-97678346D01*
X174978346Y-97624476D01*
X175007500Y-97554091D01*
X175007500Y-96548375D01*
X174959625Y-96500500D01*
X173800500Y-96500500D01*
X173799500Y-96500500D01*
X173799500Y-96500500D01*
X172640375Y-96500500D01*
X172592500Y-96548375D01*
X172440500Y-96548375D01*
X172440500Y-95445909D01*
X172592500Y-95445909D01*
X172592500Y-96451625D01*
X172640375Y-96499500D01*
X173799500Y-96499500D01*
X173799500Y-95340375D01*
X173800500Y-95340375D01*
X173800500Y-96499500D01*
X174959625Y-96499500D01*
X175007500Y-96451625D01*
X175007500Y-95445909D01*
X174978346Y-95375524D01*
X174924476Y-95321654D01*
X174854092Y-95292500D01*
X173848375Y-95292500D01*
X173800500Y-95340375D01*
X173799500Y-95340375D01*
X173799500Y-95340375D01*
X173751625Y-95292500D01*
X172745908Y-95292500D01*
X172675524Y-95321654D01*
X172621654Y-95375524D01*
X172592500Y-95445909D01*
X172440500Y-95445909D01*
X172440500Y-94622879D01*
X174181936Y-94622879D01*
X174237842Y-94758183D01*
X174341272Y-94861794D01*
X174476479Y-94917936D01*
X174622879Y-94918064D01*
X174758183Y-94862158D01*
X174861794Y-94758728D01*
X174917936Y-94623521D01*
X174918064Y-94477121D01*
X174862158Y-94341817D01*
X174758728Y-94238206D01*
X174623521Y-94182064D01*
X174477121Y-94181936D01*
X174341817Y-94237842D01*
X174238206Y-94341272D01*
X174182064Y-94476479D01*
X174181936Y-94622879D01*
X172440500Y-94622879D01*
X172440500Y-87622879D01*
X173231936Y-87622879D01*
X173287842Y-87758183D01*
X173391272Y-87861794D01*
X173526479Y-87917936D01*
X173557133Y-87917963D01*
X177844583Y-92205412D01*
X177844585Y-92205415D01*
X177938830Y-92268387D01*
X178050000Y-92290500D01*
X178498670Y-92290500D01*
X178044585Y-92744585D01*
X177981613Y-92838830D01*
X177981613Y-92838831D01*
X177959499Y-92950000D01*
X177959500Y-92950005D01*
X177959500Y-98920015D01*
X177938206Y-98941272D01*
X177882064Y-99076479D01*
X177881936Y-99222879D01*
X177937842Y-99358183D01*
X177996000Y-99416443D01*
X177996000Y-103144790D01*
X177808783Y-103332007D01*
X177727121Y-103331936D01*
X177591817Y-103387842D01*
X177488206Y-103491272D01*
X177432064Y-103626479D01*
X177431936Y-103772879D01*
X177487842Y-103908183D01*
X177591272Y-104011794D01*
X177726479Y-104067936D01*
X177872879Y-104068064D01*
X178008183Y-104012158D01*
X178111794Y-103908728D01*
X178167936Y-103773521D01*
X178168008Y-103691202D01*
X178429605Y-103429605D01*
X178482795Y-103350000D01*
X178484665Y-103347202D01*
X178504000Y-103250000D01*
X178504000Y-99416421D01*
X178561794Y-99358728D01*
X178617936Y-99223521D01*
X178618064Y-99077121D01*
X178562158Y-98941817D01*
X178540500Y-98920121D01*
X178540500Y-93070330D01*
X179242791Y-92368038D01*
X179272879Y-92368064D01*
X179408183Y-92312158D01*
X179511794Y-92208728D01*
X179567936Y-92073521D01*
X179568064Y-91927121D01*
X179512158Y-91791817D01*
X179408728Y-91688206D01*
X179273521Y-91632064D01*
X179127121Y-91631936D01*
X178991817Y-91687842D01*
X178970121Y-91709500D01*
X178170329Y-91709500D01*
X173968038Y-87507208D01*
X173968064Y-87477121D01*
X173912158Y-87341817D01*
X173808728Y-87238206D01*
X173673521Y-87182064D01*
X173527121Y-87181936D01*
X173391817Y-87237842D01*
X173288206Y-87341272D01*
X173232064Y-87476479D01*
X173231936Y-87622879D01*
X172440500Y-87622879D01*
X172440500Y-80940500D01*
X177966500Y-80940500D01*
X177966500Y-82980000D01*
X177971334Y-83004300D01*
X177985099Y-83024901D01*
X178005700Y-83038666D01*
X178030000Y-83043500D01*
X184959500Y-83043500D01*
X184959500Y-115459500D01*
X150440500Y-115459500D01*
X150440500Y-114272879D01*
X151221936Y-114272879D01*
X151277842Y-114408183D01*
X151381272Y-114511794D01*
X151516479Y-114567936D01*
X151662879Y-114568064D01*
X151798183Y-114512158D01*
X151901794Y-114408728D01*
X151957936Y-114273521D01*
X151957989Y-114212879D01*
X153391936Y-114212879D01*
X153447842Y-114348183D01*
X153551272Y-114451794D01*
X153686479Y-114507936D01*
X153832879Y-114508064D01*
X153968183Y-114452158D01*
X154071794Y-114348728D01*
X154126126Y-114217879D01*
X164356936Y-114217879D01*
X164412842Y-114353183D01*
X164516272Y-114456794D01*
X164651479Y-114512936D01*
X164797879Y-114513064D01*
X164933183Y-114457158D01*
X165036794Y-114353728D01*
X165092936Y-114218521D01*
X165092967Y-114182879D01*
X166491936Y-114182879D01*
X166547842Y-114318183D01*
X166651272Y-114421794D01*
X166786479Y-114477936D01*
X166932879Y-114478064D01*
X167068183Y-114422158D01*
X167171794Y-114318728D01*
X167227936Y-114183521D01*
X167228064Y-114037121D01*
X167172158Y-113901817D01*
X167068728Y-113798206D01*
X166933521Y-113742064D01*
X166787121Y-113741936D01*
X166651817Y-113797842D01*
X166548206Y-113901272D01*
X166492064Y-114036479D01*
X166491936Y-114182879D01*
X165092967Y-114182879D01*
X165093064Y-114072121D01*
X165037158Y-113936817D01*
X164933728Y-113833206D01*
X164798521Y-113777064D01*
X164652121Y-113776936D01*
X164516817Y-113832842D01*
X164413206Y-113936272D01*
X164357064Y-114071479D01*
X164356936Y-114217879D01*
X154126126Y-114217879D01*
X154127936Y-114213521D01*
X154128064Y-114067121D01*
X154072158Y-113931817D01*
X153968728Y-113828206D01*
X153833521Y-113772064D01*
X153687121Y-113771936D01*
X153551817Y-113827842D01*
X153448206Y-113931272D01*
X153392064Y-114066479D01*
X153391936Y-114212879D01*
X151957989Y-114212879D01*
X151958064Y-114127121D01*
X151902158Y-113991817D01*
X151798728Y-113888206D01*
X151663521Y-113832064D01*
X151517121Y-113831936D01*
X151381817Y-113887842D01*
X151278206Y-113991272D01*
X151222064Y-114126479D01*
X151221936Y-114272879D01*
X150440500Y-114272879D01*
X150440500Y-111740000D01*
X150469863Y-111740000D01*
X150561702Y-112201708D01*
X150823239Y-112593124D01*
X151214655Y-112854661D01*
X151676363Y-112946500D01*
X151723637Y-112946500D01*
X152185345Y-112854661D01*
X152576761Y-112593124D01*
X152838298Y-112201708D01*
X152930137Y-111740000D01*
X152838298Y-111278292D01*
X152576761Y-110886876D01*
X152185345Y-110625339D01*
X152172978Y-110622879D01*
X156931936Y-110622879D01*
X156987842Y-110758183D01*
X157091272Y-110861794D01*
X157226479Y-110917936D01*
X157372879Y-110918064D01*
X157508183Y-110862158D01*
X157566443Y-110804000D01*
X160983579Y-110804000D01*
X161041272Y-110861794D01*
X161176479Y-110917936D01*
X161322879Y-110918064D01*
X161458183Y-110862158D01*
X161561794Y-110758728D01*
X161617936Y-110623521D01*
X161618064Y-110477121D01*
X161562158Y-110341817D01*
X161458728Y-110238206D01*
X161323521Y-110182064D01*
X161177121Y-110181936D01*
X161041817Y-110237842D01*
X160983557Y-110296000D01*
X157566421Y-110296000D01*
X157508728Y-110238206D01*
X157373521Y-110182064D01*
X157227121Y-110181936D01*
X157091817Y-110237842D01*
X156988206Y-110341272D01*
X156932064Y-110476479D01*
X156931936Y-110622879D01*
X152172978Y-110622879D01*
X151723637Y-110533500D01*
X151676363Y-110533500D01*
X151214655Y-110625339D01*
X150823239Y-110886876D01*
X150561702Y-111278292D01*
X150469863Y-111740000D01*
X150440500Y-111740000D01*
X150440500Y-109248375D01*
X150492500Y-109248375D01*
X150492500Y-110254091D01*
X150521654Y-110324476D01*
X150575524Y-110378346D01*
X150645908Y-110407500D01*
X151651625Y-110407500D01*
X151699500Y-110359625D01*
X151699500Y-109200500D01*
X151700500Y-109200500D01*
X151700500Y-110359625D01*
X151748375Y-110407500D01*
X152754092Y-110407500D01*
X152824476Y-110378346D01*
X152878346Y-110324476D01*
X152907500Y-110254091D01*
X152907500Y-109248375D01*
X152859625Y-109200500D01*
X151700500Y-109200500D01*
X151699500Y-109200500D01*
X151699500Y-109200500D01*
X150540375Y-109200500D01*
X150492500Y-109248375D01*
X150440500Y-109248375D01*
X150440500Y-108145909D01*
X150492500Y-108145909D01*
X150492500Y-109151625D01*
X150540375Y-109199500D01*
X151699500Y-109199500D01*
X151699500Y-108040375D01*
X151700500Y-108040375D01*
X151700500Y-109199500D01*
X152859625Y-109199500D01*
X152907500Y-109151625D01*
X152907500Y-108572879D01*
X154631936Y-108572879D01*
X154687842Y-108708183D01*
X154791272Y-108811794D01*
X154926479Y-108867936D01*
X155008798Y-108868008D01*
X155170395Y-109029605D01*
X155252799Y-109084666D01*
X155350000Y-109104000D01*
X160983579Y-109104000D01*
X161041272Y-109161794D01*
X161176479Y-109217936D01*
X161258798Y-109218008D01*
X161370395Y-109329605D01*
X161452798Y-109384665D01*
X161550000Y-109404000D01*
X162746000Y-109404000D01*
X162746000Y-110743623D01*
X162663206Y-110826272D01*
X162607064Y-110961479D01*
X162606936Y-111107879D01*
X162662842Y-111243183D01*
X162766272Y-111346794D01*
X162901479Y-111402936D01*
X163047879Y-111403064D01*
X163183183Y-111347158D01*
X163286794Y-111243728D01*
X163342936Y-111108521D01*
X163343064Y-110962121D01*
X163287158Y-110826817D01*
X163254000Y-110793601D01*
X163254000Y-109404000D01*
X164187379Y-109404000D01*
X169411764Y-115170539D01*
X169416262Y-115173876D01*
X169419342Y-115178545D01*
X169455890Y-115203278D01*
X169491356Y-115229592D01*
X169496785Y-115230953D01*
X169501419Y-115234089D01*
X169544656Y-115242955D01*
X169587486Y-115253692D01*
X169593023Y-115252872D01*
X169598506Y-115253996D01*
X178098506Y-115303996D01*
X178130555Y-115297817D01*
X178163140Y-115296027D01*
X178178781Y-115288518D01*
X178195820Y-115285233D01*
X178223063Y-115267260D01*
X178252483Y-115253137D01*
X178264061Y-115240213D01*
X178278545Y-115230658D01*
X178296835Y-115203631D01*
X178318614Y-115179321D01*
X178955382Y-114102879D01*
X181181936Y-114102879D01*
X181237842Y-114238183D01*
X181341272Y-114341794D01*
X181476479Y-114397936D01*
X181622879Y-114398064D01*
X181758183Y-114342158D01*
X181861794Y-114238728D01*
X181897441Y-114152879D01*
X183401936Y-114152879D01*
X183457842Y-114288183D01*
X183561272Y-114391794D01*
X183696479Y-114447936D01*
X183842879Y-114448064D01*
X183978183Y-114392158D01*
X184081794Y-114288728D01*
X184137936Y-114153521D01*
X184138064Y-114007121D01*
X184082158Y-113871817D01*
X183978728Y-113768206D01*
X183843521Y-113712064D01*
X183697121Y-113711936D01*
X183561817Y-113767842D01*
X183458206Y-113871272D01*
X183402064Y-114006479D01*
X183401936Y-114152879D01*
X181897441Y-114152879D01*
X181917936Y-114103521D01*
X181918064Y-113957121D01*
X181862158Y-113821817D01*
X181758728Y-113718206D01*
X181623521Y-113662064D01*
X181477121Y-113661936D01*
X181341817Y-113717842D01*
X181238206Y-113821272D01*
X181182064Y-113956479D01*
X181181936Y-114102879D01*
X178955382Y-114102879D01*
X180398762Y-111662879D01*
X180556936Y-111662879D01*
X180612842Y-111798183D01*
X180716272Y-111901794D01*
X180851479Y-111957936D01*
X180997879Y-111958064D01*
X181133183Y-111902158D01*
X181236794Y-111798728D01*
X181292936Y-111663521D01*
X181293064Y-111517121D01*
X181237158Y-111381817D01*
X181133728Y-111278206D01*
X180998521Y-111222064D01*
X180852121Y-111221936D01*
X180716817Y-111277842D01*
X180613206Y-111381272D01*
X180557064Y-111516479D01*
X180556936Y-111662879D01*
X180398762Y-111662879D01*
X182518614Y-108079321D01*
X182524490Y-108062594D01*
X182534382Y-108047882D01*
X182540768Y-108016259D01*
X182551462Y-107985817D01*
X182550490Y-107968114D01*
X182553999Y-107950736D01*
X182603227Y-90967193D01*
X182661794Y-90908728D01*
X182717936Y-90773521D01*
X182718064Y-90627121D01*
X182662158Y-90491817D01*
X182558728Y-90388206D01*
X182423521Y-90332064D01*
X182277121Y-90331936D01*
X182141817Y-90387842D01*
X182038206Y-90491272D01*
X181982064Y-90626479D01*
X181981936Y-90772879D01*
X182037842Y-90908183D01*
X182095229Y-90965670D01*
X182090113Y-92730477D01*
X181973521Y-92682064D01*
X181827121Y-92681936D01*
X181747160Y-92714975D01*
X181747160Y-86232879D01*
X182961936Y-86232879D01*
X183017842Y-86368183D01*
X183121272Y-86471794D01*
X183256479Y-86527936D01*
X183402879Y-86528064D01*
X183538183Y-86472158D01*
X183641794Y-86368728D01*
X183697936Y-86233521D01*
X183698064Y-86087121D01*
X183642158Y-85951817D01*
X183538728Y-85848206D01*
X183403521Y-85792064D01*
X183257121Y-85791936D01*
X183121817Y-85847842D01*
X183018206Y-85951272D01*
X182962064Y-86086479D01*
X182961936Y-86232879D01*
X181747160Y-86232879D01*
X181747160Y-84992879D01*
X182311936Y-84992879D01*
X182367842Y-85128183D01*
X182471272Y-85231794D01*
X182606479Y-85287936D01*
X182752879Y-85288064D01*
X182811456Y-85263861D01*
X182802064Y-85286479D01*
X182801936Y-85432879D01*
X182857842Y-85568183D01*
X182961272Y-85671794D01*
X183096479Y-85727936D01*
X183242879Y-85728064D01*
X183378183Y-85672158D01*
X183481794Y-85568728D01*
X183537936Y-85433521D01*
X183538064Y-85287121D01*
X183482158Y-85151817D01*
X183378728Y-85048206D01*
X183243521Y-84992064D01*
X183097121Y-84991936D01*
X183038544Y-85016139D01*
X183047936Y-84993521D01*
X183048064Y-84847121D01*
X182992158Y-84711817D01*
X182888728Y-84608206D01*
X182753521Y-84552064D01*
X182607121Y-84551936D01*
X182471817Y-84607842D01*
X182368206Y-84711272D01*
X182312064Y-84846479D01*
X182311936Y-84992879D01*
X181747160Y-84992879D01*
X181747160Y-84170241D01*
X181804954Y-84112548D01*
X181861096Y-83977341D01*
X181861224Y-83830941D01*
X181805318Y-83695637D01*
X181701888Y-83592026D01*
X181566681Y-83535884D01*
X181420281Y-83535756D01*
X181284977Y-83591662D01*
X181181366Y-83695092D01*
X181125224Y-83830299D01*
X181125096Y-83976699D01*
X181181002Y-84112003D01*
X181239160Y-84170263D01*
X181239160Y-91825703D01*
X181124721Y-91778184D01*
X180978321Y-91778056D01*
X180843017Y-91833962D01*
X180739406Y-91937392D01*
X180683264Y-92072599D01*
X180683136Y-92218999D01*
X180739042Y-92354303D01*
X180797200Y-92412563D01*
X180797200Y-92458874D01*
X180736101Y-92433504D01*
X180589701Y-92433376D01*
X180454397Y-92489282D01*
X180350786Y-92592712D01*
X180294644Y-92727919D01*
X180294516Y-92874319D01*
X180350422Y-93009623D01*
X180408580Y-93067883D01*
X180408580Y-106160770D01*
X178306930Y-108262420D01*
X175211740Y-108262420D01*
X175114539Y-108281754D01*
X175032135Y-108336815D01*
X173813363Y-109555587D01*
X173731701Y-109555516D01*
X173596397Y-109611422D01*
X173492786Y-109714852D01*
X173436644Y-109850059D01*
X173436516Y-109996459D01*
X173492422Y-110131763D01*
X173595852Y-110235374D01*
X173731059Y-110291516D01*
X173877459Y-110291644D01*
X174012763Y-110235738D01*
X174116374Y-110132308D01*
X174172516Y-109997101D01*
X174172588Y-109914782D01*
X174340797Y-109746573D01*
X174340756Y-109793259D01*
X174396662Y-109928563D01*
X174500092Y-110032174D01*
X174635299Y-110088316D01*
X174781699Y-110088444D01*
X174917003Y-110032538D01*
X175020614Y-109929108D01*
X175076756Y-109793901D01*
X175076828Y-109711582D01*
X175456650Y-109331760D01*
X178508660Y-109331760D01*
X178605862Y-109312425D01*
X178688265Y-109257365D01*
X181230805Y-106714825D01*
X181239160Y-106702321D01*
X181239160Y-107092950D01*
X178659990Y-109672120D01*
X176006414Y-109672120D01*
X175910688Y-109576226D01*
X175775481Y-109520084D01*
X175629081Y-109519956D01*
X175493777Y-109575862D01*
X175390166Y-109679292D01*
X175334024Y-109814499D01*
X175333896Y-109960899D01*
X175389802Y-110096203D01*
X175493232Y-110199814D01*
X175628439Y-110255956D01*
X175774839Y-110256084D01*
X175910143Y-110200178D01*
X175930236Y-110180120D01*
X178765200Y-110180120D01*
X178862402Y-110160785D01*
X178944805Y-110105725D01*
X181646000Y-107404530D01*
X181646000Y-107644790D01*
X181020395Y-108270395D01*
X180965335Y-108352798D01*
X180946000Y-108450000D01*
X180946000Y-108894790D01*
X179070395Y-110770395D01*
X179015335Y-110852798D01*
X178996000Y-110950000D01*
X178996000Y-111994790D01*
X177394790Y-113596000D01*
X169405210Y-113596000D01*
X168067993Y-112258783D01*
X168068064Y-112177121D01*
X168012158Y-112041817D01*
X167908728Y-111938206D01*
X167773521Y-111882064D01*
X167627121Y-111881936D01*
X167491817Y-111937842D01*
X167388206Y-112041272D01*
X167348600Y-112136656D01*
X166973726Y-111722879D01*
X173031936Y-111722879D01*
X173087842Y-111858183D01*
X173191272Y-111961794D01*
X173326479Y-112017936D01*
X173472879Y-112018064D01*
X173608183Y-111962158D01*
X173711794Y-111858728D01*
X173767936Y-111723521D01*
X173768064Y-111577121D01*
X173712158Y-111441817D01*
X173608728Y-111338206D01*
X173473521Y-111282064D01*
X173327121Y-111281936D01*
X173191817Y-111337842D01*
X173088206Y-111441272D01*
X173032064Y-111576479D01*
X173031936Y-111722879D01*
X166973726Y-111722879D01*
X166416546Y-111107879D01*
X168956936Y-111107879D01*
X169012842Y-111243183D01*
X169116272Y-111346794D01*
X169251479Y-111402936D01*
X169397879Y-111403064D01*
X169533183Y-111347158D01*
X169636794Y-111243728D01*
X169692936Y-111108521D01*
X169693064Y-110962121D01*
X169637158Y-110826817D01*
X169533728Y-110723206D01*
X169398521Y-110667064D01*
X169252121Y-110666936D01*
X169116817Y-110722842D01*
X169013206Y-110826272D01*
X168957064Y-110961479D01*
X168956936Y-111107879D01*
X166416546Y-111107879D01*
X164488236Y-108979462D01*
X164483134Y-108975677D01*
X164479605Y-108970395D01*
X164443509Y-108946276D01*
X164408644Y-108920408D01*
X164402483Y-108918863D01*
X164397202Y-108915335D01*
X164354623Y-108906865D01*
X164312514Y-108896309D01*
X164306232Y-108897240D01*
X164300000Y-108896000D01*
X161655210Y-108896000D01*
X161617993Y-108858783D01*
X161618064Y-108777121D01*
X161562158Y-108641817D01*
X161458728Y-108538206D01*
X161323521Y-108482064D01*
X161177121Y-108481936D01*
X161041817Y-108537842D01*
X160983557Y-108596000D01*
X155455210Y-108596000D01*
X155367993Y-108508783D01*
X155368064Y-108427121D01*
X155312158Y-108291817D01*
X155208728Y-108188206D01*
X155073521Y-108132064D01*
X154927121Y-108131936D01*
X154791817Y-108187842D01*
X154688206Y-108291272D01*
X154632064Y-108426479D01*
X154631936Y-108572879D01*
X152907500Y-108572879D01*
X152907500Y-108145909D01*
X152878346Y-108075524D01*
X152824476Y-108021654D01*
X152754092Y-107992500D01*
X151748375Y-107992500D01*
X151700500Y-108040375D01*
X151699500Y-108040375D01*
X151699500Y-108040375D01*
X151651625Y-107992500D01*
X150645908Y-107992500D01*
X150575524Y-108021654D01*
X150521654Y-108075524D01*
X150492500Y-108145909D01*
X150440500Y-108145909D01*
X150440500Y-107940500D01*
X172200000Y-107940500D01*
X172292035Y-107922193D01*
X172370059Y-107870059D01*
M02*
