G04 #@! TF.FileFunction,Copper,L3,Inr,Signal*
%FSLAX46Y46*%
G04 Gerber Fmt 4.6, Leading zero omitted, Abs format (unit mm)*
G04 Created by KiCad (PCBNEW (2015-04-30 BZR 5634)-product) date Monday, June 22, 2015 'AMt' 12:38:01 AM*
%MOMM*%
G01*
G04 APERTURE LIST*
%ADD10C,0.100000*%
%ADD11R,2.032000X2.032000*%
%ADD12O,2.032000X2.032000*%
%ADD13C,0.355000*%
%ADD14C,0.127000*%
G04 APERTURE END LIST*
D10*
D11*
X173800000Y-96500000D03*
D12*
X173800000Y-99040000D03*
D11*
X151700000Y-109200000D03*
D12*
X151700000Y-111740000D03*
D13*
X174150000Y-89600000D03*
X174100000Y-84900000D03*
X184300000Y-88500000D03*
X175900000Y-102500000D03*
X176000000Y-100200000D03*
X176800000Y-104400000D03*
X177900000Y-112100000D03*
X164900000Y-109900000D03*
X170400000Y-114300000D03*
X158100000Y-114200000D03*
X154200000Y-112900000D03*
X163900000Y-114800000D03*
X158800000Y-113300000D03*
X162900000Y-114800000D03*
X158100000Y-113300000D03*
X162700000Y-109800000D03*
X160300000Y-109800000D03*
X178200000Y-99300000D03*
X177900000Y-103500000D03*
X181300000Y-113200000D03*
X169000000Y-111100000D03*
X174900000Y-87600000D03*
X179100000Y-92100000D03*
X173600000Y-86400000D03*
X183500000Y-88500000D03*
X172700000Y-109100000D03*
X179600000Y-110700000D03*
X173500000Y-103350000D03*
X161800000Y-111000000D03*
X155300000Y-110900000D03*
X183200000Y-91300000D03*
X167800000Y-110200000D03*
X160100000Y-110400000D03*
X156500000Y-110300000D03*
X164800000Y-112200000D03*
X182300000Y-91100000D03*
X168100000Y-114000000D03*
X183800000Y-84600000D03*
X154600000Y-114200000D03*
X183200000Y-85100000D03*
X183800000Y-114000000D03*
X182500000Y-85100000D03*
X174700000Y-112700000D03*
X181400000Y-91700000D03*
X174000000Y-111600000D03*
X181600000Y-90900000D03*
X180500000Y-109300000D03*
X180700000Y-83700000D03*
X176700000Y-101500000D03*
X177400000Y-109000000D03*
D14*
X173800000Y-91500000D02*
X175100000Y-90200000D01*
X173800000Y-96500000D02*
X173800000Y-91500000D01*
X182600000Y-90200000D02*
X184300000Y-88500000D01*
X175100000Y-90200000D02*
X182600000Y-90200000D01*
X176800000Y-106600000D02*
X177900000Y-107700000D01*
X177900000Y-107700000D02*
X177900000Y-112100000D01*
X176800000Y-104400000D02*
X176800000Y-106600000D01*
X178200000Y-103200000D02*
X177900000Y-103500000D01*
X178200000Y-99300000D02*
X178200000Y-103200000D01*
X181300000Y-106900000D02*
X177900000Y-103500000D01*
X181300000Y-113200000D02*
X181300000Y-106900000D01*
X171100000Y-113200000D02*
X169000000Y-111100000D01*
X181300000Y-113200000D02*
X171100000Y-113200000D01*
X174800000Y-86400000D02*
X176900000Y-88500000D01*
X183500000Y-88500000D02*
X176900000Y-88500000D01*
X173600000Y-86400000D02*
X174800000Y-86400000D01*
X163800000Y-109200000D02*
X163900000Y-109100000D01*
X163900000Y-109100000D02*
X172700000Y-109100000D01*
X151700000Y-109200000D02*
X163800000Y-109200000D01*
M02*
