G04 #@! TF.FileFunction,Copper,L2,Inr,Signal*
%FSLAX46Y46*%
G04 Gerber Fmt 4.6, Leading zero omitted, Abs format (unit mm)*
G04 Created by KiCad (PCBNEW (2015-07-20 BZR 5967)-product) date Thursday, July 23, 2015 'PMt' 01:28:37 PM*
%MOMM*%
G01*
G04 APERTURE LIST*
%ADD10C,0.100000*%
%ADD11R,2.032000X2.032000*%
%ADD12O,2.032000X2.032000*%
%ADD13C,0.355000*%
%ADD14C,0.200000*%
%ADD15C,0.127000*%
G04 APERTURE END LIST*
D10*
D11*
X173800000Y-96500000D03*
D12*
X173800000Y-99040000D03*
D11*
X151700000Y-109200000D03*
D12*
X151700000Y-111740000D03*
D13*
X161250000Y-112550000D03*
X174613000Y-85029040D03*
X177700000Y-111940000D03*
X180000000Y-104650000D03*
X173300000Y-102650000D03*
X169325000Y-111035000D03*
X151590000Y-114200000D03*
X164725000Y-114145000D03*
X181550000Y-114030000D03*
X177800000Y-103700000D03*
X173600000Y-87550000D03*
X179200000Y-92000000D03*
X178250000Y-99150000D03*
X162975000Y-111035000D03*
X155000000Y-108500000D03*
X182350000Y-90700000D03*
X161250000Y-108850000D03*
X161250000Y-110550000D03*
X157300000Y-110550000D03*
X167700000Y-112250000D03*
X181900000Y-93050000D03*
X183330000Y-86160000D03*
X183770000Y-114080000D03*
X183170000Y-85360000D03*
X166860000Y-114110000D03*
X182680000Y-84920000D03*
X153760000Y-114140000D03*
X181051200Y-92146120D03*
X174708820Y-109720380D03*
X180662580Y-92801440D03*
X173804580Y-109923580D03*
X181493160Y-83903820D03*
X175701960Y-109888020D03*
X173400000Y-111650000D03*
X180925000Y-111590000D03*
X176660000Y-107290000D03*
X174550000Y-94550000D03*
X173300000Y-103600000D03*
D14*
X176630000Y-104870000D02*
X177800000Y-103700000D01*
X176630000Y-106220000D02*
X176630000Y-104870000D01*
X173660000Y-109190000D02*
X176630000Y-106220000D01*
X171170000Y-109190000D02*
X173660000Y-109190000D01*
X169325000Y-111035000D02*
X171170000Y-109190000D01*
X164725000Y-114145000D02*
X164285000Y-114145000D01*
X164285000Y-114145000D02*
X163760000Y-114670000D01*
X163760000Y-114670000D02*
X152060000Y-114670000D01*
X152060000Y-114670000D02*
X151590000Y-114200000D01*
X181550000Y-114030000D02*
X169110000Y-114030000D01*
X169110000Y-114030000D02*
X168450000Y-114690000D01*
X168450000Y-114690000D02*
X165270000Y-114690000D01*
X165270000Y-114690000D02*
X164725000Y-114145000D01*
D15*
X164725000Y-114145000D02*
X164710000Y-114130000D01*
D14*
X177800000Y-103700000D02*
X177800000Y-107240000D01*
X177800000Y-107240000D02*
X181550000Y-110990000D01*
X181550000Y-110990000D02*
X181550000Y-114030000D01*
X151700000Y-111740000D02*
X173310000Y-111740000D01*
X173310000Y-111740000D02*
X173400000Y-111650000D01*
X176660000Y-107325000D02*
X176660000Y-107290000D01*
X180925000Y-111590000D02*
X176660000Y-107325000D01*
X174550000Y-94550000D02*
X175590000Y-95590000D01*
X175590000Y-95590000D02*
X175590000Y-97250000D01*
X175590000Y-97250000D02*
X173800000Y-99040000D01*
M02*
