M48
;DRILL file {KiCad (2015-04-30 BZR 5634)-product} date Friday, May 08, 2015 'PMt' 05:38:57 PM
;FORMAT={-:-/ absolute / inch / decimal}
FMAT,2
INCH,TZ
T1C0.010
T2C0.063
%
G90
G05
M72
T1
X6.0709Y-4.4449
X6.0866Y-4.4961
X6.1142Y-4.3661
X6.1614Y-4.3425
X6.2244Y-4.4606
X6.2244Y-4.4961
X6.252Y-4.4606
X6.3031Y-4.3465
X6.311Y-4.3228
X6.3701Y-4.3701
X6.4055Y-4.3228
X6.4134Y-4.5197
X6.4528Y-4.5197
X6.4882Y-4.4173
X6.4921Y-4.3268
X6.6063Y-4.3386
X6.6181Y-4.4882
X6.6535Y-4.374
X6.7087Y-4.5
X6.7992Y-4.2953
X6.8307Y-4.0689
X6.8346Y-3.4016
X6.8504Y-4.3937
X6.8543Y-3.3425
X6.8563Y-3.5276
X6.878Y-4.437
X6.8858Y-3.4488
X6.8937Y-3.5512
X6.9252Y-4.0354
X6.9291Y-3.9449
X6.9567Y-3.9961
X6.9606Y-4.1102
X6.9843Y-4.2913
X7.0039Y-4.0748
X7.0039Y-4.4134
X7.0157Y-3.9094
X7.0512Y-3.626
X7.0709Y-4.3583
X7.1063Y-4.3031
X7.1142Y-3.2953
X7.1378Y-4.4567
X7.1417Y-3.6102
X7.1496Y-3.5787
X7.1772Y-3.5866
X7.185Y-3.3504
X7.2126Y-3.3504
X7.2126Y-3.5945
X7.2244Y-3.4843
X7.2362Y-3.3307
X7.2362Y-4.4882
X7.2559Y-3.4843
T2
X5.9724Y-4.2992
X5.9724Y-4.3992
X6.8425Y-3.7992
X6.8425Y-3.8992
T0
M30
