G04 #@! TF.FileFunction,Legend,Top*
%FSLAX46Y46*%
G04 Gerber Fmt 4.6, Leading zero omitted, Abs format (unit mm)*
G04 Created by KiCad (PCBNEW (2015-04-30 BZR 5634)-product) date Monday, June 22, 2015 'AMt' 01:30:21 AM*
%MOMM*%
G01*
G04 APERTURE LIST*
%ADD10C,0.100000*%
%ADD11C,0.150000*%
%ADD12C,0.060000*%
%ADD13C,0.075000*%
%ADD14C,0.125000*%
%ADD15C,0.050000*%
%ADD16R,0.600000X0.500000*%
%ADD17R,0.500000X0.600000*%
%ADD18R,1.800860X2.499360*%
%ADD19R,0.797560X0.797560*%
%ADD20R,2.500000X0.900000*%
%ADD21R,0.800100X0.800100*%
%ADD22R,0.400000X0.600000*%
%ADD23R,1.143000X0.508000*%
%ADD24R,1.060000X0.650000*%
%ADD25C,0.220000*%
%ADD26R,1.600000X1.900000*%
%ADD27R,2.000000X2.000000*%
%ADD28R,0.400000X1.350000*%
%ADD29R,0.700000X0.400000*%
%ADD30R,1.200000X0.650000*%
%ADD31R,0.500000X1.600000*%
%ADD32R,2.032000X2.032000*%
%ADD33O,2.032000X2.032000*%
%ADD34R,1.500000X1.500000*%
%ADD35R,1.100000X0.250000*%
%ADD36R,0.800000X0.900000*%
G04 APERTURE END LIST*
D10*
D11*
X173450000Y-90075000D02*
X173950000Y-90075000D01*
X173950000Y-89125000D02*
X173450000Y-89125000D01*
X163150000Y-115275000D02*
X163650000Y-115275000D01*
X163650000Y-114325000D02*
X163150000Y-114325000D01*
X158350000Y-114675000D02*
X158850000Y-114675000D01*
X158850000Y-113725000D02*
X158350000Y-113725000D01*
X158350000Y-115675000D02*
X158850000Y-115675000D01*
X158850000Y-114725000D02*
X158350000Y-114725000D01*
X173750000Y-83225000D02*
X173250000Y-83225000D01*
X173250000Y-84175000D02*
X173750000Y-84175000D01*
X175525000Y-91650000D02*
X175525000Y-92150000D01*
X176475000Y-92150000D02*
X176475000Y-91650000D01*
X182950000Y-83325000D02*
X182450000Y-83325000D01*
X182450000Y-84275000D02*
X182950000Y-84275000D01*
X173250000Y-82975000D02*
X173750000Y-82975000D01*
X173750000Y-82025000D02*
X173250000Y-82025000D01*
X173250000Y-85375000D02*
X173750000Y-85375000D01*
X173750000Y-84425000D02*
X173250000Y-84425000D01*
X184750060Y-110099140D02*
X184399540Y-110099140D01*
X181249940Y-110099140D02*
X181600460Y-110099140D01*
X184750060Y-106049560D02*
X184399540Y-106049560D01*
X184750060Y-110550440D02*
X184399540Y-110550440D01*
X181249940Y-110550440D02*
X181600460Y-110550440D01*
X181249940Y-106049560D02*
X181600460Y-106049560D01*
X184750060Y-110550440D02*
X184750060Y-106049560D01*
X181249940Y-110550440D02*
X181249940Y-106049560D01*
X183249580Y-104049580D02*
X183249580Y-103150420D01*
X183249580Y-103150420D02*
X183648360Y-103150420D01*
X183648360Y-104049580D02*
X183648360Y-103150420D01*
X183249580Y-104049580D02*
X183648360Y-104049580D01*
X181951640Y-104049580D02*
X181951640Y-103150420D01*
X181951640Y-103150420D02*
X182350420Y-103150420D01*
X182350420Y-104049580D02*
X182350420Y-103150420D01*
X181951640Y-104049580D02*
X182350420Y-104049580D01*
X182800000Y-104049580D02*
X182800000Y-103899720D01*
X182800000Y-103899720D02*
X183099720Y-103899720D01*
X183099720Y-104049580D02*
X183099720Y-103899720D01*
X182800000Y-104049580D02*
X183099720Y-104049580D01*
X182800000Y-103300280D02*
X182800000Y-103150420D01*
X182800000Y-103150420D02*
X183099720Y-103150420D01*
X183099720Y-103300280D02*
X183099720Y-103150420D01*
X182800000Y-103300280D02*
X183099720Y-103300280D01*
X182800000Y-103749860D02*
X182800000Y-103450140D01*
X182800000Y-103450140D02*
X183099720Y-103450140D01*
X183099720Y-103749860D02*
X183099720Y-103450140D01*
X182800000Y-103749860D02*
X183099720Y-103749860D01*
X183249580Y-103998780D02*
X182350420Y-103998780D01*
X183249580Y-103201220D02*
X182350420Y-103201220D01*
X175775000Y-105600000D02*
X175775000Y-107600000D01*
X172825000Y-107600000D02*
X172825000Y-105600000D01*
X179150240Y-109499160D02*
X179150240Y-109450900D01*
X178449200Y-106700180D02*
X179150240Y-106700180D01*
X179150240Y-106700180D02*
X179150240Y-106949100D01*
X179150240Y-109499160D02*
X179150240Y-109699820D01*
X179150240Y-109699820D02*
X178449200Y-109699820D01*
X182850000Y-102425000D02*
X183350000Y-102425000D01*
X183350000Y-101375000D02*
X182850000Y-101375000D01*
X180350000Y-110275000D02*
X179850000Y-110275000D01*
X179850000Y-111325000D02*
X180350000Y-111325000D01*
X179850000Y-112725000D02*
X180350000Y-112725000D01*
X180350000Y-111675000D02*
X179850000Y-111675000D01*
X160150000Y-109125000D02*
X160650000Y-109125000D01*
X160650000Y-108075000D02*
X160150000Y-108075000D01*
X160450000Y-113325000D02*
X160950000Y-113325000D01*
X160950000Y-112275000D02*
X160450000Y-112275000D01*
X163714000Y-112940000D02*
X163714000Y-107860000D01*
X163714000Y-107860000D02*
X168286000Y-107860000D01*
X168286000Y-107860000D02*
X168286000Y-112940000D01*
X168286000Y-112940000D02*
X163714000Y-112940000D01*
X165238000Y-112940000D02*
X165238000Y-112432000D01*
X165238000Y-112432000D02*
X166508000Y-112432000D01*
X166508000Y-112432000D02*
X166508000Y-112940000D01*
X175000000Y-104100000D02*
G75*
G03X175000000Y-104100000I-100000J0D01*
G01*
X174350000Y-103850000D02*
X174850000Y-103850000D01*
X174350000Y-100950000D02*
X174350000Y-103850000D01*
X174850000Y-100950000D02*
X174350000Y-100950000D01*
X174850000Y-103850000D02*
X174850000Y-100950000D01*
X179300000Y-106200000D02*
G75*
G03X179300000Y-106200000I-100000J0D01*
G01*
X178650000Y-105950000D02*
X179150000Y-105950000D01*
X178650000Y-103050000D02*
X178650000Y-105950000D01*
X179150000Y-103050000D02*
X178650000Y-103050000D01*
X179150000Y-105950000D02*
X179150000Y-103050000D01*
X174780583Y-87700000D02*
X175204847Y-87275736D01*
X183619417Y-87700000D02*
X183195153Y-88124264D01*
X179200000Y-83280583D02*
X178775736Y-83704847D01*
X179200000Y-92119417D02*
X178775736Y-91695153D01*
X183619417Y-87700000D02*
X183195153Y-87275736D01*
X179200000Y-83280583D02*
X179624264Y-83704847D01*
X174780583Y-87700000D02*
X175204847Y-88124264D01*
X156600000Y-107759441D02*
X156971231Y-108130672D01*
X156600000Y-113840559D02*
X156228769Y-113469328D01*
X159640559Y-110800000D02*
X159269328Y-110428769D01*
X153559441Y-110800000D02*
X153930672Y-110428769D01*
X156600000Y-113840559D02*
X156971231Y-113469328D01*
X159640559Y-110800000D02*
X159269328Y-111171231D01*
X156600000Y-107759441D02*
X156228769Y-108130672D01*
X170349100Y-110612460D02*
X179049100Y-110612460D01*
X179049100Y-115787460D02*
X170349100Y-115787460D01*
X165200000Y-115800000D02*
X168400000Y-115800000D01*
X151800000Y-115800000D02*
X155000000Y-115800000D01*
X180800000Y-115700000D02*
X184000000Y-115700000D01*
X179200000Y-81000000D02*
X184400000Y-81000000D01*
X179200000Y-82600000D02*
X184400000Y-82600000D01*
X175070000Y-97770000D02*
X175070000Y-100310000D01*
X175350000Y-94950000D02*
X175350000Y-96500000D01*
X175070000Y-97770000D02*
X172530000Y-97770000D01*
X172250000Y-96500000D02*
X172250000Y-94950000D01*
X172250000Y-94950000D02*
X175350000Y-94950000D01*
X172530000Y-97770000D02*
X172530000Y-100310000D01*
X172530000Y-100310000D02*
X175070000Y-100310000D01*
X152970000Y-110470000D02*
X152970000Y-113010000D01*
X153250000Y-107650000D02*
X153250000Y-109200000D01*
X152970000Y-110470000D02*
X150430000Y-110470000D01*
X150150000Y-109200000D02*
X150150000Y-107650000D01*
X150150000Y-107650000D02*
X153250000Y-107650000D01*
X150430000Y-110470000D02*
X150430000Y-113010000D01*
X150430000Y-113010000D02*
X152970000Y-113010000D01*
X177350000Y-102575000D02*
X177850000Y-102575000D01*
X177850000Y-101625000D02*
X177350000Y-101625000D01*
D12*
X172678571Y-88840238D02*
X172507143Y-88840238D01*
X172592857Y-88840238D02*
X172592857Y-88530238D01*
X172564286Y-88574524D01*
X172535714Y-88604048D01*
X172507143Y-88618810D01*
X172792857Y-88559762D02*
X172807143Y-88545000D01*
X172835714Y-88530238D01*
X172907143Y-88530238D01*
X172935714Y-88545000D01*
X172950000Y-88559762D01*
X172964285Y-88589286D01*
X172964285Y-88618810D01*
X172950000Y-88663095D01*
X172778571Y-88840238D01*
X172964285Y-88840238D01*
X173092857Y-88633571D02*
X173092857Y-88943571D01*
X173092857Y-88648333D02*
X173121428Y-88633571D01*
X173178571Y-88633571D01*
X173207142Y-88648333D01*
X173221428Y-88663095D01*
X173235714Y-88692619D01*
X173235714Y-88781190D01*
X173221428Y-88810714D01*
X173207142Y-88825476D01*
X173178571Y-88840238D01*
X173121428Y-88840238D01*
X173092857Y-88825476D01*
X173321428Y-88633571D02*
X173435714Y-88633571D01*
X173364286Y-88840238D02*
X173364286Y-88574524D01*
X173378571Y-88545000D01*
X173407143Y-88530238D01*
X173435714Y-88530238D01*
X173692857Y-88840238D02*
X173521429Y-88840238D01*
X173607143Y-88840238D02*
X173607143Y-88530238D01*
X173578572Y-88574524D01*
X173550000Y-88604048D01*
X173521429Y-88618810D01*
X163050000Y-113910714D02*
X163035714Y-113925476D01*
X162992857Y-113940238D01*
X162964286Y-113940238D01*
X162921429Y-113925476D01*
X162892857Y-113895952D01*
X162878572Y-113866429D01*
X162864286Y-113807381D01*
X162864286Y-113763095D01*
X162878572Y-113704048D01*
X162892857Y-113674524D01*
X162921429Y-113645000D01*
X162964286Y-113630238D01*
X162992857Y-113630238D01*
X163035714Y-113645000D01*
X163050000Y-113659762D01*
X163321429Y-113630238D02*
X163178572Y-113630238D01*
X163164286Y-113777857D01*
X163178572Y-113763095D01*
X163207143Y-113748333D01*
X163278572Y-113748333D01*
X163307143Y-113763095D01*
X163321429Y-113777857D01*
X163335714Y-113807381D01*
X163335714Y-113881190D01*
X163321429Y-113910714D01*
X163307143Y-113925476D01*
X163278572Y-113940238D01*
X163207143Y-113940238D01*
X163178572Y-113925476D01*
X163164286Y-113910714D01*
X160050000Y-114407143D02*
X160035714Y-114421429D01*
X159992857Y-114435714D01*
X159964286Y-114435714D01*
X159921429Y-114421429D01*
X159892857Y-114392857D01*
X159878572Y-114364286D01*
X159864286Y-114307143D01*
X159864286Y-114264286D01*
X159878572Y-114207143D01*
X159892857Y-114178571D01*
X159921429Y-114150000D01*
X159964286Y-114135714D01*
X159992857Y-114135714D01*
X160035714Y-114150000D01*
X160050000Y-114164286D01*
X160307143Y-114135714D02*
X160250000Y-114135714D01*
X160221429Y-114150000D01*
X160207143Y-114164286D01*
X160178572Y-114207143D01*
X160164286Y-114264286D01*
X160164286Y-114378571D01*
X160178572Y-114407143D01*
X160192857Y-114421429D01*
X160221429Y-114435714D01*
X160278572Y-114435714D01*
X160307143Y-114421429D01*
X160321429Y-114407143D01*
X160335714Y-114378571D01*
X160335714Y-114307143D01*
X160321429Y-114278571D01*
X160307143Y-114264286D01*
X160278572Y-114250000D01*
X160221429Y-114250000D01*
X160192857Y-114264286D01*
X160178572Y-114278571D01*
X160164286Y-114307143D01*
X160050000Y-115010714D02*
X160035714Y-115025476D01*
X159992857Y-115040238D01*
X159964286Y-115040238D01*
X159921429Y-115025476D01*
X159892857Y-114995952D01*
X159878572Y-114966429D01*
X159864286Y-114907381D01*
X159864286Y-114863095D01*
X159878572Y-114804048D01*
X159892857Y-114774524D01*
X159921429Y-114745000D01*
X159964286Y-114730238D01*
X159992857Y-114730238D01*
X160035714Y-114745000D01*
X160050000Y-114759762D01*
X160150000Y-114730238D02*
X160350000Y-114730238D01*
X160221429Y-115040238D01*
X184207143Y-83507143D02*
X184192857Y-83521429D01*
X184150000Y-83535714D01*
X184121429Y-83535714D01*
X184078572Y-83521429D01*
X184050000Y-83492857D01*
X184035715Y-83464286D01*
X184021429Y-83407143D01*
X184021429Y-83364286D01*
X184035715Y-83307143D01*
X184050000Y-83278571D01*
X184078572Y-83250000D01*
X184121429Y-83235714D01*
X184150000Y-83235714D01*
X184192857Y-83250000D01*
X184207143Y-83264286D01*
X184492857Y-83535714D02*
X184321429Y-83535714D01*
X184407143Y-83535714D02*
X184407143Y-83235714D01*
X184378572Y-83278571D01*
X184350000Y-83307143D01*
X184321429Y-83321429D01*
X184607143Y-83264286D02*
X184621429Y-83250000D01*
X184650000Y-83235714D01*
X184721429Y-83235714D01*
X184750000Y-83250000D01*
X184764286Y-83264286D01*
X184778571Y-83292857D01*
X184778571Y-83321429D01*
X184764286Y-83364286D01*
X184592857Y-83535714D01*
X184778571Y-83535714D01*
X182235714Y-108421428D02*
X181935714Y-108421428D01*
X181935714Y-108350000D01*
X181950000Y-108307143D01*
X181978571Y-108278571D01*
X182007143Y-108264286D01*
X182064286Y-108250000D01*
X182107143Y-108250000D01*
X182164286Y-108264286D01*
X182192857Y-108278571D01*
X182221429Y-108307143D01*
X182235714Y-108350000D01*
X182235714Y-108421428D01*
X182235714Y-107964286D02*
X182235714Y-108135714D01*
X182235714Y-108050000D02*
X181935714Y-108050000D01*
X181978571Y-108078571D01*
X182007143Y-108107143D01*
X182021429Y-108135714D01*
X184278572Y-103440238D02*
X184278572Y-103130238D01*
X184350000Y-103130238D01*
X184392857Y-103145000D01*
X184421429Y-103174524D01*
X184435714Y-103204048D01*
X184450000Y-103263095D01*
X184450000Y-103307381D01*
X184435714Y-103366429D01*
X184421429Y-103395952D01*
X184392857Y-103425476D01*
X184350000Y-103440238D01*
X184278572Y-103440238D01*
X184564286Y-103159762D02*
X184578572Y-103145000D01*
X184607143Y-103130238D01*
X184678572Y-103130238D01*
X184707143Y-103145000D01*
X184721429Y-103159762D01*
X184735714Y-103189286D01*
X184735714Y-103218810D01*
X184721429Y-103263095D01*
X184550000Y-103440238D01*
X184735714Y-103440238D01*
D10*
X174526190Y-106583333D02*
X174526190Y-106821428D01*
X174026190Y-106821428D01*
X174526190Y-106154762D02*
X174526190Y-106440476D01*
X174526190Y-106297619D02*
X174026190Y-106297619D01*
X174097619Y-106345238D01*
X174145238Y-106392857D01*
X174169048Y-106440476D01*
D12*
X179869762Y-107028571D02*
X179855000Y-107057143D01*
X179825476Y-107085714D01*
X179781190Y-107128571D01*
X179766429Y-107157143D01*
X179766429Y-107185714D01*
X179840238Y-107171429D02*
X179825476Y-107200000D01*
X179795952Y-107228571D01*
X179736905Y-107242857D01*
X179633571Y-107242857D01*
X179574524Y-107228571D01*
X179545000Y-107200000D01*
X179530238Y-107171429D01*
X179530238Y-107114286D01*
X179545000Y-107085714D01*
X179574524Y-107057143D01*
X179633571Y-107042857D01*
X179736905Y-107042857D01*
X179795952Y-107057143D01*
X179825476Y-107085714D01*
X179840238Y-107114286D01*
X179840238Y-107171429D01*
X179840238Y-106757143D02*
X179840238Y-106928571D01*
X179840238Y-106842857D02*
X179530238Y-106842857D01*
X179574524Y-106871428D01*
X179604048Y-106900000D01*
X179618810Y-106928571D01*
X179350000Y-110340238D02*
X179250000Y-110192619D01*
X179178572Y-110340238D02*
X179178572Y-110030238D01*
X179292857Y-110030238D01*
X179321429Y-110045000D01*
X179335714Y-110059762D01*
X179350000Y-110089286D01*
X179350000Y-110133571D01*
X179335714Y-110163095D01*
X179321429Y-110177857D01*
X179292857Y-110192619D01*
X179178572Y-110192619D01*
X179464286Y-110059762D02*
X179478572Y-110045000D01*
X179507143Y-110030238D01*
X179578572Y-110030238D01*
X179607143Y-110045000D01*
X179621429Y-110059762D01*
X179635714Y-110089286D01*
X179635714Y-110118810D01*
X179621429Y-110163095D01*
X179450000Y-110340238D01*
X179635714Y-110340238D01*
D11*
X179933334Y-114452381D02*
X179600000Y-113976190D01*
X179361905Y-114452381D02*
X179361905Y-113452381D01*
X179742858Y-113452381D01*
X179838096Y-113500000D01*
X179885715Y-113547619D01*
X179933334Y-113642857D01*
X179933334Y-113785714D01*
X179885715Y-113880952D01*
X179838096Y-113928571D01*
X179742858Y-113976190D01*
X179361905Y-113976190D01*
X180266667Y-113452381D02*
X180885715Y-113452381D01*
X180552381Y-113833333D01*
X180695239Y-113833333D01*
X180790477Y-113880952D01*
X180838096Y-113928571D01*
X180885715Y-114023810D01*
X180885715Y-114261905D01*
X180838096Y-114357143D01*
X180790477Y-114404762D01*
X180695239Y-114452381D01*
X180409524Y-114452381D01*
X180314286Y-114404762D01*
X180266667Y-114357143D01*
D13*
X158950000Y-108735714D02*
X158850000Y-108592857D01*
X158778572Y-108735714D02*
X158778572Y-108435714D01*
X158892857Y-108435714D01*
X158921429Y-108450000D01*
X158935714Y-108464286D01*
X158950000Y-108492857D01*
X158950000Y-108535714D01*
X158935714Y-108564286D01*
X158921429Y-108578571D01*
X158892857Y-108592857D01*
X158778572Y-108592857D01*
X159221429Y-108435714D02*
X159078572Y-108435714D01*
X159064286Y-108578571D01*
X159078572Y-108564286D01*
X159107143Y-108550000D01*
X159178572Y-108550000D01*
X159207143Y-108564286D01*
X159221429Y-108578571D01*
X159235714Y-108607143D01*
X159235714Y-108678571D01*
X159221429Y-108707143D01*
X159207143Y-108721429D01*
X159178572Y-108735714D01*
X159107143Y-108735714D01*
X159078572Y-108721429D01*
X159064286Y-108707143D01*
D12*
X162050000Y-113640238D02*
X161950000Y-113492619D01*
X161878572Y-113640238D02*
X161878572Y-113330238D01*
X161992857Y-113330238D01*
X162021429Y-113345000D01*
X162035714Y-113359762D01*
X162050000Y-113389286D01*
X162050000Y-113433571D01*
X162035714Y-113463095D01*
X162021429Y-113477857D01*
X161992857Y-113492619D01*
X161878572Y-113492619D01*
X162307143Y-113330238D02*
X162250000Y-113330238D01*
X162221429Y-113345000D01*
X162207143Y-113359762D01*
X162178572Y-113404048D01*
X162164286Y-113463095D01*
X162164286Y-113581190D01*
X162178572Y-113610714D01*
X162192857Y-113625476D01*
X162221429Y-113640238D01*
X162278572Y-113640238D01*
X162307143Y-113625476D01*
X162321429Y-113610714D01*
X162335714Y-113581190D01*
X162335714Y-113507381D01*
X162321429Y-113477857D01*
X162307143Y-113463095D01*
X162278572Y-113448333D01*
X162221429Y-113448333D01*
X162192857Y-113463095D01*
X162178572Y-113477857D01*
X162164286Y-113507381D01*
D11*
X164182381Y-111161905D02*
X164991905Y-111161905D01*
X165087143Y-111114286D01*
X165134762Y-111066667D01*
X165182381Y-110971429D01*
X165182381Y-110780952D01*
X165134762Y-110685714D01*
X165087143Y-110638095D01*
X164991905Y-110590476D01*
X164182381Y-110590476D01*
X164182381Y-110209524D02*
X164182381Y-109590476D01*
X164563333Y-109923810D01*
X164563333Y-109780952D01*
X164610952Y-109685714D01*
X164658571Y-109638095D01*
X164753810Y-109590476D01*
X164991905Y-109590476D01*
X165087143Y-109638095D01*
X165134762Y-109685714D01*
X165182381Y-109780952D01*
X165182381Y-110066667D01*
X165134762Y-110161905D01*
X165087143Y-110209524D01*
D14*
X177251190Y-83030952D02*
X177655952Y-83030952D01*
X177703571Y-83007143D01*
X177727381Y-82983333D01*
X177751190Y-82935714D01*
X177751190Y-82840476D01*
X177727381Y-82792857D01*
X177703571Y-82769048D01*
X177655952Y-82745238D01*
X177251190Y-82745238D01*
X177251190Y-82292857D02*
X177251190Y-82388095D01*
X177275000Y-82435714D01*
X177298810Y-82459523D01*
X177370238Y-82507142D01*
X177465476Y-82530952D01*
X177655952Y-82530952D01*
X177703571Y-82507142D01*
X177727381Y-82483333D01*
X177751190Y-82435714D01*
X177751190Y-82340476D01*
X177727381Y-82292857D01*
X177703571Y-82269047D01*
X177655952Y-82245238D01*
X177536905Y-82245238D01*
X177489286Y-82269047D01*
X177465476Y-82292857D01*
X177441667Y-82340476D01*
X177441667Y-82435714D01*
X177465476Y-82483333D01*
X177489286Y-82507142D01*
X177536905Y-82530952D01*
D15*
X156437013Y-110975761D02*
X156723223Y-111261971D01*
X156773731Y-111278807D01*
X156807403Y-111278807D01*
X156857910Y-111261971D01*
X156925254Y-111194627D01*
X156942090Y-111144120D01*
X156942089Y-111110448D01*
X156925254Y-111059940D01*
X156639044Y-110773731D01*
X157076777Y-110571700D02*
X157312479Y-110807402D01*
X156857911Y-110521192D02*
X157026269Y-110857910D01*
X157245136Y-110639044D01*
D14*
X180690477Y-81885000D02*
X180928572Y-81885000D01*
X180642858Y-82030714D02*
X180809525Y-81520714D01*
X180976191Y-82030714D01*
X181142858Y-82030714D02*
X181142858Y-81520714D01*
X181428572Y-82030714D01*
X181428572Y-81520714D01*
X181595239Y-81520714D02*
X181880953Y-81520714D01*
X181738096Y-82030714D02*
X181738096Y-81520714D01*
X182309524Y-82030714D02*
X182023810Y-82030714D01*
X182166667Y-82030714D02*
X182166667Y-81520714D01*
X182119048Y-81593571D01*
X182071429Y-81642143D01*
X182023810Y-81666429D01*
X174195239Y-93326190D02*
X174528572Y-93826190D01*
X174528572Y-93326190D02*
X174195239Y-93826190D01*
X174980952Y-93826190D02*
X174695238Y-93826190D01*
X174838095Y-93826190D02*
X174838095Y-93326190D01*
X174790476Y-93397619D01*
X174742857Y-93445238D01*
X174695238Y-93469048D01*
%LPC*%
D16*
X174250000Y-89600000D03*
X173150000Y-89600000D03*
X163950000Y-114800000D03*
X162850000Y-114800000D03*
X159150000Y-114200000D03*
X158050000Y-114200000D03*
X159150000Y-115200000D03*
X158050000Y-115200000D03*
X172950000Y-83700000D03*
X174050000Y-83700000D03*
D17*
X176000000Y-92450000D03*
X176000000Y-91350000D03*
D16*
X182150000Y-83800000D03*
X183250000Y-83800000D03*
X174050000Y-82500000D03*
X172950000Y-82500000D03*
X174050000Y-84900000D03*
X172950000Y-84900000D03*
D18*
X183000000Y-110298980D03*
X183000000Y-106301020D03*
D19*
X182050700Y-103600000D03*
X183549300Y-103600000D03*
D20*
X174300000Y-108050000D03*
X174300000Y-105150000D03*
D21*
X177499240Y-107250000D03*
X177499240Y-109150000D03*
X179498220Y-108200000D03*
D22*
X183550000Y-101900000D03*
X182650000Y-101900000D03*
X179650000Y-110800000D03*
X180550000Y-110800000D03*
X180550000Y-112200000D03*
X179650000Y-112200000D03*
X160850000Y-108600000D03*
X159950000Y-108600000D03*
X161150000Y-112800000D03*
X160250000Y-112800000D03*
D23*
X162825000Y-112305000D03*
X162825000Y-111035000D03*
X162825000Y-109765000D03*
X162825000Y-108495000D03*
X169175000Y-108495000D03*
X169175000Y-109765000D03*
X169175000Y-111035000D03*
X169175000Y-112305000D03*
D24*
X175700000Y-103350000D03*
X175700000Y-102400000D03*
X175700000Y-101450000D03*
X173500000Y-101450000D03*
X173500000Y-103350000D03*
X180000000Y-105450000D03*
X180000000Y-104500000D03*
X180000000Y-103550000D03*
X177800000Y-103550000D03*
X177800000Y-105450000D03*
D25*
X176600000Y-82050000D03*
X176850000Y-82500000D03*
X176350000Y-82500000D03*
X176350000Y-83100000D03*
X176850000Y-83100000D03*
D10*
G36*
X180119238Y-91589087D02*
X179977817Y-91730508D01*
X179412132Y-91164823D01*
X179553553Y-91023402D01*
X180119238Y-91589087D01*
X180119238Y-91589087D01*
G37*
G36*
X180402081Y-91306245D02*
X180260660Y-91447666D01*
X179694975Y-90881981D01*
X179836396Y-90740560D01*
X180402081Y-91306245D01*
X180402081Y-91306245D01*
G37*
G36*
X180684924Y-91023402D02*
X180543503Y-91164823D01*
X179977818Y-90599138D01*
X180119239Y-90457717D01*
X180684924Y-91023402D01*
X180684924Y-91023402D01*
G37*
G36*
X180967767Y-90740559D02*
X180826346Y-90881980D01*
X180260661Y-90316295D01*
X180402082Y-90174874D01*
X180967767Y-90740559D01*
X180967767Y-90740559D01*
G37*
G36*
X181250609Y-90457716D02*
X181109188Y-90599137D01*
X180543503Y-90033452D01*
X180684924Y-89892031D01*
X181250609Y-90457716D01*
X181250609Y-90457716D01*
G37*
G36*
X181533452Y-90174874D02*
X181392031Y-90316295D01*
X180826346Y-89750610D01*
X180967767Y-89609189D01*
X181533452Y-90174874D01*
X181533452Y-90174874D01*
G37*
G36*
X181816295Y-89892031D02*
X181674874Y-90033452D01*
X181109189Y-89467767D01*
X181250610Y-89326346D01*
X181816295Y-89892031D01*
X181816295Y-89892031D01*
G37*
G36*
X182099137Y-89609188D02*
X181957716Y-89750609D01*
X181392031Y-89184924D01*
X181533452Y-89043503D01*
X182099137Y-89609188D01*
X182099137Y-89609188D01*
G37*
G36*
X182381980Y-89326346D02*
X182240559Y-89467767D01*
X181674874Y-88902082D01*
X181816295Y-88760661D01*
X182381980Y-89326346D01*
X182381980Y-89326346D01*
G37*
G36*
X182664823Y-89043503D02*
X182523402Y-89184924D01*
X181957717Y-88619239D01*
X182099138Y-88477818D01*
X182664823Y-89043503D01*
X182664823Y-89043503D01*
G37*
G36*
X182947666Y-88760660D02*
X182806245Y-88902081D01*
X182240560Y-88336396D01*
X182381981Y-88194975D01*
X182947666Y-88760660D01*
X182947666Y-88760660D01*
G37*
G36*
X183230508Y-88477817D02*
X183089087Y-88619238D01*
X182523402Y-88053553D01*
X182664823Y-87912132D01*
X183230508Y-88477817D01*
X183230508Y-88477817D01*
G37*
G36*
X183089087Y-86780762D02*
X183230508Y-86922183D01*
X182664823Y-87487868D01*
X182523402Y-87346447D01*
X183089087Y-86780762D01*
X183089087Y-86780762D01*
G37*
G36*
X182806245Y-86497919D02*
X182947666Y-86639340D01*
X182381981Y-87205025D01*
X182240560Y-87063604D01*
X182806245Y-86497919D01*
X182806245Y-86497919D01*
G37*
G36*
X182523402Y-86215076D02*
X182664823Y-86356497D01*
X182099138Y-86922182D01*
X181957717Y-86780761D01*
X182523402Y-86215076D01*
X182523402Y-86215076D01*
G37*
G36*
X182240559Y-85932233D02*
X182381980Y-86073654D01*
X181816295Y-86639339D01*
X181674874Y-86497918D01*
X182240559Y-85932233D01*
X182240559Y-85932233D01*
G37*
G36*
X181957716Y-85649391D02*
X182099137Y-85790812D01*
X181533452Y-86356497D01*
X181392031Y-86215076D01*
X181957716Y-85649391D01*
X181957716Y-85649391D01*
G37*
G36*
X181674874Y-85366548D02*
X181816295Y-85507969D01*
X181250610Y-86073654D01*
X181109189Y-85932233D01*
X181674874Y-85366548D01*
X181674874Y-85366548D01*
G37*
G36*
X181392031Y-85083705D02*
X181533452Y-85225126D01*
X180967767Y-85790811D01*
X180826346Y-85649390D01*
X181392031Y-85083705D01*
X181392031Y-85083705D01*
G37*
G36*
X181109188Y-84800863D02*
X181250609Y-84942284D01*
X180684924Y-85507969D01*
X180543503Y-85366548D01*
X181109188Y-84800863D01*
X181109188Y-84800863D01*
G37*
G36*
X180826346Y-84518020D02*
X180967767Y-84659441D01*
X180402082Y-85225126D01*
X180260661Y-85083705D01*
X180826346Y-84518020D01*
X180826346Y-84518020D01*
G37*
G36*
X180543503Y-84235177D02*
X180684924Y-84376598D01*
X180119239Y-84942283D01*
X179977818Y-84800862D01*
X180543503Y-84235177D01*
X180543503Y-84235177D01*
G37*
G36*
X180260660Y-83952334D02*
X180402081Y-84093755D01*
X179836396Y-84659440D01*
X179694975Y-84518019D01*
X180260660Y-83952334D01*
X180260660Y-83952334D01*
G37*
G36*
X179977817Y-83669492D02*
X180119238Y-83810913D01*
X179553553Y-84376598D01*
X179412132Y-84235177D01*
X179977817Y-83669492D01*
X179977817Y-83669492D01*
G37*
G36*
X178987868Y-84235177D02*
X178846447Y-84376598D01*
X178280762Y-83810913D01*
X178422183Y-83669492D01*
X178987868Y-84235177D01*
X178987868Y-84235177D01*
G37*
G36*
X178705025Y-84518019D02*
X178563604Y-84659440D01*
X177997919Y-84093755D01*
X178139340Y-83952334D01*
X178705025Y-84518019D01*
X178705025Y-84518019D01*
G37*
G36*
X178422182Y-84800862D02*
X178280761Y-84942283D01*
X177715076Y-84376598D01*
X177856497Y-84235177D01*
X178422182Y-84800862D01*
X178422182Y-84800862D01*
G37*
G36*
X178139339Y-85083705D02*
X177997918Y-85225126D01*
X177432233Y-84659441D01*
X177573654Y-84518020D01*
X178139339Y-85083705D01*
X178139339Y-85083705D01*
G37*
G36*
X177856497Y-85366548D02*
X177715076Y-85507969D01*
X177149391Y-84942284D01*
X177290812Y-84800863D01*
X177856497Y-85366548D01*
X177856497Y-85366548D01*
G37*
G36*
X177573654Y-85649390D02*
X177432233Y-85790811D01*
X176866548Y-85225126D01*
X177007969Y-85083705D01*
X177573654Y-85649390D01*
X177573654Y-85649390D01*
G37*
G36*
X177290811Y-85932233D02*
X177149390Y-86073654D01*
X176583705Y-85507969D01*
X176725126Y-85366548D01*
X177290811Y-85932233D01*
X177290811Y-85932233D01*
G37*
G36*
X177007969Y-86215076D02*
X176866548Y-86356497D01*
X176300863Y-85790812D01*
X176442284Y-85649391D01*
X177007969Y-86215076D01*
X177007969Y-86215076D01*
G37*
G36*
X176725126Y-86497918D02*
X176583705Y-86639339D01*
X176018020Y-86073654D01*
X176159441Y-85932233D01*
X176725126Y-86497918D01*
X176725126Y-86497918D01*
G37*
G36*
X176442283Y-86780761D02*
X176300862Y-86922182D01*
X175735177Y-86356497D01*
X175876598Y-86215076D01*
X176442283Y-86780761D01*
X176442283Y-86780761D01*
G37*
G36*
X176159440Y-87063604D02*
X176018019Y-87205025D01*
X175452334Y-86639340D01*
X175593755Y-86497919D01*
X176159440Y-87063604D01*
X176159440Y-87063604D01*
G37*
G36*
X175876598Y-87346447D02*
X175735177Y-87487868D01*
X175169492Y-86922183D01*
X175310913Y-86780762D01*
X175876598Y-87346447D01*
X175876598Y-87346447D01*
G37*
G36*
X175735177Y-87912132D02*
X175876598Y-88053553D01*
X175310913Y-88619238D01*
X175169492Y-88477817D01*
X175735177Y-87912132D01*
X175735177Y-87912132D01*
G37*
G36*
X176018019Y-88194975D02*
X176159440Y-88336396D01*
X175593755Y-88902081D01*
X175452334Y-88760660D01*
X176018019Y-88194975D01*
X176018019Y-88194975D01*
G37*
G36*
X176300862Y-88477818D02*
X176442283Y-88619239D01*
X175876598Y-89184924D01*
X175735177Y-89043503D01*
X176300862Y-88477818D01*
X176300862Y-88477818D01*
G37*
G36*
X176583705Y-88760661D02*
X176725126Y-88902082D01*
X176159441Y-89467767D01*
X176018020Y-89326346D01*
X176583705Y-88760661D01*
X176583705Y-88760661D01*
G37*
G36*
X176866548Y-89043503D02*
X177007969Y-89184924D01*
X176442284Y-89750609D01*
X176300863Y-89609188D01*
X176866548Y-89043503D01*
X176866548Y-89043503D01*
G37*
G36*
X177149390Y-89326346D02*
X177290811Y-89467767D01*
X176725126Y-90033452D01*
X176583705Y-89892031D01*
X177149390Y-89326346D01*
X177149390Y-89326346D01*
G37*
G36*
X177432233Y-89609189D02*
X177573654Y-89750610D01*
X177007969Y-90316295D01*
X176866548Y-90174874D01*
X177432233Y-89609189D01*
X177432233Y-89609189D01*
G37*
G36*
X177715076Y-89892031D02*
X177856497Y-90033452D01*
X177290812Y-90599137D01*
X177149391Y-90457716D01*
X177715076Y-89892031D01*
X177715076Y-89892031D01*
G37*
G36*
X177997918Y-90174874D02*
X178139339Y-90316295D01*
X177573654Y-90881980D01*
X177432233Y-90740559D01*
X177997918Y-90174874D01*
X177997918Y-90174874D01*
G37*
G36*
X178280761Y-90457717D02*
X178422182Y-90599138D01*
X177856497Y-91164823D01*
X177715076Y-91023402D01*
X178280761Y-90457717D01*
X178280761Y-90457717D01*
G37*
G36*
X178563604Y-90740560D02*
X178705025Y-90881981D01*
X178139340Y-91447666D01*
X177997919Y-91306245D01*
X178563604Y-90740560D01*
X178563604Y-90740560D01*
G37*
G36*
X178846447Y-91023402D02*
X178987868Y-91164823D01*
X178422183Y-91730508D01*
X178280762Y-91589087D01*
X178846447Y-91023402D01*
X178846447Y-91023402D01*
G37*
G36*
X179986656Y-85340031D02*
X179200000Y-86126687D01*
X178413344Y-85340031D01*
X179200000Y-84553375D01*
X179986656Y-85340031D01*
X179986656Y-85340031D01*
G37*
G36*
X179200000Y-86126687D02*
X178413344Y-86913343D01*
X177626688Y-86126687D01*
X178413344Y-85340031D01*
X179200000Y-86126687D01*
X179200000Y-86126687D01*
G37*
G36*
X178413343Y-86913344D02*
X177626687Y-87700000D01*
X176840031Y-86913344D01*
X177626687Y-86126688D01*
X178413343Y-86913344D01*
X178413343Y-86913344D01*
G37*
G36*
X177626687Y-87700000D02*
X176840031Y-88486656D01*
X176053375Y-87700000D01*
X176840031Y-86913344D01*
X177626687Y-87700000D01*
X177626687Y-87700000D01*
G37*
G36*
X180773312Y-86126687D02*
X179986656Y-86913343D01*
X179200000Y-86126687D01*
X179986656Y-85340031D01*
X180773312Y-86126687D01*
X180773312Y-86126687D01*
G37*
G36*
X179986656Y-86913344D02*
X179200000Y-87700000D01*
X178413344Y-86913344D01*
X179200000Y-86126688D01*
X179986656Y-86913344D01*
X179986656Y-86913344D01*
G37*
G36*
X179200000Y-87700000D02*
X178413344Y-88486656D01*
X177626688Y-87700000D01*
X178413344Y-86913344D01*
X179200000Y-87700000D01*
X179200000Y-87700000D01*
G37*
G36*
X178413343Y-88486656D02*
X177626687Y-89273312D01*
X176840031Y-88486656D01*
X177626687Y-87700000D01*
X178413343Y-88486656D01*
X178413343Y-88486656D01*
G37*
G36*
X181559969Y-86913344D02*
X180773313Y-87700000D01*
X179986657Y-86913344D01*
X180773313Y-86126688D01*
X181559969Y-86913344D01*
X181559969Y-86913344D01*
G37*
G36*
X180773312Y-87700000D02*
X179986656Y-88486656D01*
X179200000Y-87700000D01*
X179986656Y-86913344D01*
X180773312Y-87700000D01*
X180773312Y-87700000D01*
G37*
G36*
X179986656Y-88486656D02*
X179200000Y-89273312D01*
X178413344Y-88486656D01*
X179200000Y-87700000D01*
X179986656Y-88486656D01*
X179986656Y-88486656D01*
G37*
G36*
X179200000Y-89273313D02*
X178413344Y-90059969D01*
X177626688Y-89273313D01*
X178413344Y-88486657D01*
X179200000Y-89273313D01*
X179200000Y-89273313D01*
G37*
G36*
X182346625Y-87700000D02*
X181559969Y-88486656D01*
X180773313Y-87700000D01*
X181559969Y-86913344D01*
X182346625Y-87700000D01*
X182346625Y-87700000D01*
G37*
G36*
X181559969Y-88486656D02*
X180773313Y-89273312D01*
X179986657Y-88486656D01*
X180773313Y-87700000D01*
X181559969Y-88486656D01*
X181559969Y-88486656D01*
G37*
G36*
X180773312Y-89273313D02*
X179986656Y-90059969D01*
X179200000Y-89273313D01*
X179986656Y-88486657D01*
X180773312Y-89273313D01*
X180773312Y-89273313D01*
G37*
G36*
X179986656Y-90059969D02*
X179200000Y-90846625D01*
X178413344Y-90059969D01*
X179200000Y-89273313D01*
X179986656Y-90059969D01*
X179986656Y-90059969D01*
G37*
G36*
X154142804Y-111701561D02*
X153930672Y-111489429D01*
X154531712Y-110888389D01*
X154743844Y-111100521D01*
X154142804Y-111701561D01*
X154142804Y-111701561D01*
G37*
G36*
X154496358Y-112055114D02*
X154284226Y-111842982D01*
X154885266Y-111241942D01*
X155097398Y-111454074D01*
X154496358Y-112055114D01*
X154496358Y-112055114D01*
G37*
G36*
X154849911Y-112408668D02*
X154637779Y-112196536D01*
X155238819Y-111595496D01*
X155450951Y-111807628D01*
X154849911Y-112408668D01*
X154849911Y-112408668D01*
G37*
G36*
X155203464Y-112762221D02*
X154991332Y-112550089D01*
X155592372Y-111949049D01*
X155804504Y-112161181D01*
X155203464Y-112762221D01*
X155203464Y-112762221D01*
G37*
G36*
X155557018Y-113115774D02*
X155344886Y-112903642D01*
X155945926Y-112302602D01*
X156158058Y-112514734D01*
X155557018Y-113115774D01*
X155557018Y-113115774D01*
G37*
G36*
X155910571Y-113469328D02*
X155698439Y-113257196D01*
X156299479Y-112656156D01*
X156511611Y-112868288D01*
X155910571Y-113469328D01*
X155910571Y-113469328D01*
G37*
G36*
X157501561Y-113257196D02*
X157289429Y-113469328D01*
X156688389Y-112868288D01*
X156900521Y-112656156D01*
X157501561Y-113257196D01*
X157501561Y-113257196D01*
G37*
G36*
X157855114Y-112903642D02*
X157642982Y-113115774D01*
X157041942Y-112514734D01*
X157254074Y-112302602D01*
X157855114Y-112903642D01*
X157855114Y-112903642D01*
G37*
G36*
X158208668Y-112550089D02*
X157996536Y-112762221D01*
X157395496Y-112161181D01*
X157607628Y-111949049D01*
X158208668Y-112550089D01*
X158208668Y-112550089D01*
G37*
G36*
X158562221Y-112196536D02*
X158350089Y-112408668D01*
X157749049Y-111807628D01*
X157961181Y-111595496D01*
X158562221Y-112196536D01*
X158562221Y-112196536D01*
G37*
G36*
X158915774Y-111842982D02*
X158703642Y-112055114D01*
X158102602Y-111454074D01*
X158314734Y-111241942D01*
X158915774Y-111842982D01*
X158915774Y-111842982D01*
G37*
G36*
X159269328Y-111489429D02*
X159057196Y-111701561D01*
X158456156Y-111100521D01*
X158668288Y-110888389D01*
X159269328Y-111489429D01*
X159269328Y-111489429D01*
G37*
G36*
X158668288Y-110711611D02*
X158456156Y-110499479D01*
X159057196Y-109898439D01*
X159269328Y-110110571D01*
X158668288Y-110711611D01*
X158668288Y-110711611D01*
G37*
G36*
X158314734Y-110358058D02*
X158102602Y-110145926D01*
X158703642Y-109544886D01*
X158915774Y-109757018D01*
X158314734Y-110358058D01*
X158314734Y-110358058D01*
G37*
G36*
X157961181Y-110004504D02*
X157749049Y-109792372D01*
X158350089Y-109191332D01*
X158562221Y-109403464D01*
X157961181Y-110004504D01*
X157961181Y-110004504D01*
G37*
G36*
X157607628Y-109650951D02*
X157395496Y-109438819D01*
X157996536Y-108837779D01*
X158208668Y-109049911D01*
X157607628Y-109650951D01*
X157607628Y-109650951D01*
G37*
G36*
X157254074Y-109297398D02*
X157041942Y-109085266D01*
X157642982Y-108484226D01*
X157855114Y-108696358D01*
X157254074Y-109297398D01*
X157254074Y-109297398D01*
G37*
G36*
X156900521Y-108943844D02*
X156688389Y-108731712D01*
X157289429Y-108130672D01*
X157501561Y-108342804D01*
X156900521Y-108943844D01*
X156900521Y-108943844D01*
G37*
G36*
X156511611Y-108731712D02*
X156299479Y-108943844D01*
X155698439Y-108342804D01*
X155910571Y-108130672D01*
X156511611Y-108731712D01*
X156511611Y-108731712D01*
G37*
G36*
X156158058Y-109085266D02*
X155945926Y-109297398D01*
X155344886Y-108696358D01*
X155557018Y-108484226D01*
X156158058Y-109085266D01*
X156158058Y-109085266D01*
G37*
G36*
X155804504Y-109438819D02*
X155592372Y-109650951D01*
X154991332Y-109049911D01*
X155203464Y-108837779D01*
X155804504Y-109438819D01*
X155804504Y-109438819D01*
G37*
G36*
X155450951Y-109792372D02*
X155238819Y-110004504D01*
X154637779Y-109403464D01*
X154849911Y-109191332D01*
X155450951Y-109792372D01*
X155450951Y-109792372D01*
G37*
G36*
X155097398Y-110145926D02*
X154885266Y-110358058D01*
X154284226Y-109757018D01*
X154496358Y-109544886D01*
X155097398Y-110145926D01*
X155097398Y-110145926D01*
G37*
G36*
X154743844Y-110499479D02*
X154531712Y-110711611D01*
X153930672Y-110110571D01*
X154142804Y-109898439D01*
X154743844Y-110499479D01*
X154743844Y-110499479D01*
G37*
D26*
X175950000Y-114370000D03*
X173450000Y-114370000D03*
X178810000Y-114370000D03*
D27*
X177700000Y-111940000D03*
D28*
X173399100Y-111637460D03*
X174049100Y-111637460D03*
X174699100Y-111637460D03*
X175349100Y-111637460D03*
X175999100Y-111637460D03*
D27*
X171700000Y-111940000D03*
D26*
X170590000Y-114370000D03*
D29*
X168100000Y-115200000D03*
D30*
X167900000Y-114100000D03*
X165700000Y-114100000D03*
D29*
X165500000Y-115200000D03*
X154700000Y-115200000D03*
D30*
X154500000Y-114100000D03*
X152300000Y-114100000D03*
D29*
X152100000Y-115200000D03*
X183700000Y-115100000D03*
D30*
X183500000Y-114000000D03*
X181300000Y-114000000D03*
D29*
X181100000Y-115100000D03*
D31*
X184800000Y-81800000D03*
X178800000Y-81800000D03*
D32*
X173800000Y-96500000D03*
D33*
X173800000Y-99040000D03*
D32*
X151700000Y-109200000D03*
D33*
X151700000Y-111740000D03*
D34*
X179600000Y-101750000D03*
D35*
X177100000Y-99750000D03*
X177100000Y-99250000D03*
X177100000Y-98750000D03*
X177100000Y-98250000D03*
X177100000Y-97750000D03*
X177100000Y-97250000D03*
X177100000Y-96750000D03*
X177100000Y-96250000D03*
X177100000Y-95750000D03*
X177100000Y-100250000D03*
D34*
X179600000Y-94250000D03*
D36*
X173100000Y-92600000D03*
X173100000Y-91150000D03*
X174175000Y-92600000D03*
X174175000Y-91150000D03*
D16*
X178150000Y-102100000D03*
X177050000Y-102100000D03*
M02*
