M48
;DRILL file {KiCad (2015-07-20 BZR 5967)-product} date Thursday, July 23, 2015 'PMt' 01:28:30 PM
;FORMAT={-:-/ absolute / inch / decimal}
FMAT,2
INCH,TZ
T1C0.010
T2C0.063
%
G90
G05
M72
T1
X5.9681Y-4.4961
X6.0535Y-4.4937
X6.1024Y-4.2717
X6.1929Y-4.3524
X6.3484Y-4.2854
X6.3484Y-4.3524
X6.3484Y-4.4311
X6.4163Y-4.3715
X6.4852Y-4.4939
X6.5693Y-4.4925
X6.6024Y-4.4193
X6.6663Y-4.3715
X6.8228Y-4.0413
X6.8228Y-4.0787
X6.8268Y-4.3957
X6.8346Y-3.4469
X6.8427Y-4.3277
X6.872Y-3.7224
X6.8745Y-3.3476
X6.8783Y-4.3197
X6.9174Y-4.3263
X6.9551Y-4.224
X6.9961Y-4.4071
X7.Y-4.0827
X7.0177Y-3.9035
X7.0551Y-3.622
X7.0866Y-4.1201
X7.1127Y-3.6536
X7.123Y-4.3933
X7.128Y-3.6278
X7.1454Y-3.3033
X7.1476Y-4.4894
X7.1614Y-3.6634
X7.1791Y-3.5709
X7.1921Y-3.3433
X7.2114Y-3.3606
X7.2177Y-3.3921
X7.235Y-4.4913
T2
X5.9724Y-4.2992
X5.9724Y-4.3992
X6.8425Y-3.7992
X6.8425Y-3.8992
T0
M30
