G04 #@! TF.FileFunction,Copper,L1,Top,Signal*
%FSLAX46Y46*%
G04 Gerber Fmt 4.6, Leading zero omitted, Abs format (unit mm)*
G04 Created by KiCad (PCBNEW (2015-04-30 BZR 5634)-product) date Friday, May 08, 2015 'PMt' 05:38:52 PM*
%MOMM*%
G01*
G04 APERTURE LIST*
%ADD10C,0.100000*%
%ADD11R,0.500000X0.600000*%
%ADD12R,0.600000X0.500000*%
%ADD13R,1.800860X2.499360*%
%ADD14R,0.797560X0.797560*%
%ADD15R,2.500000X0.900000*%
%ADD16R,0.800100X0.800100*%
%ADD17R,0.400000X0.600000*%
%ADD18R,1.143000X0.508000*%
%ADD19R,1.060000X0.650000*%
%ADD20C,0.220000*%
%ADD21R,0.800000X0.900000*%
%ADD22R,1.600000X1.900000*%
%ADD23R,2.000000X2.000000*%
%ADD24R,0.400000X1.350000*%
%ADD25R,0.700000X0.400000*%
%ADD26R,1.200000X0.650000*%
%ADD27R,0.500000X1.600000*%
%ADD28R,2.032000X2.032000*%
%ADD29O,2.032000X2.032000*%
%ADD30R,1.500000X1.500000*%
%ADD31R,1.100000X0.250000*%
%ADD32C,0.355000*%
%ADD33C,0.127000*%
G04 APERTURE END LIST*
D10*
D11*
X175600000Y-91150000D03*
X175600000Y-92250000D03*
D12*
X163950000Y-114800000D03*
X162850000Y-114800000D03*
X159150000Y-114200000D03*
X158050000Y-114200000D03*
X159150000Y-115200000D03*
X158050000Y-115200000D03*
X172950000Y-83700000D03*
X174050000Y-83700000D03*
X173050000Y-89600000D03*
X174150000Y-89600000D03*
X182150000Y-83800000D03*
X183250000Y-83800000D03*
X174050000Y-82500000D03*
X172950000Y-82500000D03*
X174050000Y-84900000D03*
X172950000Y-84900000D03*
D13*
X183000000Y-110298980D03*
X183000000Y-106301020D03*
D14*
X182050700Y-103600000D03*
X183549300Y-103600000D03*
D15*
X174300000Y-108050000D03*
X174300000Y-105150000D03*
D16*
X177499240Y-107250000D03*
X177499240Y-109150000D03*
X179498220Y-108200000D03*
D17*
X183550000Y-101900000D03*
X182650000Y-101900000D03*
X179650000Y-110800000D03*
X180550000Y-110800000D03*
X180550000Y-112200000D03*
X179650000Y-112200000D03*
X160850000Y-108600000D03*
X159950000Y-108600000D03*
X161150000Y-112800000D03*
X160250000Y-112800000D03*
D18*
X162825000Y-112305000D03*
X162825000Y-111035000D03*
X162825000Y-109765000D03*
X162825000Y-108495000D03*
X169175000Y-108495000D03*
X169175000Y-109765000D03*
X169175000Y-111035000D03*
X169175000Y-112305000D03*
D19*
X175700000Y-103350000D03*
X175700000Y-102400000D03*
X175700000Y-101450000D03*
X173500000Y-101450000D03*
X173500000Y-103350000D03*
X180000000Y-105450000D03*
X180000000Y-104500000D03*
X180000000Y-103550000D03*
X177800000Y-103550000D03*
X177800000Y-105450000D03*
D20*
X176600000Y-82050000D03*
X176850000Y-82500000D03*
X176350000Y-82500000D03*
X176350000Y-83100000D03*
X176850000Y-83100000D03*
D21*
X174000000Y-90900000D03*
X174000000Y-92350000D03*
X172925000Y-90925000D03*
X172925000Y-92350000D03*
D10*
G36*
X180119238Y-91589087D02*
X179977817Y-91730508D01*
X179412132Y-91164823D01*
X179553553Y-91023402D01*
X180119238Y-91589087D01*
X180119238Y-91589087D01*
G37*
G36*
X180402081Y-91306245D02*
X180260660Y-91447666D01*
X179694975Y-90881981D01*
X179836396Y-90740560D01*
X180402081Y-91306245D01*
X180402081Y-91306245D01*
G37*
G36*
X180684924Y-91023402D02*
X180543503Y-91164823D01*
X179977818Y-90599138D01*
X180119239Y-90457717D01*
X180684924Y-91023402D01*
X180684924Y-91023402D01*
G37*
G36*
X180967767Y-90740559D02*
X180826346Y-90881980D01*
X180260661Y-90316295D01*
X180402082Y-90174874D01*
X180967767Y-90740559D01*
X180967767Y-90740559D01*
G37*
G36*
X181250609Y-90457716D02*
X181109188Y-90599137D01*
X180543503Y-90033452D01*
X180684924Y-89892031D01*
X181250609Y-90457716D01*
X181250609Y-90457716D01*
G37*
G36*
X181533452Y-90174874D02*
X181392031Y-90316295D01*
X180826346Y-89750610D01*
X180967767Y-89609189D01*
X181533452Y-90174874D01*
X181533452Y-90174874D01*
G37*
G36*
X181816295Y-89892031D02*
X181674874Y-90033452D01*
X181109189Y-89467767D01*
X181250610Y-89326346D01*
X181816295Y-89892031D01*
X181816295Y-89892031D01*
G37*
G36*
X182099137Y-89609188D02*
X181957716Y-89750609D01*
X181392031Y-89184924D01*
X181533452Y-89043503D01*
X182099137Y-89609188D01*
X182099137Y-89609188D01*
G37*
G36*
X182381980Y-89326346D02*
X182240559Y-89467767D01*
X181674874Y-88902082D01*
X181816295Y-88760661D01*
X182381980Y-89326346D01*
X182381980Y-89326346D01*
G37*
G36*
X182664823Y-89043503D02*
X182523402Y-89184924D01*
X181957717Y-88619239D01*
X182099138Y-88477818D01*
X182664823Y-89043503D01*
X182664823Y-89043503D01*
G37*
G36*
X182947666Y-88760660D02*
X182806245Y-88902081D01*
X182240560Y-88336396D01*
X182381981Y-88194975D01*
X182947666Y-88760660D01*
X182947666Y-88760660D01*
G37*
G36*
X183230508Y-88477817D02*
X183089087Y-88619238D01*
X182523402Y-88053553D01*
X182664823Y-87912132D01*
X183230508Y-88477817D01*
X183230508Y-88477817D01*
G37*
G36*
X183089087Y-86780762D02*
X183230508Y-86922183D01*
X182664823Y-87487868D01*
X182523402Y-87346447D01*
X183089087Y-86780762D01*
X183089087Y-86780762D01*
G37*
G36*
X182806245Y-86497919D02*
X182947666Y-86639340D01*
X182381981Y-87205025D01*
X182240560Y-87063604D01*
X182806245Y-86497919D01*
X182806245Y-86497919D01*
G37*
G36*
X182523402Y-86215076D02*
X182664823Y-86356497D01*
X182099138Y-86922182D01*
X181957717Y-86780761D01*
X182523402Y-86215076D01*
X182523402Y-86215076D01*
G37*
G36*
X182240559Y-85932233D02*
X182381980Y-86073654D01*
X181816295Y-86639339D01*
X181674874Y-86497918D01*
X182240559Y-85932233D01*
X182240559Y-85932233D01*
G37*
G36*
X181957716Y-85649391D02*
X182099137Y-85790812D01*
X181533452Y-86356497D01*
X181392031Y-86215076D01*
X181957716Y-85649391D01*
X181957716Y-85649391D01*
G37*
G36*
X181674874Y-85366548D02*
X181816295Y-85507969D01*
X181250610Y-86073654D01*
X181109189Y-85932233D01*
X181674874Y-85366548D01*
X181674874Y-85366548D01*
G37*
G36*
X181392031Y-85083705D02*
X181533452Y-85225126D01*
X180967767Y-85790811D01*
X180826346Y-85649390D01*
X181392031Y-85083705D01*
X181392031Y-85083705D01*
G37*
G36*
X181109188Y-84800863D02*
X181250609Y-84942284D01*
X180684924Y-85507969D01*
X180543503Y-85366548D01*
X181109188Y-84800863D01*
X181109188Y-84800863D01*
G37*
G36*
X180826346Y-84518020D02*
X180967767Y-84659441D01*
X180402082Y-85225126D01*
X180260661Y-85083705D01*
X180826346Y-84518020D01*
X180826346Y-84518020D01*
G37*
G36*
X180543503Y-84235177D02*
X180684924Y-84376598D01*
X180119239Y-84942283D01*
X179977818Y-84800862D01*
X180543503Y-84235177D01*
X180543503Y-84235177D01*
G37*
G36*
X180260660Y-83952334D02*
X180402081Y-84093755D01*
X179836396Y-84659440D01*
X179694975Y-84518019D01*
X180260660Y-83952334D01*
X180260660Y-83952334D01*
G37*
G36*
X179977817Y-83669492D02*
X180119238Y-83810913D01*
X179553553Y-84376598D01*
X179412132Y-84235177D01*
X179977817Y-83669492D01*
X179977817Y-83669492D01*
G37*
G36*
X178987868Y-84235177D02*
X178846447Y-84376598D01*
X178280762Y-83810913D01*
X178422183Y-83669492D01*
X178987868Y-84235177D01*
X178987868Y-84235177D01*
G37*
G36*
X178705025Y-84518019D02*
X178563604Y-84659440D01*
X177997919Y-84093755D01*
X178139340Y-83952334D01*
X178705025Y-84518019D01*
X178705025Y-84518019D01*
G37*
G36*
X178422182Y-84800862D02*
X178280761Y-84942283D01*
X177715076Y-84376598D01*
X177856497Y-84235177D01*
X178422182Y-84800862D01*
X178422182Y-84800862D01*
G37*
G36*
X178139339Y-85083705D02*
X177997918Y-85225126D01*
X177432233Y-84659441D01*
X177573654Y-84518020D01*
X178139339Y-85083705D01*
X178139339Y-85083705D01*
G37*
G36*
X177856497Y-85366548D02*
X177715076Y-85507969D01*
X177149391Y-84942284D01*
X177290812Y-84800863D01*
X177856497Y-85366548D01*
X177856497Y-85366548D01*
G37*
G36*
X177573654Y-85649390D02*
X177432233Y-85790811D01*
X176866548Y-85225126D01*
X177007969Y-85083705D01*
X177573654Y-85649390D01*
X177573654Y-85649390D01*
G37*
G36*
X177290811Y-85932233D02*
X177149390Y-86073654D01*
X176583705Y-85507969D01*
X176725126Y-85366548D01*
X177290811Y-85932233D01*
X177290811Y-85932233D01*
G37*
G36*
X177007969Y-86215076D02*
X176866548Y-86356497D01*
X176300863Y-85790812D01*
X176442284Y-85649391D01*
X177007969Y-86215076D01*
X177007969Y-86215076D01*
G37*
G36*
X176725126Y-86497918D02*
X176583705Y-86639339D01*
X176018020Y-86073654D01*
X176159441Y-85932233D01*
X176725126Y-86497918D01*
X176725126Y-86497918D01*
G37*
G36*
X176442283Y-86780761D02*
X176300862Y-86922182D01*
X175735177Y-86356497D01*
X175876598Y-86215076D01*
X176442283Y-86780761D01*
X176442283Y-86780761D01*
G37*
G36*
X176159440Y-87063604D02*
X176018019Y-87205025D01*
X175452334Y-86639340D01*
X175593755Y-86497919D01*
X176159440Y-87063604D01*
X176159440Y-87063604D01*
G37*
G36*
X175876598Y-87346447D02*
X175735177Y-87487868D01*
X175169492Y-86922183D01*
X175310913Y-86780762D01*
X175876598Y-87346447D01*
X175876598Y-87346447D01*
G37*
G36*
X175735177Y-87912132D02*
X175876598Y-88053553D01*
X175310913Y-88619238D01*
X175169492Y-88477817D01*
X175735177Y-87912132D01*
X175735177Y-87912132D01*
G37*
G36*
X176018019Y-88194975D02*
X176159440Y-88336396D01*
X175593755Y-88902081D01*
X175452334Y-88760660D01*
X176018019Y-88194975D01*
X176018019Y-88194975D01*
G37*
G36*
X176300862Y-88477818D02*
X176442283Y-88619239D01*
X175876598Y-89184924D01*
X175735177Y-89043503D01*
X176300862Y-88477818D01*
X176300862Y-88477818D01*
G37*
G36*
X176583705Y-88760661D02*
X176725126Y-88902082D01*
X176159441Y-89467767D01*
X176018020Y-89326346D01*
X176583705Y-88760661D01*
X176583705Y-88760661D01*
G37*
G36*
X176866548Y-89043503D02*
X177007969Y-89184924D01*
X176442284Y-89750609D01*
X176300863Y-89609188D01*
X176866548Y-89043503D01*
X176866548Y-89043503D01*
G37*
G36*
X177149390Y-89326346D02*
X177290811Y-89467767D01*
X176725126Y-90033452D01*
X176583705Y-89892031D01*
X177149390Y-89326346D01*
X177149390Y-89326346D01*
G37*
G36*
X177432233Y-89609189D02*
X177573654Y-89750610D01*
X177007969Y-90316295D01*
X176866548Y-90174874D01*
X177432233Y-89609189D01*
X177432233Y-89609189D01*
G37*
G36*
X177715076Y-89892031D02*
X177856497Y-90033452D01*
X177290812Y-90599137D01*
X177149391Y-90457716D01*
X177715076Y-89892031D01*
X177715076Y-89892031D01*
G37*
G36*
X177997918Y-90174874D02*
X178139339Y-90316295D01*
X177573654Y-90881980D01*
X177432233Y-90740559D01*
X177997918Y-90174874D01*
X177997918Y-90174874D01*
G37*
G36*
X178280761Y-90457717D02*
X178422182Y-90599138D01*
X177856497Y-91164823D01*
X177715076Y-91023402D01*
X178280761Y-90457717D01*
X178280761Y-90457717D01*
G37*
G36*
X178563604Y-90740560D02*
X178705025Y-90881981D01*
X178139340Y-91447666D01*
X177997919Y-91306245D01*
X178563604Y-90740560D01*
X178563604Y-90740560D01*
G37*
G36*
X178846447Y-91023402D02*
X178987868Y-91164823D01*
X178422183Y-91730508D01*
X178280762Y-91589087D01*
X178846447Y-91023402D01*
X178846447Y-91023402D01*
G37*
G36*
X179986656Y-85340031D02*
X179200000Y-86126687D01*
X178413344Y-85340031D01*
X179200000Y-84553375D01*
X179986656Y-85340031D01*
X179986656Y-85340031D01*
G37*
G36*
X179200000Y-86126687D02*
X178413344Y-86913343D01*
X177626688Y-86126687D01*
X178413344Y-85340031D01*
X179200000Y-86126687D01*
X179200000Y-86126687D01*
G37*
G36*
X178413343Y-86913344D02*
X177626687Y-87700000D01*
X176840031Y-86913344D01*
X177626687Y-86126688D01*
X178413343Y-86913344D01*
X178413343Y-86913344D01*
G37*
G36*
X177626687Y-87700000D02*
X176840031Y-88486656D01*
X176053375Y-87700000D01*
X176840031Y-86913344D01*
X177626687Y-87700000D01*
X177626687Y-87700000D01*
G37*
G36*
X180773312Y-86126687D02*
X179986656Y-86913343D01*
X179200000Y-86126687D01*
X179986656Y-85340031D01*
X180773312Y-86126687D01*
X180773312Y-86126687D01*
G37*
G36*
X179986656Y-86913344D02*
X179200000Y-87700000D01*
X178413344Y-86913344D01*
X179200000Y-86126688D01*
X179986656Y-86913344D01*
X179986656Y-86913344D01*
G37*
G36*
X179200000Y-87700000D02*
X178413344Y-88486656D01*
X177626688Y-87700000D01*
X178413344Y-86913344D01*
X179200000Y-87700000D01*
X179200000Y-87700000D01*
G37*
G36*
X178413343Y-88486656D02*
X177626687Y-89273312D01*
X176840031Y-88486656D01*
X177626687Y-87700000D01*
X178413343Y-88486656D01*
X178413343Y-88486656D01*
G37*
G36*
X181559969Y-86913344D02*
X180773313Y-87700000D01*
X179986657Y-86913344D01*
X180773313Y-86126688D01*
X181559969Y-86913344D01*
X181559969Y-86913344D01*
G37*
G36*
X180773312Y-87700000D02*
X179986656Y-88486656D01*
X179200000Y-87700000D01*
X179986656Y-86913344D01*
X180773312Y-87700000D01*
X180773312Y-87700000D01*
G37*
G36*
X179986656Y-88486656D02*
X179200000Y-89273312D01*
X178413344Y-88486656D01*
X179200000Y-87700000D01*
X179986656Y-88486656D01*
X179986656Y-88486656D01*
G37*
G36*
X179200000Y-89273313D02*
X178413344Y-90059969D01*
X177626688Y-89273313D01*
X178413344Y-88486657D01*
X179200000Y-89273313D01*
X179200000Y-89273313D01*
G37*
G36*
X182346625Y-87700000D02*
X181559969Y-88486656D01*
X180773313Y-87700000D01*
X181559969Y-86913344D01*
X182346625Y-87700000D01*
X182346625Y-87700000D01*
G37*
G36*
X181559969Y-88486656D02*
X180773313Y-89273312D01*
X179986657Y-88486656D01*
X180773313Y-87700000D01*
X181559969Y-88486656D01*
X181559969Y-88486656D01*
G37*
G36*
X180773312Y-89273313D02*
X179986656Y-90059969D01*
X179200000Y-89273313D01*
X179986656Y-88486657D01*
X180773312Y-89273313D01*
X180773312Y-89273313D01*
G37*
G36*
X179986656Y-90059969D02*
X179200000Y-90846625D01*
X178413344Y-90059969D01*
X179200000Y-89273313D01*
X179986656Y-90059969D01*
X179986656Y-90059969D01*
G37*
G36*
X154142804Y-111701561D02*
X153930672Y-111489429D01*
X154531712Y-110888389D01*
X154743844Y-111100521D01*
X154142804Y-111701561D01*
X154142804Y-111701561D01*
G37*
G36*
X154496358Y-112055114D02*
X154284226Y-111842982D01*
X154885266Y-111241942D01*
X155097398Y-111454074D01*
X154496358Y-112055114D01*
X154496358Y-112055114D01*
G37*
G36*
X154849911Y-112408668D02*
X154637779Y-112196536D01*
X155238819Y-111595496D01*
X155450951Y-111807628D01*
X154849911Y-112408668D01*
X154849911Y-112408668D01*
G37*
G36*
X155203464Y-112762221D02*
X154991332Y-112550089D01*
X155592372Y-111949049D01*
X155804504Y-112161181D01*
X155203464Y-112762221D01*
X155203464Y-112762221D01*
G37*
G36*
X155557018Y-113115774D02*
X155344886Y-112903642D01*
X155945926Y-112302602D01*
X156158058Y-112514734D01*
X155557018Y-113115774D01*
X155557018Y-113115774D01*
G37*
G36*
X155910571Y-113469328D02*
X155698439Y-113257196D01*
X156299479Y-112656156D01*
X156511611Y-112868288D01*
X155910571Y-113469328D01*
X155910571Y-113469328D01*
G37*
G36*
X157501561Y-113257196D02*
X157289429Y-113469328D01*
X156688389Y-112868288D01*
X156900521Y-112656156D01*
X157501561Y-113257196D01*
X157501561Y-113257196D01*
G37*
G36*
X157855114Y-112903642D02*
X157642982Y-113115774D01*
X157041942Y-112514734D01*
X157254074Y-112302602D01*
X157855114Y-112903642D01*
X157855114Y-112903642D01*
G37*
G36*
X158208668Y-112550089D02*
X157996536Y-112762221D01*
X157395496Y-112161181D01*
X157607628Y-111949049D01*
X158208668Y-112550089D01*
X158208668Y-112550089D01*
G37*
G36*
X158562221Y-112196536D02*
X158350089Y-112408668D01*
X157749049Y-111807628D01*
X157961181Y-111595496D01*
X158562221Y-112196536D01*
X158562221Y-112196536D01*
G37*
G36*
X158915774Y-111842982D02*
X158703642Y-112055114D01*
X158102602Y-111454074D01*
X158314734Y-111241942D01*
X158915774Y-111842982D01*
X158915774Y-111842982D01*
G37*
G36*
X159269328Y-111489429D02*
X159057196Y-111701561D01*
X158456156Y-111100521D01*
X158668288Y-110888389D01*
X159269328Y-111489429D01*
X159269328Y-111489429D01*
G37*
G36*
X158668288Y-110711611D02*
X158456156Y-110499479D01*
X159057196Y-109898439D01*
X159269328Y-110110571D01*
X158668288Y-110711611D01*
X158668288Y-110711611D01*
G37*
G36*
X158314734Y-110358058D02*
X158102602Y-110145926D01*
X158703642Y-109544886D01*
X158915774Y-109757018D01*
X158314734Y-110358058D01*
X158314734Y-110358058D01*
G37*
G36*
X157961181Y-110004504D02*
X157749049Y-109792372D01*
X158350089Y-109191332D01*
X158562221Y-109403464D01*
X157961181Y-110004504D01*
X157961181Y-110004504D01*
G37*
G36*
X157607628Y-109650951D02*
X157395496Y-109438819D01*
X157996536Y-108837779D01*
X158208668Y-109049911D01*
X157607628Y-109650951D01*
X157607628Y-109650951D01*
G37*
G36*
X157254074Y-109297398D02*
X157041942Y-109085266D01*
X157642982Y-108484226D01*
X157855114Y-108696358D01*
X157254074Y-109297398D01*
X157254074Y-109297398D01*
G37*
G36*
X156900521Y-108943844D02*
X156688389Y-108731712D01*
X157289429Y-108130672D01*
X157501561Y-108342804D01*
X156900521Y-108943844D01*
X156900521Y-108943844D01*
G37*
G36*
X156511611Y-108731712D02*
X156299479Y-108943844D01*
X155698439Y-108342804D01*
X155910571Y-108130672D01*
X156511611Y-108731712D01*
X156511611Y-108731712D01*
G37*
G36*
X156158058Y-109085266D02*
X155945926Y-109297398D01*
X155344886Y-108696358D01*
X155557018Y-108484226D01*
X156158058Y-109085266D01*
X156158058Y-109085266D01*
G37*
G36*
X155804504Y-109438819D02*
X155592372Y-109650951D01*
X154991332Y-109049911D01*
X155203464Y-108837779D01*
X155804504Y-109438819D01*
X155804504Y-109438819D01*
G37*
G36*
X155450951Y-109792372D02*
X155238819Y-110004504D01*
X154637779Y-109403464D01*
X154849911Y-109191332D01*
X155450951Y-109792372D01*
X155450951Y-109792372D01*
G37*
G36*
X155097398Y-110145926D02*
X154885266Y-110358058D01*
X154284226Y-109757018D01*
X154496358Y-109544886D01*
X155097398Y-110145926D01*
X155097398Y-110145926D01*
G37*
G36*
X154743844Y-110499479D02*
X154531712Y-110711611D01*
X153930672Y-110110571D01*
X154142804Y-109898439D01*
X154743844Y-110499479D01*
X154743844Y-110499479D01*
G37*
D22*
X175950000Y-114370000D03*
X173450000Y-114370000D03*
X178810000Y-114370000D03*
D23*
X177700000Y-111940000D03*
D24*
X173399100Y-111637460D03*
X174049100Y-111637460D03*
X174699100Y-111637460D03*
X175349100Y-111637460D03*
X175999100Y-111637460D03*
D23*
X171700000Y-111940000D03*
D22*
X170590000Y-114370000D03*
D25*
X168100000Y-115200000D03*
D26*
X167900000Y-114100000D03*
X165700000Y-114100000D03*
D25*
X165500000Y-115200000D03*
X154700000Y-115200000D03*
D26*
X154500000Y-114100000D03*
X152300000Y-114100000D03*
D25*
X152100000Y-115200000D03*
X183700000Y-115100000D03*
D26*
X183500000Y-114000000D03*
X181300000Y-114000000D03*
D25*
X181100000Y-115100000D03*
D27*
X184800000Y-81800000D03*
X178800000Y-81800000D03*
D28*
X173800000Y-96500000D03*
D29*
X173800000Y-99040000D03*
D28*
X151700000Y-109200000D03*
D29*
X151700000Y-111740000D03*
D30*
X179600000Y-101750000D03*
D31*
X177100000Y-99750000D03*
X177100000Y-99250000D03*
X177100000Y-98750000D03*
X177100000Y-98250000D03*
X177100000Y-97750000D03*
X177100000Y-97250000D03*
X177100000Y-96750000D03*
X177100000Y-96250000D03*
X177100000Y-95750000D03*
X177100000Y-100250000D03*
D30*
X179600000Y-94250000D03*
D32*
X154200000Y-112900000D03*
X158100000Y-114200000D03*
X170400000Y-114300000D03*
X164900000Y-109900000D03*
X177900000Y-112100000D03*
X176800000Y-104400000D03*
X176000000Y-100200000D03*
X175900000Y-102500000D03*
X184300000Y-88500000D03*
X175100000Y-90200000D03*
X174150000Y-89600000D03*
X174100000Y-84900000D03*
X158800000Y-113300000D03*
X163900000Y-114800000D03*
X158100000Y-113300000D03*
X162900000Y-114800000D03*
X183500000Y-88500000D03*
X173600000Y-86400000D03*
X179100000Y-92100000D03*
X174900000Y-87600000D03*
X169000000Y-111100000D03*
X181300000Y-113200000D03*
X177900000Y-103500000D03*
X178200000Y-99300000D03*
X160300000Y-109800000D03*
X162700000Y-109800000D03*
X172700000Y-109100000D03*
X173500000Y-103350000D03*
X179600000Y-110700000D03*
X183200000Y-91300000D03*
X167800000Y-110200000D03*
X155300000Y-110900000D03*
X161800000Y-111000000D03*
X182300000Y-91100000D03*
X164800000Y-112200000D03*
X156500000Y-110300000D03*
X160100000Y-110400000D03*
X183800000Y-84600000D03*
X168100000Y-114000000D03*
X183200000Y-85100000D03*
X154600000Y-114200000D03*
X182500000Y-85100000D03*
X183800000Y-114000000D03*
X181400000Y-91700000D03*
X174700000Y-112700000D03*
X181600000Y-90900000D03*
X174000000Y-111600000D03*
X180700000Y-83700000D03*
X180500000Y-109300000D03*
X177400000Y-109000000D03*
X176700000Y-101500000D03*
D33*
X154800000Y-112900000D02*
X155344365Y-112355635D01*
X154600000Y-112900000D02*
X154800000Y-112900000D01*
X154200000Y-112900000D02*
X154600000Y-112900000D01*
X155344365Y-112355635D02*
X155397918Y-112355635D01*
X158100000Y-114200000D02*
X158050000Y-114200000D01*
X162825000Y-108495000D02*
X163495000Y-108495000D01*
X170400000Y-114300000D02*
X170470000Y-114370000D01*
X163495000Y-108495000D02*
X164900000Y-109900000D01*
X170470000Y-114370000D02*
X170590000Y-114370000D01*
X175999100Y-111637460D02*
X177397460Y-111637460D01*
X177397460Y-111637460D02*
X177700000Y-111940000D01*
X177900000Y-112100000D02*
X177740000Y-111940000D01*
X177740000Y-111940000D02*
X177700000Y-111940000D01*
X176900000Y-104500000D02*
X180000000Y-104500000D01*
X176800000Y-104400000D02*
X176900000Y-104500000D01*
X176050000Y-100250000D02*
X176000000Y-100200000D01*
X177100000Y-100250000D02*
X176050000Y-100250000D01*
X175900000Y-102500000D02*
X175800000Y-102400000D01*
X175800000Y-102400000D02*
X175700000Y-102400000D01*
X184255635Y-88455635D02*
X184255635Y-85755635D01*
X184300000Y-88500000D02*
X184255635Y-88455635D01*
X175100000Y-90200000D02*
X174400000Y-90900000D01*
X174400000Y-90900000D02*
X174000000Y-90900000D01*
X155751472Y-112709188D02*
X155751472Y-112709189D01*
X155751472Y-112709189D02*
X156105025Y-113062742D01*
X155044365Y-112002082D02*
X155397918Y-112355635D01*
X154690812Y-111648528D02*
X154690812Y-111648529D01*
X154690812Y-111648529D02*
X155397918Y-112355635D01*
X155397918Y-112355635D02*
X155397919Y-112355635D01*
X155397919Y-112355635D02*
X156105025Y-113062741D01*
X156105025Y-113062741D02*
X156105025Y-113605025D01*
X157050000Y-114200000D02*
X158050000Y-114200000D01*
X156700000Y-114200000D02*
X157050000Y-114200000D01*
X156105025Y-113605025D02*
X156700000Y-114200000D01*
X158050000Y-114200000D02*
X158050000Y-115200000D01*
X174150000Y-90750000D02*
X174150000Y-89600000D01*
X174100000Y-84900000D02*
X174050000Y-84900000D01*
X180550000Y-110800000D02*
X180550000Y-111300000D01*
X180550000Y-111300000D02*
X179650000Y-112200000D01*
X179650000Y-112200000D02*
X177960000Y-112200000D01*
X177960000Y-112200000D02*
X177700000Y-111940000D01*
X171700000Y-111940000D02*
X171700000Y-113260000D01*
X171700000Y-113260000D02*
X170590000Y-114370000D01*
X170590000Y-114370000D02*
X173450000Y-114370000D01*
X173450000Y-114370000D02*
X175950000Y-114370000D01*
X175950000Y-114370000D02*
X178810000Y-114370000D01*
X178810000Y-114370000D02*
X177700000Y-113260000D01*
X177700000Y-113260000D02*
X177621640Y-113260000D01*
X177621640Y-113260000D02*
X175999100Y-111637460D01*
X177100000Y-99750000D02*
X177100000Y-100250000D01*
X177100000Y-100250000D02*
X177000000Y-100350000D01*
X173800000Y-96500000D02*
X173900000Y-96500000D01*
X173900000Y-96500000D02*
X175600000Y-98200000D01*
X175600000Y-98200000D02*
X175600000Y-98900000D01*
X175600000Y-98900000D02*
X176450000Y-99750000D01*
X176450000Y-99750000D02*
X177100000Y-99750000D01*
X174150000Y-90750000D02*
X174550000Y-91150000D01*
X174550000Y-91150000D02*
X175600000Y-91150000D01*
X183250000Y-83800000D02*
X183800000Y-83800000D01*
X184300000Y-85711270D02*
X182876955Y-87134315D01*
X184300000Y-84300000D02*
X184300000Y-85711270D01*
X183800000Y-83800000D02*
X184300000Y-84300000D01*
X174050000Y-84900000D02*
X174420101Y-84900000D01*
X174420101Y-84900000D02*
X176088730Y-86568629D01*
X176088730Y-86568629D02*
X176371573Y-86285786D01*
X174050000Y-82500000D02*
X176350000Y-82500000D01*
X174050000Y-82500000D02*
X174050000Y-83700000D01*
X174050000Y-83700000D02*
X174050000Y-84900000D01*
X174000000Y-92350000D02*
X175500000Y-92350000D01*
X175500000Y-92350000D02*
X175550000Y-92300000D01*
X175550000Y-92300000D02*
X176000000Y-92300000D01*
X176000000Y-92300000D02*
X176700000Y-91600000D01*
X176700000Y-91600000D02*
X176700000Y-91000000D01*
X176700000Y-91000000D02*
X175300000Y-89600000D01*
X175300000Y-89600000D02*
X175300000Y-89054415D01*
X175300000Y-89054415D02*
X175805887Y-88548528D01*
X157802082Y-112355635D02*
X157855635Y-112355635D01*
X157855635Y-112355635D02*
X158800000Y-113300000D01*
X163900000Y-114800000D02*
X163950000Y-114800000D01*
X157448528Y-112709188D02*
X157509188Y-112709188D01*
X157509188Y-112709188D02*
X158100000Y-113300000D01*
X162900000Y-114800000D02*
X162850000Y-114800000D01*
X157094975Y-113062742D02*
X157094975Y-113094975D01*
X157094975Y-113094975D02*
X157700000Y-113700000D01*
X157700000Y-113700000D02*
X158650000Y-113700000D01*
X158650000Y-113700000D02*
X159150000Y-114200000D01*
X183265685Y-88265685D02*
X182876955Y-88265685D01*
X183265685Y-88265685D02*
X183500000Y-88500000D01*
X172950000Y-84900000D02*
X172950000Y-85750000D01*
X172950000Y-85750000D02*
X173600000Y-86400000D01*
X179765685Y-91434315D02*
X179100000Y-92100000D01*
X175365685Y-87134315D02*
X175523045Y-87134315D01*
X174900000Y-87600000D02*
X175365685Y-87134315D01*
X179765685Y-91376955D02*
X179765685Y-91434315D01*
X160250000Y-112800000D02*
X160250000Y-112950000D01*
X160250000Y-112950000D02*
X161400000Y-114100000D01*
X161400000Y-114100000D02*
X165700000Y-114100000D01*
X152300000Y-114100000D02*
X152300000Y-115000000D01*
X152300000Y-115000000D02*
X152100000Y-115200000D01*
X155751472Y-108890812D02*
X155751472Y-108851472D01*
X155751472Y-108851472D02*
X155100000Y-108200000D01*
X153400000Y-113000000D02*
X152300000Y-114100000D01*
X153400000Y-109500000D02*
X153400000Y-113000000D01*
X154700000Y-108200000D02*
X153400000Y-109500000D01*
X155100000Y-108200000D02*
X154700000Y-108200000D01*
X162825000Y-109765000D02*
X162065000Y-109765000D01*
X159950000Y-108250000D02*
X159950000Y-108600000D01*
X160200000Y-108000000D02*
X159950000Y-108250000D01*
X161400000Y-108000000D02*
X160200000Y-108000000D01*
X161700000Y-108300000D02*
X161400000Y-108000000D01*
X161700000Y-109400000D02*
X161700000Y-108300000D01*
X162065000Y-109765000D02*
X161700000Y-109400000D01*
X157094975Y-108537258D02*
X157094975Y-108537259D01*
X157094975Y-108537259D02*
X157448528Y-108890812D01*
X165700000Y-114100000D02*
X165700000Y-115000000D01*
X169175000Y-111035000D02*
X168065000Y-111035000D01*
X165700000Y-113400000D02*
X165700000Y-114100000D01*
X168065000Y-111035000D02*
X165700000Y-113400000D01*
X169000000Y-111100000D02*
X169065000Y-111035000D01*
X169065000Y-111035000D02*
X169175000Y-111035000D01*
X181300000Y-114000000D02*
X181300000Y-114900000D01*
X181300000Y-114900000D02*
X181100000Y-115100000D01*
X181300000Y-114000000D02*
X181300000Y-113200000D01*
X177900000Y-103500000D02*
X177850000Y-103550000D01*
X177850000Y-103550000D02*
X177800000Y-103550000D01*
X177100000Y-99250000D02*
X178150000Y-99250000D01*
X178150000Y-99250000D02*
X178200000Y-99300000D01*
X159950000Y-108600000D02*
X159950000Y-109950000D01*
X159950000Y-109950000D02*
X159600000Y-110300000D01*
X159600000Y-110300000D02*
X159600000Y-112150000D01*
X159600000Y-112150000D02*
X160300000Y-112850000D01*
X160300000Y-112850000D02*
X160300000Y-114050000D01*
X159900000Y-115200000D02*
X159150000Y-115200000D01*
X160300000Y-114800000D02*
X159900000Y-115200000D01*
X160300000Y-114050000D02*
X160300000Y-114800000D01*
X159950000Y-108600000D02*
X159950000Y-109450000D01*
X159950000Y-109450000D02*
X160300000Y-109800000D01*
X162700000Y-109800000D02*
X162735000Y-109765000D01*
X162735000Y-109765000D02*
X162825000Y-109765000D01*
X155751472Y-108890812D02*
X155751472Y-108890811D01*
X155751472Y-108890811D02*
X156105025Y-108537258D01*
X156105025Y-108537258D02*
X157094974Y-108537258D01*
X157094974Y-108537258D02*
X157802081Y-109244365D01*
X157802081Y-109244365D02*
X157802082Y-109244365D01*
X157802082Y-109244365D02*
X158155635Y-109597918D01*
X158155635Y-109597918D02*
X158202082Y-109597918D01*
X158202082Y-109597918D02*
X159200000Y-108600000D01*
X159200000Y-108600000D02*
X159950000Y-108600000D01*
X177100000Y-99250000D02*
X177100000Y-98750000D01*
X177100000Y-98750000D02*
X177100000Y-98250000D01*
X177100000Y-97750000D02*
X177100000Y-99250000D01*
X172950000Y-82500000D02*
X172950000Y-83700000D01*
X172950000Y-83700000D02*
X172950000Y-84900000D01*
X175523045Y-87134315D02*
X175523045Y-87134314D01*
X175523045Y-87134314D02*
X175805887Y-86851472D01*
X172950000Y-84900000D02*
X173100000Y-84900000D01*
X173100000Y-84900000D02*
X175334315Y-87134315D01*
X175334315Y-87134315D02*
X175523045Y-87134315D01*
X172925000Y-90925000D02*
X172925000Y-89725000D01*
X172925000Y-89725000D02*
X173100000Y-89550000D01*
X173100000Y-89550000D02*
X173100000Y-88800000D01*
X173100000Y-88800000D02*
X173634315Y-88265685D01*
X173634315Y-88265685D02*
X175523045Y-88265685D01*
X182150000Y-83800000D02*
X181500000Y-83800000D01*
X177600000Y-83200000D02*
X177500000Y-83300000D01*
X180900000Y-83200000D02*
X177600000Y-83200000D01*
X181500000Y-83800000D02*
X180900000Y-83200000D01*
X176850000Y-82500000D02*
X177200000Y-82500000D01*
X176800000Y-85017157D02*
X177220101Y-85437258D01*
X176800000Y-84000000D02*
X176800000Y-85017157D01*
X177500000Y-83300000D02*
X176800000Y-84000000D01*
X177500000Y-82800000D02*
X177500000Y-83300000D01*
X177200000Y-82500000D02*
X177500000Y-82800000D01*
X180550000Y-112200000D02*
X181098980Y-112200000D01*
X181098980Y-112200000D02*
X183000000Y-110298980D01*
X180000000Y-105450000D02*
X180000000Y-107698220D01*
X180000000Y-107698220D02*
X179498220Y-108200000D01*
X180000000Y-105450000D02*
X182148980Y-105450000D01*
X182148980Y-105450000D02*
X183000000Y-106301020D01*
X174300000Y-108050000D02*
X179348220Y-108050000D01*
X179348220Y-108050000D02*
X179498220Y-108200000D01*
X175700000Y-103350000D02*
X176450000Y-103350000D01*
X181250700Y-102800000D02*
X182050700Y-103600000D01*
X177000000Y-102800000D02*
X181250700Y-102800000D01*
X176450000Y-103350000D02*
X177000000Y-102800000D01*
X183550000Y-101900000D02*
X183550000Y-103599300D01*
X183550000Y-103599300D02*
X183549300Y-103600000D01*
X174300000Y-105150000D02*
X177500000Y-105150000D01*
X177500000Y-105150000D02*
X177800000Y-105450000D01*
X172700000Y-106100000D02*
X172700000Y-109000000D01*
X173400000Y-109700000D02*
X173400000Y-111636560D01*
X172700000Y-109000000D02*
X173400000Y-109700000D01*
X173400000Y-111636560D02*
X173399100Y-111637460D01*
X172700000Y-106100000D02*
X173200000Y-106600000D01*
X172700000Y-102100000D02*
X172700000Y-106100000D01*
X173350000Y-101450000D02*
X172700000Y-102100000D01*
X176450000Y-107250000D02*
X177499240Y-107250000D01*
X175800000Y-106600000D02*
X176450000Y-107250000D01*
X173200000Y-106600000D02*
X175800000Y-106600000D01*
X173500000Y-101450000D02*
X173350000Y-101450000D01*
X173500000Y-101450000D02*
X173500000Y-101300000D01*
X173500000Y-101300000D02*
X174000000Y-100800000D01*
X174000000Y-100800000D02*
X181550000Y-100800000D01*
X181550000Y-100800000D02*
X182650000Y-101900000D01*
X179650000Y-110750000D02*
X179600000Y-110700000D01*
X179650000Y-110750000D02*
X179650000Y-110800000D01*
X181579899Y-89679899D02*
X183200000Y-91300000D01*
X166965000Y-111035000D02*
X162825000Y-111035000D01*
X167800000Y-110200000D02*
X166965000Y-111035000D01*
X181462742Y-89679899D02*
X181579899Y-89679899D01*
X162000000Y-111035000D02*
X161835000Y-111035000D01*
X154900000Y-110900000D02*
X154337258Y-110337258D01*
X155300000Y-110900000D02*
X154900000Y-110900000D01*
X161835000Y-111035000D02*
X161800000Y-111000000D01*
X154337258Y-110337258D02*
X154337258Y-110305025D01*
X160850000Y-108600000D02*
X160850000Y-109950000D01*
X161935000Y-111035000D02*
X162000000Y-111035000D01*
X162000000Y-111035000D02*
X162825000Y-111035000D01*
X160850000Y-109950000D02*
X161935000Y-111035000D01*
X181262742Y-89962742D02*
X182300000Y-91100000D01*
X164695000Y-112305000D02*
X162825000Y-112305000D01*
X164800000Y-112200000D02*
X164695000Y-112305000D01*
X181179899Y-89962742D02*
X181262742Y-89962742D01*
X161150000Y-112800000D02*
X161150000Y-111450000D01*
X156500000Y-110300000D02*
X155444365Y-109244365D01*
X161150000Y-111450000D02*
X160100000Y-110400000D01*
X155444365Y-109244365D02*
X155397918Y-109244365D01*
X161150000Y-112800000D02*
X161700000Y-112800000D01*
X161700000Y-112800000D02*
X162195000Y-112305000D01*
X162195000Y-112305000D02*
X162825000Y-112305000D01*
X182594113Y-86805887D02*
X183800000Y-85600000D01*
X183800000Y-85600000D02*
X183800000Y-84600000D01*
X167900000Y-114100000D02*
X167900000Y-115000000D01*
X167900000Y-115000000D02*
X168100000Y-115200000D01*
X168100000Y-114000000D02*
X168000000Y-114100000D01*
X168000000Y-114100000D02*
X167900000Y-114100000D01*
X182594113Y-86851472D02*
X182594113Y-86805887D01*
X183200000Y-85700000D02*
X183200000Y-85100000D01*
X182331371Y-86568629D02*
X183200000Y-85700000D01*
X154600000Y-114200000D02*
X154500000Y-114100000D01*
X182311270Y-86568629D02*
X182331371Y-86568629D01*
X154500000Y-114100000D02*
X154500000Y-115000000D01*
X154500000Y-115000000D02*
X154700000Y-115200000D01*
X182500000Y-85800000D02*
X182500000Y-85100000D01*
X182028427Y-86271573D02*
X182500000Y-85800000D01*
X183800000Y-114000000D02*
X183700000Y-114100000D01*
X183700000Y-114100000D02*
X183700000Y-115100000D01*
X182028427Y-86285786D02*
X182028427Y-86271573D01*
X176850000Y-83100000D02*
X176850000Y-83350000D01*
X176400000Y-85182843D02*
X176937258Y-85720101D01*
X176400000Y-83800000D02*
X176400000Y-85182843D01*
X176850000Y-83350000D02*
X176400000Y-83800000D01*
X176350000Y-83100000D02*
X176100000Y-83100000D01*
X175800000Y-85148528D02*
X176654416Y-86002944D01*
X175800000Y-83400000D02*
X175800000Y-85148528D01*
X176100000Y-83100000D02*
X175800000Y-83400000D01*
X182311270Y-88831371D02*
X182331371Y-88831371D01*
X182331371Y-88831371D02*
X182700000Y-89200000D01*
X182700000Y-89200000D02*
X184000000Y-89200000D01*
X184000000Y-89200000D02*
X184700000Y-89900000D01*
X184700000Y-89900000D02*
X184700000Y-92300000D01*
X184700000Y-92300000D02*
X183400000Y-93600000D01*
X177100000Y-95750000D02*
X181250000Y-95750000D01*
X181250000Y-95750000D02*
X183400000Y-93600000D01*
X182028427Y-89114214D02*
X182114214Y-89114214D01*
X182114214Y-89114214D02*
X182500000Y-89500000D01*
X182500000Y-89500000D02*
X183845998Y-89500000D01*
X183845998Y-89500000D02*
X184300000Y-89954002D01*
X184300000Y-89954002D02*
X184300000Y-92200000D01*
X184300000Y-92200000D02*
X183000000Y-93500000D01*
X177100000Y-96250000D02*
X176050000Y-96250000D01*
X181100000Y-95400000D02*
X183000000Y-93500000D01*
X183000000Y-93500000D02*
X183100000Y-93400000D01*
X178504002Y-95400000D02*
X181100000Y-95400000D01*
X178304002Y-95200000D02*
X178504002Y-95400000D01*
X176400000Y-95200000D02*
X178304002Y-95200000D01*
X175800000Y-95800000D02*
X176400000Y-95200000D01*
X175800000Y-96000000D02*
X175800000Y-95800000D01*
X176050000Y-96250000D02*
X175800000Y-96000000D01*
X181745584Y-89397056D02*
X181797056Y-89397056D01*
X181797056Y-89397056D02*
X182300000Y-89900000D01*
X182300000Y-89900000D02*
X183800000Y-89900000D01*
X183800000Y-89900000D02*
X184000000Y-90100000D01*
X184000000Y-90100000D02*
X184000000Y-91900000D01*
X184000000Y-91900000D02*
X182900000Y-93000000D01*
X182900000Y-93000000D02*
X182000000Y-93000000D01*
X177100000Y-96750000D02*
X176050000Y-96750000D01*
X178200000Y-93000000D02*
X182000000Y-93000000D01*
X175500000Y-95700000D02*
X178200000Y-93000000D01*
X175500000Y-96200000D02*
X175500000Y-95700000D01*
X176050000Y-96750000D02*
X175500000Y-96200000D01*
X176600000Y-82050000D02*
X178550000Y-82050000D01*
X178550000Y-82050000D02*
X178800000Y-81800000D01*
X174699100Y-111637460D02*
X174699100Y-112699100D01*
X181500000Y-91414213D02*
X180614214Y-90528427D01*
X181500000Y-91600000D02*
X181500000Y-91414213D01*
X181400000Y-91700000D02*
X181500000Y-91600000D01*
X174699100Y-112699100D02*
X174700000Y-112700000D01*
X180897056Y-90245584D02*
X180945584Y-90245584D01*
X180945584Y-90245584D02*
X181600000Y-90900000D01*
X174000000Y-111600000D02*
X174037460Y-111637460D01*
X174037460Y-111637460D02*
X174049100Y-111637460D01*
X180048528Y-84305887D02*
X180094113Y-84305887D01*
X180094113Y-84305887D02*
X180700000Y-83700000D01*
X180500000Y-109300000D02*
X179800000Y-110000000D01*
X179800000Y-110000000D02*
X175900000Y-110000000D01*
X175900000Y-110000000D02*
X175349100Y-110550900D01*
X175349100Y-110550900D02*
X175349100Y-111637460D01*
X175700000Y-101450000D02*
X176650000Y-101450000D01*
X177400000Y-109000000D02*
X177499240Y-109099240D01*
X176650000Y-101450000D02*
X176700000Y-101500000D01*
X177499240Y-109099240D02*
X177499240Y-109150000D01*
X173800000Y-99040000D02*
X173800000Y-99550000D01*
M02*
