G04 #@! TF.FileFunction,Copper,L4,Bot,Signal*
%FSLAX46Y46*%
G04 Gerber Fmt 4.6, Leading zero omitted, Abs format (unit mm)*
G04 Created by KiCad (PCBNEW (2015-04-30 BZR 5634)-product) date Monday, June 22, 2015 'AMt' 01:30:21 AM*
%MOMM*%
G01*
G04 APERTURE LIST*
%ADD10C,0.100000*%
%ADD11R,2.032000X2.032000*%
%ADD12O,2.032000X2.032000*%
%ADD13C,0.355000*%
%ADD14C,0.127000*%
G04 APERTURE END LIST*
D10*
D11*
X173800000Y-96500000D03*
D12*
X173800000Y-99040000D03*
D11*
X151700000Y-109200000D03*
D12*
X151700000Y-111740000D03*
D13*
X174150000Y-89600000D03*
X174100000Y-84900000D03*
X184300000Y-88500000D03*
X175900000Y-102500000D03*
X176000000Y-100200000D03*
X176800000Y-104400000D03*
X177900000Y-112100000D03*
X164900000Y-109900000D03*
X170400000Y-114300000D03*
X158100000Y-114200000D03*
X154200000Y-112900000D03*
X163900000Y-114800000D03*
X158800000Y-113300000D03*
X162900000Y-114800000D03*
X158100000Y-113300000D03*
X162700000Y-109800000D03*
X160300000Y-109800000D03*
X178200000Y-99300000D03*
X177900000Y-103500000D03*
X181300000Y-113200000D03*
X169000000Y-111100000D03*
X174900000Y-87600000D03*
X179100000Y-92100000D03*
X173600000Y-86400000D03*
X183500000Y-88500000D03*
X172700000Y-109100000D03*
X179600000Y-110700000D03*
X173500000Y-103350000D03*
X161800000Y-111000000D03*
X155300000Y-110900000D03*
X183200000Y-91300000D03*
X167800000Y-110200000D03*
X160100000Y-110400000D03*
X156500000Y-110300000D03*
X164800000Y-112200000D03*
X182300000Y-91100000D03*
X168100000Y-114000000D03*
X183800000Y-84600000D03*
X154600000Y-114200000D03*
X183200000Y-85100000D03*
X183800000Y-114000000D03*
X182500000Y-85100000D03*
X174700000Y-112700000D03*
X181400000Y-91700000D03*
X174000000Y-111600000D03*
X181600000Y-90900000D03*
X180500000Y-109300000D03*
X180700000Y-83700000D03*
X176700000Y-101500000D03*
X177400000Y-109000000D03*
D14*
X184255635Y-85755635D02*
X184300000Y-85800000D01*
X173800000Y-96500000D02*
X173800000Y-89950000D01*
X174150000Y-89600000D02*
X174100000Y-89550000D01*
X174100000Y-89550000D02*
X174100000Y-84900000D01*
X173800000Y-89950000D02*
X174150000Y-89600000D01*
X164900000Y-109900000D02*
X169300000Y-114300000D01*
X169300000Y-114300000D02*
X170400000Y-114300000D01*
X153140000Y-111740000D02*
X154200000Y-112800000D01*
X154200000Y-112800000D02*
X154200000Y-112900000D01*
X151700000Y-111740000D02*
X153140000Y-111740000D01*
X163400000Y-114300000D02*
X163900000Y-114800000D01*
X159800000Y-114300000D02*
X163400000Y-114300000D01*
X158800000Y-113300000D02*
X159800000Y-114300000D01*
X159600000Y-114800000D02*
X162900000Y-114800000D01*
X158100000Y-113300000D02*
X159600000Y-114800000D01*
X160300000Y-109800000D02*
X162700000Y-109800000D01*
X178200000Y-99300000D02*
X178200000Y-99200000D01*
X173600000Y-86400000D02*
X173500000Y-86400000D01*
X179100000Y-97100000D02*
X178200000Y-98000000D01*
X178200000Y-98000000D02*
X178200000Y-99300000D01*
X179100000Y-92100000D02*
X179100000Y-97100000D01*
X176400000Y-106250000D02*
X173500000Y-103350000D01*
X176400000Y-106250000D02*
X176400000Y-109200000D01*
X176400000Y-109200000D02*
X177400000Y-110200000D01*
X177400000Y-110200000D02*
X179100000Y-110200000D01*
X179100000Y-110200000D02*
X179600000Y-110700000D01*
X161800000Y-111000000D02*
X161700000Y-110900000D01*
X161700000Y-110900000D02*
X155300000Y-110900000D01*
X160100000Y-110400000D02*
X160000000Y-110300000D01*
X160000000Y-110300000D02*
X156500000Y-110300000D01*
X174700000Y-112700000D02*
X174900000Y-112900000D01*
X174900000Y-112900000D02*
X180200000Y-112900000D01*
X180200000Y-112900000D02*
X181400000Y-111700000D01*
X181400000Y-111700000D02*
X181400000Y-91700000D01*
X180500000Y-111600000D02*
X174000000Y-111600000D01*
X181000000Y-111100000D02*
X180500000Y-111600000D01*
X181000000Y-91500000D02*
X181000000Y-111100000D01*
X181600000Y-90900000D02*
X181000000Y-91500000D01*
X180500000Y-83900000D02*
X180500000Y-109300000D01*
X180700000Y-83700000D02*
X180500000Y-83900000D01*
X176700000Y-101500000D02*
X177400000Y-102200000D01*
X177400000Y-102200000D02*
X177400000Y-109000000D01*
X176260000Y-101500000D02*
X173800000Y-99040000D01*
X176700000Y-101500000D02*
X176260000Y-101500000D01*
G36*
X184836500Y-115336500D02*
X184553986Y-115336500D01*
X184553986Y-85802660D01*
X184549666Y-85753277D01*
X184535835Y-85705673D01*
X184513023Y-85661663D01*
X184482095Y-85622920D01*
X184479605Y-85620395D01*
X184435240Y-85576030D01*
X184396934Y-85544564D01*
X184353246Y-85521139D01*
X184305840Y-85506646D01*
X184256522Y-85501637D01*
X184207169Y-85506301D01*
X184168016Y-85517973D01*
X184168016Y-84563916D01*
X184153999Y-84493122D01*
X184126497Y-84426398D01*
X184086560Y-84366288D01*
X184035707Y-84315079D01*
X183975877Y-84274723D01*
X183909347Y-84246756D01*
X183838653Y-84232245D01*
X183766486Y-84231741D01*
X183695595Y-84245264D01*
X183628682Y-84272299D01*
X183568294Y-84311816D01*
X183516731Y-84362309D01*
X183475958Y-84421857D01*
X183447528Y-84488189D01*
X183432524Y-84558781D01*
X183431516Y-84630942D01*
X183444544Y-84701925D01*
X183471111Y-84769026D01*
X183510205Y-84829689D01*
X183560338Y-84881602D01*
X183619599Y-84922790D01*
X183685731Y-84951683D01*
X183756216Y-84967180D01*
X183828369Y-84968691D01*
X183899441Y-84956159D01*
X183966726Y-84930061D01*
X184027660Y-84891391D01*
X184079922Y-84841623D01*
X184121523Y-84782650D01*
X184150876Y-84716721D01*
X184166865Y-84646346D01*
X184168016Y-84563916D01*
X184168016Y-85517973D01*
X184159664Y-85520464D01*
X184115813Y-85543584D01*
X184077288Y-85574780D01*
X184045556Y-85612866D01*
X184021827Y-85656389D01*
X184007003Y-85703693D01*
X184001649Y-85752975D01*
X184005969Y-85802358D01*
X184019800Y-85849962D01*
X184042613Y-85893973D01*
X184073540Y-85932715D01*
X184076030Y-85935240D01*
X184120395Y-85979605D01*
X184158701Y-86011071D01*
X184202389Y-86034496D01*
X184249795Y-86048989D01*
X184299114Y-86053999D01*
X184348466Y-86049334D01*
X184395972Y-86035171D01*
X184439822Y-86012052D01*
X184478347Y-85980855D01*
X184510079Y-85942769D01*
X184533809Y-85899246D01*
X184548632Y-85851942D01*
X184553986Y-85802660D01*
X184553986Y-115336500D01*
X184168016Y-115336500D01*
X184168016Y-113963916D01*
X184153999Y-113893122D01*
X184126497Y-113826398D01*
X184086560Y-113766288D01*
X184035707Y-113715079D01*
X183975877Y-113674723D01*
X183909347Y-113646756D01*
X183868016Y-113638272D01*
X183868016Y-88463916D01*
X183853999Y-88393122D01*
X183826497Y-88326398D01*
X183786560Y-88266288D01*
X183735707Y-88215079D01*
X183675877Y-88174723D01*
X183609347Y-88146756D01*
X183568016Y-88138272D01*
X183568016Y-85063916D01*
X183553999Y-84993122D01*
X183526497Y-84926398D01*
X183486560Y-84866288D01*
X183435707Y-84815079D01*
X183375877Y-84774723D01*
X183309347Y-84746756D01*
X183238653Y-84732245D01*
X183166486Y-84731741D01*
X183095595Y-84745264D01*
X183028682Y-84772299D01*
X182968294Y-84811816D01*
X182916731Y-84862309D01*
X182875958Y-84921857D01*
X182849790Y-84982910D01*
X182826497Y-84926398D01*
X182786560Y-84866288D01*
X182735707Y-84815079D01*
X182675877Y-84774723D01*
X182609347Y-84746756D01*
X182538653Y-84732245D01*
X182466486Y-84731741D01*
X182395595Y-84745264D01*
X182328682Y-84772299D01*
X182268294Y-84811816D01*
X182216731Y-84862309D01*
X182175958Y-84921857D01*
X182147528Y-84988189D01*
X182132524Y-85058781D01*
X182131516Y-85130942D01*
X182144544Y-85201925D01*
X182171111Y-85269026D01*
X182210205Y-85329689D01*
X182260338Y-85381602D01*
X182319599Y-85422790D01*
X182385731Y-85451683D01*
X182456216Y-85467180D01*
X182528369Y-85468691D01*
X182599441Y-85456159D01*
X182666726Y-85430061D01*
X182727660Y-85391391D01*
X182779922Y-85341623D01*
X182821523Y-85282650D01*
X182850625Y-85217284D01*
X182871111Y-85269026D01*
X182910205Y-85329689D01*
X182960338Y-85381602D01*
X183019599Y-85422790D01*
X183085731Y-85451683D01*
X183156216Y-85467180D01*
X183228369Y-85468691D01*
X183299441Y-85456159D01*
X183366726Y-85430061D01*
X183427660Y-85391391D01*
X183479922Y-85341623D01*
X183521523Y-85282650D01*
X183550876Y-85216721D01*
X183566865Y-85146346D01*
X183568016Y-85063916D01*
X183568016Y-88138272D01*
X183538653Y-88132245D01*
X183466486Y-88131741D01*
X183395595Y-88145264D01*
X183328682Y-88172299D01*
X183268294Y-88211816D01*
X183216731Y-88262309D01*
X183175958Y-88321857D01*
X183147528Y-88388189D01*
X183132524Y-88458781D01*
X183131516Y-88530942D01*
X183144544Y-88601925D01*
X183171111Y-88669026D01*
X183210205Y-88729689D01*
X183260338Y-88781602D01*
X183319599Y-88822790D01*
X183385731Y-88851683D01*
X183456216Y-88867180D01*
X183528369Y-88868691D01*
X183599441Y-88856159D01*
X183666726Y-88830061D01*
X183727660Y-88791391D01*
X183779922Y-88741623D01*
X183821523Y-88682650D01*
X183850876Y-88616721D01*
X183866865Y-88546346D01*
X183868016Y-88463916D01*
X183868016Y-113638272D01*
X183838653Y-113632245D01*
X183766486Y-113631741D01*
X183695595Y-113645264D01*
X183628682Y-113672299D01*
X183568294Y-113711816D01*
X183568016Y-113712088D01*
X183568016Y-91263916D01*
X183553999Y-91193122D01*
X183526497Y-91126398D01*
X183486560Y-91066288D01*
X183435707Y-91015079D01*
X183375877Y-90974723D01*
X183309347Y-90946756D01*
X183238653Y-90932245D01*
X183166486Y-90931741D01*
X183095595Y-90945264D01*
X183028682Y-90972299D01*
X182968294Y-91011816D01*
X182916731Y-91062309D01*
X182875958Y-91121857D01*
X182847528Y-91188189D01*
X182832524Y-91258781D01*
X182831516Y-91330942D01*
X182844544Y-91401925D01*
X182871111Y-91469026D01*
X182910205Y-91529689D01*
X182960338Y-91581602D01*
X183019599Y-91622790D01*
X183085731Y-91651683D01*
X183156216Y-91667180D01*
X183228369Y-91668691D01*
X183299441Y-91656159D01*
X183366726Y-91630061D01*
X183427660Y-91591391D01*
X183479922Y-91541623D01*
X183521523Y-91482650D01*
X183550876Y-91416721D01*
X183566865Y-91346346D01*
X183568016Y-91263916D01*
X183568016Y-113712088D01*
X183516731Y-113762309D01*
X183475958Y-113821857D01*
X183447528Y-113888189D01*
X183432524Y-113958781D01*
X183431516Y-114030942D01*
X183444544Y-114101925D01*
X183471111Y-114169026D01*
X183510205Y-114229689D01*
X183560338Y-114281602D01*
X183619599Y-114322790D01*
X183685731Y-114351683D01*
X183756216Y-114367180D01*
X183828369Y-114368691D01*
X183899441Y-114356159D01*
X183966726Y-114330061D01*
X184027660Y-114291391D01*
X184079922Y-114241623D01*
X184121523Y-114182650D01*
X184150876Y-114116721D01*
X184166865Y-114046346D01*
X184168016Y-113963916D01*
X184168016Y-115336500D01*
X182668016Y-115336500D01*
X182668016Y-91063916D01*
X182653999Y-90993122D01*
X182626497Y-90926398D01*
X182586560Y-90866288D01*
X182535707Y-90815079D01*
X182475877Y-90774723D01*
X182409347Y-90746756D01*
X182338653Y-90732245D01*
X182266486Y-90731741D01*
X182195595Y-90745264D01*
X182128682Y-90772299D01*
X182068294Y-90811816D01*
X182016731Y-90862309D01*
X181975958Y-90921857D01*
X181966912Y-90942962D01*
X181968016Y-90863916D01*
X181953999Y-90793122D01*
X181926497Y-90726398D01*
X181886560Y-90666288D01*
X181835707Y-90615079D01*
X181775877Y-90574723D01*
X181709347Y-90546756D01*
X181638653Y-90532245D01*
X181566486Y-90531741D01*
X181495595Y-90545264D01*
X181428682Y-90572299D01*
X181368294Y-90611816D01*
X181316731Y-90662309D01*
X181275958Y-90721857D01*
X181247528Y-90788189D01*
X181232524Y-90858781D01*
X181231822Y-90908967D01*
X180820395Y-91320395D01*
X180805488Y-91338541D01*
X180790421Y-91356498D01*
X180789778Y-91357667D01*
X180788929Y-91358701D01*
X180777808Y-91379440D01*
X180766540Y-91399939D01*
X180766137Y-91401207D01*
X180765504Y-91402389D01*
X180758623Y-91424894D01*
X180754000Y-91439469D01*
X180754000Y-84064171D01*
X180799441Y-84056159D01*
X180866726Y-84030061D01*
X180927660Y-83991391D01*
X180979922Y-83941623D01*
X181021523Y-83882650D01*
X181050876Y-83816721D01*
X181066865Y-83746346D01*
X181068016Y-83663916D01*
X181053999Y-83593122D01*
X181026497Y-83526398D01*
X180986560Y-83466288D01*
X180935707Y-83415079D01*
X180875877Y-83374723D01*
X180809347Y-83346756D01*
X180738653Y-83332245D01*
X180666486Y-83331741D01*
X180595595Y-83345264D01*
X180528682Y-83372299D01*
X180468294Y-83411816D01*
X180416731Y-83462309D01*
X180375958Y-83521857D01*
X180347528Y-83588189D01*
X180332524Y-83658781D01*
X180331822Y-83708967D01*
X180320395Y-83720395D01*
X180305488Y-83738541D01*
X180290421Y-83756498D01*
X180289778Y-83757667D01*
X180288929Y-83758701D01*
X180277808Y-83779440D01*
X180266540Y-83799939D01*
X180266137Y-83801207D01*
X180265504Y-83802389D01*
X180258623Y-83824894D01*
X180251551Y-83847190D01*
X180251402Y-83848514D01*
X180251011Y-83849795D01*
X180248638Y-83873159D01*
X180246025Y-83896454D01*
X180246006Y-83899067D01*
X180246002Y-83899113D01*
X180246005Y-83899154D01*
X180246000Y-83900000D01*
X180246000Y-109033647D01*
X180216731Y-109062309D01*
X180175958Y-109121857D01*
X180147528Y-109188189D01*
X180132524Y-109258781D01*
X180131516Y-109330942D01*
X180144544Y-109401925D01*
X180171111Y-109469026D01*
X180210205Y-109529689D01*
X180260338Y-109581602D01*
X180319599Y-109622790D01*
X180385731Y-109651683D01*
X180456216Y-109667180D01*
X180528369Y-109668691D01*
X180599441Y-109656159D01*
X180666726Y-109630061D01*
X180727660Y-109591391D01*
X180746000Y-109573926D01*
X180746000Y-110994790D01*
X180394790Y-111346000D01*
X179968016Y-111346000D01*
X179968016Y-110663916D01*
X179953999Y-110593122D01*
X179926497Y-110526398D01*
X179886560Y-110466288D01*
X179835707Y-110415079D01*
X179775877Y-110374723D01*
X179709347Y-110346756D01*
X179638653Y-110332245D01*
X179591123Y-110331913D01*
X179468016Y-110208806D01*
X179468016Y-92063916D01*
X179453999Y-91993122D01*
X179426497Y-91926398D01*
X179386560Y-91866288D01*
X179335707Y-91815079D01*
X179275877Y-91774723D01*
X179209347Y-91746756D01*
X179138653Y-91732245D01*
X179066486Y-91731741D01*
X178995595Y-91745264D01*
X178928682Y-91772299D01*
X178868294Y-91811816D01*
X178816731Y-91862309D01*
X178775958Y-91921857D01*
X178747528Y-91988189D01*
X178732524Y-92058781D01*
X178731516Y-92130942D01*
X178744544Y-92201925D01*
X178771111Y-92269026D01*
X178810205Y-92329689D01*
X178846000Y-92366754D01*
X178846000Y-96994790D01*
X178020395Y-97820395D01*
X178005488Y-97838541D01*
X177990421Y-97856498D01*
X177989778Y-97857667D01*
X177988929Y-97858701D01*
X177977808Y-97879440D01*
X177966540Y-97899939D01*
X177966137Y-97901207D01*
X177965504Y-97902389D01*
X177958623Y-97924894D01*
X177951551Y-97947190D01*
X177951402Y-97948514D01*
X177951011Y-97949795D01*
X177948638Y-97973159D01*
X177946025Y-97996454D01*
X177946006Y-97999067D01*
X177946002Y-97999113D01*
X177946005Y-97999154D01*
X177946000Y-98000000D01*
X177946000Y-99033647D01*
X177916731Y-99062309D01*
X177875958Y-99121857D01*
X177847528Y-99188189D01*
X177832524Y-99258781D01*
X177831516Y-99330942D01*
X177844544Y-99401925D01*
X177871111Y-99469026D01*
X177910205Y-99529689D01*
X177960338Y-99581602D01*
X178019599Y-99622790D01*
X178085731Y-99651683D01*
X178156216Y-99667180D01*
X178228369Y-99668691D01*
X178299441Y-99656159D01*
X178366726Y-99630061D01*
X178427660Y-99591391D01*
X178479922Y-99541623D01*
X178521523Y-99482650D01*
X178550876Y-99416721D01*
X178566865Y-99346346D01*
X178568016Y-99263916D01*
X178553999Y-99193122D01*
X178526497Y-99126398D01*
X178486560Y-99066288D01*
X178454000Y-99033500D01*
X178454000Y-98105210D01*
X179279605Y-97279605D01*
X179294511Y-97261458D01*
X179309579Y-97243502D01*
X179310221Y-97242332D01*
X179311071Y-97241299D01*
X179322191Y-97220559D01*
X179333460Y-97200061D01*
X179333862Y-97198792D01*
X179334496Y-97197611D01*
X179341363Y-97175147D01*
X179348449Y-97152810D01*
X179348598Y-97151480D01*
X179348988Y-97150205D01*
X179351356Y-97126890D01*
X179353975Y-97103546D01*
X179353993Y-97100931D01*
X179353998Y-97100887D01*
X179353994Y-97100845D01*
X179354000Y-97100000D01*
X179354000Y-92366307D01*
X179379922Y-92341623D01*
X179421523Y-92282650D01*
X179450876Y-92216721D01*
X179466865Y-92146346D01*
X179468016Y-92063916D01*
X179468016Y-110208806D01*
X179279605Y-110020395D01*
X179261458Y-110005488D01*
X179243502Y-109990421D01*
X179242332Y-109989778D01*
X179241299Y-109988929D01*
X179220559Y-109977808D01*
X179200061Y-109966540D01*
X179198792Y-109966137D01*
X179197611Y-109965504D01*
X179175105Y-109958623D01*
X179152810Y-109951551D01*
X179151485Y-109951402D01*
X179150205Y-109951011D01*
X179126840Y-109948638D01*
X179103546Y-109946025D01*
X179100932Y-109946006D01*
X179100887Y-109946002D01*
X179100845Y-109946005D01*
X179100000Y-109946000D01*
X178268016Y-109946000D01*
X178268016Y-103463916D01*
X178253999Y-103393122D01*
X178226497Y-103326398D01*
X178186560Y-103266288D01*
X178135707Y-103215079D01*
X178075877Y-103174723D01*
X178009347Y-103146756D01*
X177938653Y-103132245D01*
X177866486Y-103131741D01*
X177795595Y-103145264D01*
X177728682Y-103172299D01*
X177668294Y-103211816D01*
X177654000Y-103225813D01*
X177654000Y-102200000D01*
X177651706Y-102176603D01*
X177649666Y-102153276D01*
X177649293Y-102151993D01*
X177649163Y-102150664D01*
X177642373Y-102128175D01*
X177635835Y-102105672D01*
X177635221Y-102104488D01*
X177634835Y-102103208D01*
X177623804Y-102082462D01*
X177613022Y-102061662D01*
X177612189Y-102060619D01*
X177611562Y-102059439D01*
X177596698Y-102041214D01*
X177582094Y-102022920D01*
X177580264Y-102021063D01*
X177580231Y-102021023D01*
X177580193Y-102020991D01*
X177579605Y-102020395D01*
X177067397Y-101508187D01*
X177068016Y-101463916D01*
X177053999Y-101393122D01*
X177026497Y-101326398D01*
X176986560Y-101266288D01*
X176935707Y-101215079D01*
X176875877Y-101174723D01*
X176809347Y-101146756D01*
X176738653Y-101132245D01*
X176666486Y-101131741D01*
X176595595Y-101145264D01*
X176528682Y-101172299D01*
X176468294Y-101211816D01*
X176433385Y-101246000D01*
X176365210Y-101246000D01*
X175268016Y-100148806D01*
X175268016Y-87563916D01*
X175253999Y-87493122D01*
X175226497Y-87426398D01*
X175186560Y-87366288D01*
X175135707Y-87315079D01*
X175075877Y-87274723D01*
X175009347Y-87246756D01*
X174938653Y-87232245D01*
X174866486Y-87231741D01*
X174795595Y-87245264D01*
X174728682Y-87272299D01*
X174668294Y-87311816D01*
X174616731Y-87362309D01*
X174575958Y-87421857D01*
X174547528Y-87488189D01*
X174532524Y-87558781D01*
X174531516Y-87630942D01*
X174544544Y-87701925D01*
X174571111Y-87769026D01*
X174610205Y-87829689D01*
X174660338Y-87881602D01*
X174719599Y-87922790D01*
X174785731Y-87951683D01*
X174856216Y-87967180D01*
X174928369Y-87968691D01*
X174999441Y-87956159D01*
X175066726Y-87930061D01*
X175127660Y-87891391D01*
X175179922Y-87841623D01*
X175221523Y-87782650D01*
X175250876Y-87716721D01*
X175266865Y-87646346D01*
X175268016Y-87563916D01*
X175268016Y-100148806D01*
X174815829Y-99696619D01*
X174918066Y-99507538D01*
X174987696Y-99282601D01*
X175012309Y-99048423D01*
X175007500Y-98995580D01*
X175007500Y-97534861D01*
X175007500Y-97497139D01*
X175007500Y-96548375D01*
X175007500Y-96451625D01*
X175007500Y-95502861D01*
X175007500Y-95465139D01*
X175000141Y-95428141D01*
X174985705Y-95393291D01*
X174964748Y-95361926D01*
X174938074Y-95335252D01*
X174906709Y-95314295D01*
X174871858Y-95299859D01*
X174834861Y-95292500D01*
X173968016Y-95292500D01*
X173968016Y-86363916D01*
X173953999Y-86293122D01*
X173926497Y-86226398D01*
X173886560Y-86166288D01*
X173835707Y-86115079D01*
X173775877Y-86074723D01*
X173709347Y-86046756D01*
X173638653Y-86032245D01*
X173566486Y-86031741D01*
X173495595Y-86045264D01*
X173428682Y-86072299D01*
X173368294Y-86111816D01*
X173316731Y-86162309D01*
X173275958Y-86221857D01*
X173247528Y-86288189D01*
X173232524Y-86358781D01*
X173231516Y-86430942D01*
X173244544Y-86501925D01*
X173271111Y-86569026D01*
X173310205Y-86629689D01*
X173360338Y-86681602D01*
X173419599Y-86722790D01*
X173485731Y-86751683D01*
X173556216Y-86767180D01*
X173628369Y-86768691D01*
X173699441Y-86756159D01*
X173766726Y-86730061D01*
X173827660Y-86691391D01*
X173879922Y-86641623D01*
X173921523Y-86582650D01*
X173950876Y-86516721D01*
X173966865Y-86446346D01*
X173968016Y-86363916D01*
X173968016Y-95292500D01*
X173848375Y-95292500D01*
X173800500Y-95340375D01*
X173800500Y-96499500D01*
X174959625Y-96499500D01*
X175007500Y-96451625D01*
X175007500Y-96548375D01*
X174959625Y-96500500D01*
X173800500Y-96500500D01*
X173800500Y-97659625D01*
X173848375Y-97707500D01*
X174834861Y-97707500D01*
X174871858Y-97700141D01*
X174906709Y-97685705D01*
X174938074Y-97664748D01*
X174964748Y-97638074D01*
X174985705Y-97606709D01*
X175000141Y-97571859D01*
X175007500Y-97534861D01*
X175007500Y-98995580D01*
X174990968Y-98813924D01*
X174924485Y-98588037D01*
X174815394Y-98379365D01*
X174667849Y-98195856D01*
X174487471Y-98044501D01*
X174281129Y-97931063D01*
X174056683Y-97859865D01*
X173822683Y-97833618D01*
X173805838Y-97833500D01*
X173799500Y-97833500D01*
X173799500Y-97659625D01*
X173799500Y-96500500D01*
X173799500Y-96499500D01*
X173799500Y-95340375D01*
X173751625Y-95292500D01*
X172765139Y-95292500D01*
X172728142Y-95299859D01*
X172693291Y-95314295D01*
X172661926Y-95335252D01*
X172635252Y-95361926D01*
X172614295Y-95393291D01*
X172599859Y-95428141D01*
X172592500Y-95465139D01*
X172592500Y-95502861D01*
X172592500Y-96451625D01*
X172640375Y-96499500D01*
X173799500Y-96499500D01*
X173799500Y-96500500D01*
X172640375Y-96500500D01*
X172592500Y-96548375D01*
X172592500Y-97497139D01*
X172592500Y-97534861D01*
X172599859Y-97571859D01*
X172614295Y-97606709D01*
X172635252Y-97638074D01*
X172661926Y-97664748D01*
X172693291Y-97685705D01*
X172728142Y-97700141D01*
X172765139Y-97707500D01*
X173751625Y-97707500D01*
X173799500Y-97659625D01*
X173799500Y-97833500D01*
X173794162Y-97833500D01*
X173559818Y-97856478D01*
X173334401Y-97924535D01*
X173126495Y-98035081D01*
X172944021Y-98183903D01*
X172793928Y-98365334D01*
X172681934Y-98572462D01*
X172612304Y-98797399D01*
X172587691Y-99031577D01*
X172609032Y-99266076D01*
X172675515Y-99491963D01*
X172784606Y-99700635D01*
X172932151Y-99884144D01*
X173112529Y-100035499D01*
X173318871Y-100148937D01*
X173543317Y-100220135D01*
X173777317Y-100246382D01*
X173794162Y-100246500D01*
X173805838Y-100246500D01*
X174040182Y-100223522D01*
X174265599Y-100155465D01*
X174455357Y-100054567D01*
X176080395Y-101679605D01*
X176098514Y-101694488D01*
X176116498Y-101709579D01*
X176117670Y-101710223D01*
X176118701Y-101711070D01*
X176139367Y-101722150D01*
X176159939Y-101733460D01*
X176161211Y-101733863D01*
X176162389Y-101734495D01*
X176184819Y-101741352D01*
X176207190Y-101748449D01*
X176208518Y-101748598D01*
X176209794Y-101748988D01*
X176233114Y-101751356D01*
X176256454Y-101753975D01*
X176259068Y-101753993D01*
X176259113Y-101753998D01*
X176259154Y-101753994D01*
X176260000Y-101754000D01*
X176433682Y-101754000D01*
X176460338Y-101781602D01*
X176519599Y-101822790D01*
X176585731Y-101851683D01*
X176656216Y-101867180D01*
X176709076Y-101868286D01*
X177146000Y-102305210D01*
X177146000Y-108733647D01*
X177116731Y-108762309D01*
X177075958Y-108821857D01*
X177047528Y-108888189D01*
X177032524Y-108958781D01*
X177031516Y-109030942D01*
X177044544Y-109101925D01*
X177071111Y-109169026D01*
X177110205Y-109229689D01*
X177160338Y-109281602D01*
X177219599Y-109322790D01*
X177285731Y-109351683D01*
X177356216Y-109367180D01*
X177428369Y-109368691D01*
X177499441Y-109356159D01*
X177566726Y-109330061D01*
X177627660Y-109291391D01*
X177679922Y-109241623D01*
X177721523Y-109182650D01*
X177750876Y-109116721D01*
X177766865Y-109046346D01*
X177768016Y-108963916D01*
X177753999Y-108893122D01*
X177726497Y-108826398D01*
X177686560Y-108766288D01*
X177654000Y-108733500D01*
X177654000Y-103775038D01*
X177660338Y-103781602D01*
X177719599Y-103822790D01*
X177785731Y-103851683D01*
X177856216Y-103867180D01*
X177928369Y-103868691D01*
X177999441Y-103856159D01*
X178066726Y-103830061D01*
X178127660Y-103791391D01*
X178179922Y-103741623D01*
X178221523Y-103682650D01*
X178250876Y-103616721D01*
X178266865Y-103546346D01*
X178268016Y-103463916D01*
X178268016Y-109946000D01*
X177505210Y-109946000D01*
X176654000Y-109094790D01*
X176654000Y-106250000D01*
X176651706Y-106226603D01*
X176649666Y-106203276D01*
X176649293Y-106201993D01*
X176649163Y-106200664D01*
X176642373Y-106178175D01*
X176635835Y-106155672D01*
X176635221Y-106154488D01*
X176634835Y-106153208D01*
X176623804Y-106132462D01*
X176613022Y-106111662D01*
X176612189Y-106110619D01*
X176611562Y-106109439D01*
X176596723Y-106091245D01*
X176582095Y-106072920D01*
X176580263Y-106071062D01*
X176580231Y-106071023D01*
X176580194Y-106070992D01*
X176579605Y-106070395D01*
X173867397Y-103358187D01*
X173868016Y-103313916D01*
X173853999Y-103243122D01*
X173826497Y-103176398D01*
X173786560Y-103116288D01*
X173735707Y-103065079D01*
X173675877Y-103024723D01*
X173609347Y-102996756D01*
X173538653Y-102982245D01*
X173466486Y-102981741D01*
X173395595Y-102995264D01*
X173328682Y-103022299D01*
X173268294Y-103061816D01*
X173216731Y-103112309D01*
X173175958Y-103171857D01*
X173147528Y-103238189D01*
X173132524Y-103308781D01*
X173131516Y-103380942D01*
X173144544Y-103451925D01*
X173171111Y-103519026D01*
X173210205Y-103579689D01*
X173260338Y-103631602D01*
X173319599Y-103672790D01*
X173385731Y-103701683D01*
X173456216Y-103717180D01*
X173509076Y-103718286D01*
X176146000Y-106355210D01*
X176146000Y-109200000D01*
X176148289Y-109223355D01*
X176150334Y-109246723D01*
X176150706Y-109248005D01*
X176150837Y-109249336D01*
X176157634Y-109271850D01*
X176164165Y-109294327D01*
X176164777Y-109295508D01*
X176165165Y-109296792D01*
X176176205Y-109317555D01*
X176186978Y-109338338D01*
X176187810Y-109339380D01*
X176188438Y-109340561D01*
X176203276Y-109358754D01*
X176217905Y-109377080D01*
X176219736Y-109378937D01*
X176219769Y-109378977D01*
X176219805Y-109379007D01*
X176220395Y-109379605D01*
X177220395Y-110379605D01*
X177238541Y-110394511D01*
X177256498Y-110409579D01*
X177257667Y-110410221D01*
X177258701Y-110411071D01*
X177279440Y-110422191D01*
X177299939Y-110433460D01*
X177301207Y-110433862D01*
X177302389Y-110434496D01*
X177324894Y-110441376D01*
X177347190Y-110448449D01*
X177348514Y-110448597D01*
X177349795Y-110448989D01*
X177373199Y-110451366D01*
X177396454Y-110453975D01*
X177399058Y-110453993D01*
X177399114Y-110453999D01*
X177399165Y-110453994D01*
X177400000Y-110454000D01*
X178994790Y-110454000D01*
X179232070Y-110691280D01*
X179231516Y-110730942D01*
X179244544Y-110801925D01*
X179271111Y-110869026D01*
X179310205Y-110929689D01*
X179360338Y-110981602D01*
X179419599Y-111022790D01*
X179485731Y-111051683D01*
X179556216Y-111067180D01*
X179628369Y-111068691D01*
X179699441Y-111056159D01*
X179766726Y-111030061D01*
X179827660Y-110991391D01*
X179879922Y-110941623D01*
X179921523Y-110882650D01*
X179950876Y-110816721D01*
X179966865Y-110746346D01*
X179968016Y-110663916D01*
X179968016Y-111346000D01*
X174266413Y-111346000D01*
X174235707Y-111315079D01*
X174175877Y-111274723D01*
X174109347Y-111246756D01*
X174038653Y-111232245D01*
X173966486Y-111231741D01*
X173895595Y-111245264D01*
X173828682Y-111272299D01*
X173768294Y-111311816D01*
X173716731Y-111362309D01*
X173675958Y-111421857D01*
X173647528Y-111488189D01*
X173632524Y-111558781D01*
X173631516Y-111630942D01*
X173644544Y-111701925D01*
X173671111Y-111769026D01*
X173710205Y-111829689D01*
X173760338Y-111881602D01*
X173819599Y-111922790D01*
X173885731Y-111951683D01*
X173956216Y-111967180D01*
X174028369Y-111968691D01*
X174099441Y-111956159D01*
X174166726Y-111930061D01*
X174227660Y-111891391D01*
X174266924Y-111854000D01*
X180500000Y-111854000D01*
X180523355Y-111851710D01*
X180546723Y-111849666D01*
X180548005Y-111849293D01*
X180549336Y-111849163D01*
X180571850Y-111842365D01*
X180594327Y-111835835D01*
X180595508Y-111835222D01*
X180596792Y-111834835D01*
X180617555Y-111823794D01*
X180638338Y-111813022D01*
X180639380Y-111812189D01*
X180640561Y-111811562D01*
X180658754Y-111796723D01*
X180677080Y-111782095D01*
X180678937Y-111780263D01*
X180678977Y-111780231D01*
X180679007Y-111780194D01*
X180679605Y-111779605D01*
X181146000Y-111313210D01*
X181146000Y-111594790D01*
X180094790Y-112646000D01*
X175064468Y-112646000D01*
X175053999Y-112593122D01*
X175026497Y-112526398D01*
X174986560Y-112466288D01*
X174935707Y-112415079D01*
X174875877Y-112374723D01*
X174809347Y-112346756D01*
X174738653Y-112332245D01*
X174666486Y-112331741D01*
X174595595Y-112345264D01*
X174528682Y-112372299D01*
X174468294Y-112411816D01*
X174416731Y-112462309D01*
X174375958Y-112521857D01*
X174347528Y-112588189D01*
X174332524Y-112658781D01*
X174331516Y-112730942D01*
X174344544Y-112801925D01*
X174371111Y-112869026D01*
X174410205Y-112929689D01*
X174460338Y-112981602D01*
X174519599Y-113022790D01*
X174585731Y-113051683D01*
X174656216Y-113067180D01*
X174709076Y-113068286D01*
X174720395Y-113079605D01*
X174738541Y-113094511D01*
X174756498Y-113109579D01*
X174757667Y-113110221D01*
X174758701Y-113111071D01*
X174779440Y-113122191D01*
X174799939Y-113133460D01*
X174801207Y-113133862D01*
X174802389Y-113134496D01*
X174824894Y-113141376D01*
X174847190Y-113148449D01*
X174848514Y-113148597D01*
X174849795Y-113148989D01*
X174873203Y-113151366D01*
X174896454Y-113153975D01*
X174899057Y-113153993D01*
X174899113Y-113153999D01*
X174899164Y-113153994D01*
X174900000Y-113154000D01*
X180200000Y-113154000D01*
X180223355Y-113151710D01*
X180246723Y-113149666D01*
X180248005Y-113149293D01*
X180249336Y-113149163D01*
X180271850Y-113142365D01*
X180294327Y-113135835D01*
X180295508Y-113135222D01*
X180296792Y-113134835D01*
X180317555Y-113123794D01*
X180338338Y-113113022D01*
X180339380Y-113112189D01*
X180340561Y-113111562D01*
X180358754Y-113096723D01*
X180377080Y-113082095D01*
X180378937Y-113080263D01*
X180378977Y-113080231D01*
X180379007Y-113080194D01*
X180379605Y-113079605D01*
X181579605Y-111879605D01*
X181594488Y-111861485D01*
X181609579Y-111843502D01*
X181610223Y-111842329D01*
X181611070Y-111841299D01*
X181622170Y-111820597D01*
X181633460Y-111800061D01*
X181633862Y-111798792D01*
X181634496Y-111797611D01*
X181641363Y-111775147D01*
X181648449Y-111752810D01*
X181648598Y-111751480D01*
X181648988Y-111750205D01*
X181651356Y-111726890D01*
X181653975Y-111703546D01*
X181653993Y-111700931D01*
X181653998Y-111700887D01*
X181653994Y-111700845D01*
X181654000Y-111700000D01*
X181654000Y-91966307D01*
X181679922Y-91941623D01*
X181721523Y-91882650D01*
X181750876Y-91816721D01*
X181766865Y-91746346D01*
X181768016Y-91663916D01*
X181753999Y-91593122D01*
X181726497Y-91526398D01*
X181686560Y-91466288D01*
X181635707Y-91415079D01*
X181575877Y-91374723D01*
X181511534Y-91347675D01*
X181591295Y-91267914D01*
X181628369Y-91268691D01*
X181699441Y-91256159D01*
X181766726Y-91230061D01*
X181827660Y-91191391D01*
X181879922Y-91141623D01*
X181921523Y-91082650D01*
X181932865Y-91057173D01*
X181932524Y-91058781D01*
X181931516Y-91130942D01*
X181944544Y-91201925D01*
X181971111Y-91269026D01*
X182010205Y-91329689D01*
X182060338Y-91381602D01*
X182119599Y-91422790D01*
X182185731Y-91451683D01*
X182256216Y-91467180D01*
X182328369Y-91468691D01*
X182399441Y-91456159D01*
X182466726Y-91430061D01*
X182527660Y-91391391D01*
X182579922Y-91341623D01*
X182621523Y-91282650D01*
X182650876Y-91216721D01*
X182666865Y-91146346D01*
X182668016Y-91063916D01*
X182668016Y-115336500D01*
X181668016Y-115336500D01*
X181668016Y-113163916D01*
X181653999Y-113093122D01*
X181626497Y-113026398D01*
X181586560Y-112966288D01*
X181535707Y-112915079D01*
X181475877Y-112874723D01*
X181409347Y-112846756D01*
X181338653Y-112832245D01*
X181266486Y-112831741D01*
X181195595Y-112845264D01*
X181128682Y-112872299D01*
X181068294Y-112911816D01*
X181016731Y-112962309D01*
X180975958Y-113021857D01*
X180947528Y-113088189D01*
X180932524Y-113158781D01*
X180931516Y-113230942D01*
X180944544Y-113301925D01*
X180971111Y-113369026D01*
X181010205Y-113429689D01*
X181060338Y-113481602D01*
X181119599Y-113522790D01*
X181185731Y-113551683D01*
X181256216Y-113567180D01*
X181328369Y-113568691D01*
X181399441Y-113556159D01*
X181466726Y-113530061D01*
X181527660Y-113491391D01*
X181579922Y-113441623D01*
X181621523Y-113382650D01*
X181650876Y-113316721D01*
X181666865Y-113246346D01*
X181668016Y-113163916D01*
X181668016Y-115336500D01*
X173068016Y-115336500D01*
X173068016Y-109063916D01*
X173053999Y-108993122D01*
X173026497Y-108926398D01*
X172986560Y-108866288D01*
X172935707Y-108815079D01*
X172875877Y-108774723D01*
X172809347Y-108746756D01*
X172738653Y-108732245D01*
X172666486Y-108731741D01*
X172595595Y-108745264D01*
X172528682Y-108772299D01*
X172468294Y-108811816D01*
X172416731Y-108862309D01*
X172375958Y-108921857D01*
X172347528Y-108988189D01*
X172332524Y-109058781D01*
X172331516Y-109130942D01*
X172344544Y-109201925D01*
X172371111Y-109269026D01*
X172410205Y-109329689D01*
X172460338Y-109381602D01*
X172519599Y-109422790D01*
X172585731Y-109451683D01*
X172656216Y-109467180D01*
X172728369Y-109468691D01*
X172799441Y-109456159D01*
X172866726Y-109430061D01*
X172927660Y-109391391D01*
X172979922Y-109341623D01*
X173021523Y-109282650D01*
X173050876Y-109216721D01*
X173066865Y-109146346D01*
X173068016Y-109063916D01*
X173068016Y-115336500D01*
X169368016Y-115336500D01*
X169368016Y-111063916D01*
X169353999Y-110993122D01*
X169326497Y-110926398D01*
X169286560Y-110866288D01*
X169235707Y-110815079D01*
X169175877Y-110774723D01*
X169109347Y-110746756D01*
X169038653Y-110732245D01*
X168966486Y-110731741D01*
X168895595Y-110745264D01*
X168828682Y-110772299D01*
X168768294Y-110811816D01*
X168716731Y-110862309D01*
X168675958Y-110921857D01*
X168647528Y-110988189D01*
X168632524Y-111058781D01*
X168631516Y-111130942D01*
X168644544Y-111201925D01*
X168671111Y-111269026D01*
X168710205Y-111329689D01*
X168760338Y-111381602D01*
X168819599Y-111422790D01*
X168885731Y-111451683D01*
X168956216Y-111467180D01*
X169028369Y-111468691D01*
X169099441Y-111456159D01*
X169166726Y-111430061D01*
X169227660Y-111391391D01*
X169279922Y-111341623D01*
X169321523Y-111282650D01*
X169350876Y-111216721D01*
X169366865Y-111146346D01*
X169368016Y-111063916D01*
X169368016Y-115336500D01*
X168468016Y-115336500D01*
X168468016Y-113963916D01*
X168453999Y-113893122D01*
X168426497Y-113826398D01*
X168386560Y-113766288D01*
X168335707Y-113715079D01*
X168275877Y-113674723D01*
X168209347Y-113646756D01*
X168168016Y-113638272D01*
X168168016Y-110163916D01*
X168153999Y-110093122D01*
X168126497Y-110026398D01*
X168086560Y-109966288D01*
X168035707Y-109915079D01*
X167975877Y-109874723D01*
X167909347Y-109846756D01*
X167838653Y-109832245D01*
X167766486Y-109831741D01*
X167695595Y-109845264D01*
X167628682Y-109872299D01*
X167568294Y-109911816D01*
X167516731Y-109962309D01*
X167475958Y-110021857D01*
X167447528Y-110088189D01*
X167432524Y-110158781D01*
X167431516Y-110230942D01*
X167444544Y-110301925D01*
X167471111Y-110369026D01*
X167510205Y-110429689D01*
X167560338Y-110481602D01*
X167619599Y-110522790D01*
X167685731Y-110551683D01*
X167756216Y-110567180D01*
X167828369Y-110568691D01*
X167899441Y-110556159D01*
X167966726Y-110530061D01*
X168027660Y-110491391D01*
X168079922Y-110441623D01*
X168121523Y-110382650D01*
X168150876Y-110316721D01*
X168166865Y-110246346D01*
X168168016Y-110163916D01*
X168168016Y-113638272D01*
X168138653Y-113632245D01*
X168066486Y-113631741D01*
X167995595Y-113645264D01*
X167928682Y-113672299D01*
X167868294Y-113711816D01*
X167816731Y-113762309D01*
X167775958Y-113821857D01*
X167747528Y-113888189D01*
X167732524Y-113958781D01*
X167731516Y-114030942D01*
X167744544Y-114101925D01*
X167771111Y-114169026D01*
X167810205Y-114229689D01*
X167860338Y-114281602D01*
X167919599Y-114322790D01*
X167985731Y-114351683D01*
X168056216Y-114367180D01*
X168128369Y-114368691D01*
X168199441Y-114356159D01*
X168266726Y-114330061D01*
X168327660Y-114291391D01*
X168379922Y-114241623D01*
X168421523Y-114182650D01*
X168450876Y-114116721D01*
X168466865Y-114046346D01*
X168468016Y-113963916D01*
X168468016Y-115336500D01*
X165168016Y-115336500D01*
X165168016Y-112163916D01*
X165153999Y-112093122D01*
X165126497Y-112026398D01*
X165086560Y-111966288D01*
X165035707Y-111915079D01*
X164975877Y-111874723D01*
X164909347Y-111846756D01*
X164838653Y-111832245D01*
X164766486Y-111831741D01*
X164695595Y-111845264D01*
X164628682Y-111872299D01*
X164568294Y-111911816D01*
X164516731Y-111962309D01*
X164475958Y-112021857D01*
X164447528Y-112088189D01*
X164432524Y-112158781D01*
X164431516Y-112230942D01*
X164444544Y-112301925D01*
X164471111Y-112369026D01*
X164510205Y-112429689D01*
X164560338Y-112481602D01*
X164619599Y-112522790D01*
X164685731Y-112551683D01*
X164756216Y-112567180D01*
X164828369Y-112568691D01*
X164899441Y-112556159D01*
X164966726Y-112530061D01*
X165027660Y-112491391D01*
X165079922Y-112441623D01*
X165121523Y-112382650D01*
X165150876Y-112316721D01*
X165166865Y-112246346D01*
X165168016Y-112163916D01*
X165168016Y-115336500D01*
X164268016Y-115336500D01*
X164268016Y-114763916D01*
X164253999Y-114693122D01*
X164226497Y-114626398D01*
X164186560Y-114566288D01*
X164135707Y-114515079D01*
X164075877Y-114474723D01*
X164009347Y-114446756D01*
X163938653Y-114432245D01*
X163891123Y-114431913D01*
X163579605Y-114120395D01*
X163561458Y-114105488D01*
X163543502Y-114090421D01*
X163542332Y-114089778D01*
X163541299Y-114088929D01*
X163520559Y-114077808D01*
X163500061Y-114066540D01*
X163498792Y-114066137D01*
X163497611Y-114065504D01*
X163475105Y-114058623D01*
X163452810Y-114051551D01*
X163451485Y-114051402D01*
X163450205Y-114051011D01*
X163426840Y-114048638D01*
X163403546Y-114046025D01*
X163400932Y-114046006D01*
X163400887Y-114046002D01*
X163400845Y-114046005D01*
X163400000Y-114046000D01*
X163068016Y-114046000D01*
X163068016Y-109763916D01*
X163053999Y-109693122D01*
X163026497Y-109626398D01*
X162986560Y-109566288D01*
X162935707Y-109515079D01*
X162875877Y-109474723D01*
X162809347Y-109446756D01*
X162738653Y-109432245D01*
X162666486Y-109431741D01*
X162595595Y-109445264D01*
X162528682Y-109472299D01*
X162468294Y-109511816D01*
X162433385Y-109546000D01*
X160566413Y-109546000D01*
X160535707Y-109515079D01*
X160475877Y-109474723D01*
X160409347Y-109446756D01*
X160338653Y-109432245D01*
X160266486Y-109431741D01*
X160195595Y-109445264D01*
X160128682Y-109472299D01*
X160068294Y-109511816D01*
X160016731Y-109562309D01*
X159975958Y-109621857D01*
X159947528Y-109688189D01*
X159932524Y-109758781D01*
X159931516Y-109830942D01*
X159944544Y-109901925D01*
X159971111Y-109969026D01*
X160010205Y-110029689D01*
X160020633Y-110040487D01*
X159995595Y-110045264D01*
X159993773Y-110046000D01*
X156766413Y-110046000D01*
X156735707Y-110015079D01*
X156675877Y-109974723D01*
X156609347Y-109946756D01*
X156538653Y-109932245D01*
X156466486Y-109931741D01*
X156395595Y-109945264D01*
X156328682Y-109972299D01*
X156268294Y-110011816D01*
X156216731Y-110062309D01*
X156175958Y-110121857D01*
X156147528Y-110188189D01*
X156132524Y-110258781D01*
X156131516Y-110330942D01*
X156144544Y-110401925D01*
X156171111Y-110469026D01*
X156210205Y-110529689D01*
X156260338Y-110581602D01*
X156319599Y-110622790D01*
X156372723Y-110646000D01*
X155566413Y-110646000D01*
X155535707Y-110615079D01*
X155475877Y-110574723D01*
X155409347Y-110546756D01*
X155338653Y-110532245D01*
X155266486Y-110531741D01*
X155195595Y-110545264D01*
X155128682Y-110572299D01*
X155068294Y-110611816D01*
X155016731Y-110662309D01*
X154975958Y-110721857D01*
X154947528Y-110788189D01*
X154932524Y-110858781D01*
X154931516Y-110930942D01*
X154944544Y-111001925D01*
X154971111Y-111069026D01*
X155010205Y-111129689D01*
X155060338Y-111181602D01*
X155119599Y-111222790D01*
X155185731Y-111251683D01*
X155256216Y-111267180D01*
X155328369Y-111268691D01*
X155399441Y-111256159D01*
X155466726Y-111230061D01*
X155527660Y-111191391D01*
X155566924Y-111154000D01*
X161465161Y-111154000D01*
X161471111Y-111169026D01*
X161510205Y-111229689D01*
X161560338Y-111281602D01*
X161619599Y-111322790D01*
X161685731Y-111351683D01*
X161756216Y-111367180D01*
X161828369Y-111368691D01*
X161899441Y-111356159D01*
X161966726Y-111330061D01*
X162027660Y-111291391D01*
X162079922Y-111241623D01*
X162121523Y-111182650D01*
X162150876Y-111116721D01*
X162166865Y-111046346D01*
X162168016Y-110963916D01*
X162153999Y-110893122D01*
X162126497Y-110826398D01*
X162086560Y-110766288D01*
X162035707Y-110715079D01*
X161975877Y-110674723D01*
X161909347Y-110646756D01*
X161838653Y-110632245D01*
X161766486Y-110631741D01*
X161695595Y-110645264D01*
X161693773Y-110646000D01*
X160375325Y-110646000D01*
X160379922Y-110641623D01*
X160421523Y-110582650D01*
X160450876Y-110516721D01*
X160466865Y-110446346D01*
X160468016Y-110363916D01*
X160453999Y-110293122D01*
X160426497Y-110226398D01*
X160386560Y-110166288D01*
X160379919Y-110159601D01*
X160399441Y-110156159D01*
X160466726Y-110130061D01*
X160527660Y-110091391D01*
X160566924Y-110054000D01*
X162433682Y-110054000D01*
X162460338Y-110081602D01*
X162519599Y-110122790D01*
X162585731Y-110151683D01*
X162656216Y-110167180D01*
X162728369Y-110168691D01*
X162799441Y-110156159D01*
X162866726Y-110130061D01*
X162927660Y-110091391D01*
X162979922Y-110041623D01*
X163021523Y-109982650D01*
X163050876Y-109916721D01*
X163066865Y-109846346D01*
X163068016Y-109763916D01*
X163068016Y-114046000D01*
X159905210Y-114046000D01*
X159167397Y-113308187D01*
X159168016Y-113263916D01*
X159153999Y-113193122D01*
X159126497Y-113126398D01*
X159086560Y-113066288D01*
X159035707Y-113015079D01*
X158975877Y-112974723D01*
X158909347Y-112946756D01*
X158838653Y-112932245D01*
X158766486Y-112931741D01*
X158695595Y-112945264D01*
X158628682Y-112972299D01*
X158568294Y-113011816D01*
X158516731Y-113062309D01*
X158475958Y-113121857D01*
X158449790Y-113182910D01*
X158426497Y-113126398D01*
X158386560Y-113066288D01*
X158335707Y-113015079D01*
X158275877Y-112974723D01*
X158209347Y-112946756D01*
X158138653Y-112932245D01*
X158066486Y-112931741D01*
X157995595Y-112945264D01*
X157928682Y-112972299D01*
X157868294Y-113011816D01*
X157816731Y-113062309D01*
X157775958Y-113121857D01*
X157747528Y-113188189D01*
X157732524Y-113258781D01*
X157731516Y-113330942D01*
X157744544Y-113401925D01*
X157771111Y-113469026D01*
X157810205Y-113529689D01*
X157860338Y-113581602D01*
X157919599Y-113622790D01*
X157985731Y-113651683D01*
X158056216Y-113667180D01*
X158109076Y-113668286D01*
X159420395Y-114979605D01*
X159438514Y-114994488D01*
X159456498Y-115009579D01*
X159457670Y-115010223D01*
X159458701Y-115011070D01*
X159479367Y-115022150D01*
X159499939Y-115033460D01*
X159501211Y-115033863D01*
X159502389Y-115034495D01*
X159524819Y-115041352D01*
X159547190Y-115048449D01*
X159548518Y-115048598D01*
X159549794Y-115048988D01*
X159573114Y-115051356D01*
X159596454Y-115053975D01*
X159599068Y-115053993D01*
X159599113Y-115053998D01*
X159599154Y-115053994D01*
X159600000Y-115054000D01*
X162633682Y-115054000D01*
X162660338Y-115081602D01*
X162719599Y-115122790D01*
X162785731Y-115151683D01*
X162856216Y-115167180D01*
X162928369Y-115168691D01*
X162999441Y-115156159D01*
X163066726Y-115130061D01*
X163127660Y-115091391D01*
X163179922Y-115041623D01*
X163221523Y-114982650D01*
X163250876Y-114916721D01*
X163266865Y-114846346D01*
X163268016Y-114763916D01*
X163253999Y-114693122D01*
X163226497Y-114626398D01*
X163186560Y-114566288D01*
X163174357Y-114554000D01*
X163294790Y-114554000D01*
X163532070Y-114791280D01*
X163531516Y-114830942D01*
X163544544Y-114901925D01*
X163571111Y-114969026D01*
X163610205Y-115029689D01*
X163660338Y-115081602D01*
X163719599Y-115122790D01*
X163785731Y-115151683D01*
X163856216Y-115167180D01*
X163928369Y-115168691D01*
X163999441Y-115156159D01*
X164066726Y-115130061D01*
X164127660Y-115091391D01*
X164179922Y-115041623D01*
X164221523Y-114982650D01*
X164250876Y-114916721D01*
X164266865Y-114846346D01*
X164268016Y-114763916D01*
X164268016Y-115336500D01*
X154968016Y-115336500D01*
X154968016Y-114163916D01*
X154953999Y-114093122D01*
X154926497Y-114026398D01*
X154886560Y-113966288D01*
X154835707Y-113915079D01*
X154775877Y-113874723D01*
X154709347Y-113846756D01*
X154638653Y-113832245D01*
X154566486Y-113831741D01*
X154495595Y-113845264D01*
X154428682Y-113872299D01*
X154368294Y-113911816D01*
X154316731Y-113962309D01*
X154275958Y-114021857D01*
X154247528Y-114088189D01*
X154232524Y-114158781D01*
X154231516Y-114230942D01*
X154244544Y-114301925D01*
X154271111Y-114369026D01*
X154310205Y-114429689D01*
X154360338Y-114481602D01*
X154419599Y-114522790D01*
X154485731Y-114551683D01*
X154556216Y-114567180D01*
X154628369Y-114568691D01*
X154699441Y-114556159D01*
X154766726Y-114530061D01*
X154827660Y-114491391D01*
X154879922Y-114441623D01*
X154921523Y-114382650D01*
X154950876Y-114316721D01*
X154966865Y-114246346D01*
X154968016Y-114163916D01*
X154968016Y-115336500D01*
X152907422Y-115336500D01*
X152907422Y-110216000D01*
X152907422Y-108184000D01*
X152904909Y-108153087D01*
X152888868Y-108101788D01*
X152859198Y-108056970D01*
X152818238Y-108022167D01*
X152769217Y-108000124D01*
X152716000Y-107992578D01*
X150684000Y-107992578D01*
X150653087Y-107995091D01*
X150601788Y-108011132D01*
X150556970Y-108040802D01*
X150522167Y-108081762D01*
X150500124Y-108130783D01*
X150492578Y-108184000D01*
X150492578Y-110216000D01*
X150495091Y-110246913D01*
X150511132Y-110298212D01*
X150540802Y-110343030D01*
X150581762Y-110377833D01*
X150630783Y-110399876D01*
X150684000Y-110407422D01*
X152716000Y-110407422D01*
X152746913Y-110404909D01*
X152798212Y-110388868D01*
X152843030Y-110359198D01*
X152877833Y-110318238D01*
X152899876Y-110269217D01*
X152907422Y-110216000D01*
X152907422Y-115336500D01*
X152892555Y-115336500D01*
X152892555Y-111929388D01*
X152892555Y-111550612D01*
X152874253Y-111458601D01*
X152796792Y-111234923D01*
X152677182Y-111030654D01*
X152520019Y-110853645D01*
X152331343Y-110710698D01*
X152118405Y-110607307D01*
X151889388Y-110547445D01*
X151700500Y-110580375D01*
X151700500Y-111739500D01*
X152859625Y-111739500D01*
X152892555Y-111550612D01*
X152892555Y-111929388D01*
X152859625Y-111740500D01*
X151700500Y-111740500D01*
X151700500Y-112899625D01*
X151889388Y-112932555D01*
X152118405Y-112872693D01*
X152331343Y-112769302D01*
X152520019Y-112626355D01*
X152677182Y-112449346D01*
X152796792Y-112245077D01*
X152874253Y-112021399D01*
X152892555Y-111929388D01*
X152892555Y-115336500D01*
X151699500Y-115336500D01*
X151699500Y-112899625D01*
X151699500Y-111740500D01*
X151699500Y-111739500D01*
X151699500Y-110580375D01*
X151510612Y-110547445D01*
X151281595Y-110607307D01*
X151068657Y-110710698D01*
X150879981Y-110853645D01*
X150722818Y-111030654D01*
X150603208Y-111234923D01*
X150525747Y-111458601D01*
X150507445Y-111550612D01*
X150540375Y-111739500D01*
X151699500Y-111739500D01*
X151699500Y-111740500D01*
X150540375Y-111740500D01*
X150507445Y-111929388D01*
X150525747Y-112021399D01*
X150603208Y-112245077D01*
X150722818Y-112449346D01*
X150879981Y-112626355D01*
X151068657Y-112769302D01*
X151281595Y-112872693D01*
X151510612Y-112932555D01*
X151699500Y-112899625D01*
X151699500Y-115336500D01*
X150659916Y-115336500D01*
X150440500Y-111561545D01*
X150440500Y-107940500D01*
X170962573Y-107940500D01*
X172563500Y-108594537D01*
X172563500Y-81063500D01*
X173600000Y-81063500D01*
X184836500Y-81063500D01*
X184836500Y-115336500D01*
X184836500Y-115336500D01*
G37*
X184836500Y-115336500D02*
X184553986Y-115336500D01*
X184553986Y-85802660D01*
X184549666Y-85753277D01*
X184535835Y-85705673D01*
X184513023Y-85661663D01*
X184482095Y-85622920D01*
X184479605Y-85620395D01*
X184435240Y-85576030D01*
X184396934Y-85544564D01*
X184353246Y-85521139D01*
X184305840Y-85506646D01*
X184256522Y-85501637D01*
X184207169Y-85506301D01*
X184168016Y-85517973D01*
X184168016Y-84563916D01*
X184153999Y-84493122D01*
X184126497Y-84426398D01*
X184086560Y-84366288D01*
X184035707Y-84315079D01*
X183975877Y-84274723D01*
X183909347Y-84246756D01*
X183838653Y-84232245D01*
X183766486Y-84231741D01*
X183695595Y-84245264D01*
X183628682Y-84272299D01*
X183568294Y-84311816D01*
X183516731Y-84362309D01*
X183475958Y-84421857D01*
X183447528Y-84488189D01*
X183432524Y-84558781D01*
X183431516Y-84630942D01*
X183444544Y-84701925D01*
X183471111Y-84769026D01*
X183510205Y-84829689D01*
X183560338Y-84881602D01*
X183619599Y-84922790D01*
X183685731Y-84951683D01*
X183756216Y-84967180D01*
X183828369Y-84968691D01*
X183899441Y-84956159D01*
X183966726Y-84930061D01*
X184027660Y-84891391D01*
X184079922Y-84841623D01*
X184121523Y-84782650D01*
X184150876Y-84716721D01*
X184166865Y-84646346D01*
X184168016Y-84563916D01*
X184168016Y-85517973D01*
X184159664Y-85520464D01*
X184115813Y-85543584D01*
X184077288Y-85574780D01*
X184045556Y-85612866D01*
X184021827Y-85656389D01*
X184007003Y-85703693D01*
X184001649Y-85752975D01*
X184005969Y-85802358D01*
X184019800Y-85849962D01*
X184042613Y-85893973D01*
X184073540Y-85932715D01*
X184076030Y-85935240D01*
X184120395Y-85979605D01*
X184158701Y-86011071D01*
X184202389Y-86034496D01*
X184249795Y-86048989D01*
X184299114Y-86053999D01*
X184348466Y-86049334D01*
X184395972Y-86035171D01*
X184439822Y-86012052D01*
X184478347Y-85980855D01*
X184510079Y-85942769D01*
X184533809Y-85899246D01*
X184548632Y-85851942D01*
X184553986Y-85802660D01*
X184553986Y-115336500D01*
X184168016Y-115336500D01*
X184168016Y-113963916D01*
X184153999Y-113893122D01*
X184126497Y-113826398D01*
X184086560Y-113766288D01*
X184035707Y-113715079D01*
X183975877Y-113674723D01*
X183909347Y-113646756D01*
X183868016Y-113638272D01*
X183868016Y-88463916D01*
X183853999Y-88393122D01*
X183826497Y-88326398D01*
X183786560Y-88266288D01*
X183735707Y-88215079D01*
X183675877Y-88174723D01*
X183609347Y-88146756D01*
X183568016Y-88138272D01*
X183568016Y-85063916D01*
X183553999Y-84993122D01*
X183526497Y-84926398D01*
X183486560Y-84866288D01*
X183435707Y-84815079D01*
X183375877Y-84774723D01*
X183309347Y-84746756D01*
X183238653Y-84732245D01*
X183166486Y-84731741D01*
X183095595Y-84745264D01*
X183028682Y-84772299D01*
X182968294Y-84811816D01*
X182916731Y-84862309D01*
X182875958Y-84921857D01*
X182849790Y-84982910D01*
X182826497Y-84926398D01*
X182786560Y-84866288D01*
X182735707Y-84815079D01*
X182675877Y-84774723D01*
X182609347Y-84746756D01*
X182538653Y-84732245D01*
X182466486Y-84731741D01*
X182395595Y-84745264D01*
X182328682Y-84772299D01*
X182268294Y-84811816D01*
X182216731Y-84862309D01*
X182175958Y-84921857D01*
X182147528Y-84988189D01*
X182132524Y-85058781D01*
X182131516Y-85130942D01*
X182144544Y-85201925D01*
X182171111Y-85269026D01*
X182210205Y-85329689D01*
X182260338Y-85381602D01*
X182319599Y-85422790D01*
X182385731Y-85451683D01*
X182456216Y-85467180D01*
X182528369Y-85468691D01*
X182599441Y-85456159D01*
X182666726Y-85430061D01*
X182727660Y-85391391D01*
X182779922Y-85341623D01*
X182821523Y-85282650D01*
X182850625Y-85217284D01*
X182871111Y-85269026D01*
X182910205Y-85329689D01*
X182960338Y-85381602D01*
X183019599Y-85422790D01*
X183085731Y-85451683D01*
X183156216Y-85467180D01*
X183228369Y-85468691D01*
X183299441Y-85456159D01*
X183366726Y-85430061D01*
X183427660Y-85391391D01*
X183479922Y-85341623D01*
X183521523Y-85282650D01*
X183550876Y-85216721D01*
X183566865Y-85146346D01*
X183568016Y-85063916D01*
X183568016Y-88138272D01*
X183538653Y-88132245D01*
X183466486Y-88131741D01*
X183395595Y-88145264D01*
X183328682Y-88172299D01*
X183268294Y-88211816D01*
X183216731Y-88262309D01*
X183175958Y-88321857D01*
X183147528Y-88388189D01*
X183132524Y-88458781D01*
X183131516Y-88530942D01*
X183144544Y-88601925D01*
X183171111Y-88669026D01*
X183210205Y-88729689D01*
X183260338Y-88781602D01*
X183319599Y-88822790D01*
X183385731Y-88851683D01*
X183456216Y-88867180D01*
X183528369Y-88868691D01*
X183599441Y-88856159D01*
X183666726Y-88830061D01*
X183727660Y-88791391D01*
X183779922Y-88741623D01*
X183821523Y-88682650D01*
X183850876Y-88616721D01*
X183866865Y-88546346D01*
X183868016Y-88463916D01*
X183868016Y-113638272D01*
X183838653Y-113632245D01*
X183766486Y-113631741D01*
X183695595Y-113645264D01*
X183628682Y-113672299D01*
X183568294Y-113711816D01*
X183568016Y-113712088D01*
X183568016Y-91263916D01*
X183553999Y-91193122D01*
X183526497Y-91126398D01*
X183486560Y-91066288D01*
X183435707Y-91015079D01*
X183375877Y-90974723D01*
X183309347Y-90946756D01*
X183238653Y-90932245D01*
X183166486Y-90931741D01*
X183095595Y-90945264D01*
X183028682Y-90972299D01*
X182968294Y-91011816D01*
X182916731Y-91062309D01*
X182875958Y-91121857D01*
X182847528Y-91188189D01*
X182832524Y-91258781D01*
X182831516Y-91330942D01*
X182844544Y-91401925D01*
X182871111Y-91469026D01*
X182910205Y-91529689D01*
X182960338Y-91581602D01*
X183019599Y-91622790D01*
X183085731Y-91651683D01*
X183156216Y-91667180D01*
X183228369Y-91668691D01*
X183299441Y-91656159D01*
X183366726Y-91630061D01*
X183427660Y-91591391D01*
X183479922Y-91541623D01*
X183521523Y-91482650D01*
X183550876Y-91416721D01*
X183566865Y-91346346D01*
X183568016Y-91263916D01*
X183568016Y-113712088D01*
X183516731Y-113762309D01*
X183475958Y-113821857D01*
X183447528Y-113888189D01*
X183432524Y-113958781D01*
X183431516Y-114030942D01*
X183444544Y-114101925D01*
X183471111Y-114169026D01*
X183510205Y-114229689D01*
X183560338Y-114281602D01*
X183619599Y-114322790D01*
X183685731Y-114351683D01*
X183756216Y-114367180D01*
X183828369Y-114368691D01*
X183899441Y-114356159D01*
X183966726Y-114330061D01*
X184027660Y-114291391D01*
X184079922Y-114241623D01*
X184121523Y-114182650D01*
X184150876Y-114116721D01*
X184166865Y-114046346D01*
X184168016Y-113963916D01*
X184168016Y-115336500D01*
X182668016Y-115336500D01*
X182668016Y-91063916D01*
X182653999Y-90993122D01*
X182626497Y-90926398D01*
X182586560Y-90866288D01*
X182535707Y-90815079D01*
X182475877Y-90774723D01*
X182409347Y-90746756D01*
X182338653Y-90732245D01*
X182266486Y-90731741D01*
X182195595Y-90745264D01*
X182128682Y-90772299D01*
X182068294Y-90811816D01*
X182016731Y-90862309D01*
X181975958Y-90921857D01*
X181966912Y-90942962D01*
X181968016Y-90863916D01*
X181953999Y-90793122D01*
X181926497Y-90726398D01*
X181886560Y-90666288D01*
X181835707Y-90615079D01*
X181775877Y-90574723D01*
X181709347Y-90546756D01*
X181638653Y-90532245D01*
X181566486Y-90531741D01*
X181495595Y-90545264D01*
X181428682Y-90572299D01*
X181368294Y-90611816D01*
X181316731Y-90662309D01*
X181275958Y-90721857D01*
X181247528Y-90788189D01*
X181232524Y-90858781D01*
X181231822Y-90908967D01*
X180820395Y-91320395D01*
X180805488Y-91338541D01*
X180790421Y-91356498D01*
X180789778Y-91357667D01*
X180788929Y-91358701D01*
X180777808Y-91379440D01*
X180766540Y-91399939D01*
X180766137Y-91401207D01*
X180765504Y-91402389D01*
X180758623Y-91424894D01*
X180754000Y-91439469D01*
X180754000Y-84064171D01*
X180799441Y-84056159D01*
X180866726Y-84030061D01*
X180927660Y-83991391D01*
X180979922Y-83941623D01*
X181021523Y-83882650D01*
X181050876Y-83816721D01*
X181066865Y-83746346D01*
X181068016Y-83663916D01*
X181053999Y-83593122D01*
X181026497Y-83526398D01*
X180986560Y-83466288D01*
X180935707Y-83415079D01*
X180875877Y-83374723D01*
X180809347Y-83346756D01*
X180738653Y-83332245D01*
X180666486Y-83331741D01*
X180595595Y-83345264D01*
X180528682Y-83372299D01*
X180468294Y-83411816D01*
X180416731Y-83462309D01*
X180375958Y-83521857D01*
X180347528Y-83588189D01*
X180332524Y-83658781D01*
X180331822Y-83708967D01*
X180320395Y-83720395D01*
X180305488Y-83738541D01*
X180290421Y-83756498D01*
X180289778Y-83757667D01*
X180288929Y-83758701D01*
X180277808Y-83779440D01*
X180266540Y-83799939D01*
X180266137Y-83801207D01*
X180265504Y-83802389D01*
X180258623Y-83824894D01*
X180251551Y-83847190D01*
X180251402Y-83848514D01*
X180251011Y-83849795D01*
X180248638Y-83873159D01*
X180246025Y-83896454D01*
X180246006Y-83899067D01*
X180246002Y-83899113D01*
X180246005Y-83899154D01*
X180246000Y-83900000D01*
X180246000Y-109033647D01*
X180216731Y-109062309D01*
X180175958Y-109121857D01*
X180147528Y-109188189D01*
X180132524Y-109258781D01*
X180131516Y-109330942D01*
X180144544Y-109401925D01*
X180171111Y-109469026D01*
X180210205Y-109529689D01*
X180260338Y-109581602D01*
X180319599Y-109622790D01*
X180385731Y-109651683D01*
X180456216Y-109667180D01*
X180528369Y-109668691D01*
X180599441Y-109656159D01*
X180666726Y-109630061D01*
X180727660Y-109591391D01*
X180746000Y-109573926D01*
X180746000Y-110994790D01*
X180394790Y-111346000D01*
X179968016Y-111346000D01*
X179968016Y-110663916D01*
X179953999Y-110593122D01*
X179926497Y-110526398D01*
X179886560Y-110466288D01*
X179835707Y-110415079D01*
X179775877Y-110374723D01*
X179709347Y-110346756D01*
X179638653Y-110332245D01*
X179591123Y-110331913D01*
X179468016Y-110208806D01*
X179468016Y-92063916D01*
X179453999Y-91993122D01*
X179426497Y-91926398D01*
X179386560Y-91866288D01*
X179335707Y-91815079D01*
X179275877Y-91774723D01*
X179209347Y-91746756D01*
X179138653Y-91732245D01*
X179066486Y-91731741D01*
X178995595Y-91745264D01*
X178928682Y-91772299D01*
X178868294Y-91811816D01*
X178816731Y-91862309D01*
X178775958Y-91921857D01*
X178747528Y-91988189D01*
X178732524Y-92058781D01*
X178731516Y-92130942D01*
X178744544Y-92201925D01*
X178771111Y-92269026D01*
X178810205Y-92329689D01*
X178846000Y-92366754D01*
X178846000Y-96994790D01*
X178020395Y-97820395D01*
X178005488Y-97838541D01*
X177990421Y-97856498D01*
X177989778Y-97857667D01*
X177988929Y-97858701D01*
X177977808Y-97879440D01*
X177966540Y-97899939D01*
X177966137Y-97901207D01*
X177965504Y-97902389D01*
X177958623Y-97924894D01*
X177951551Y-97947190D01*
X177951402Y-97948514D01*
X177951011Y-97949795D01*
X177948638Y-97973159D01*
X177946025Y-97996454D01*
X177946006Y-97999067D01*
X177946002Y-97999113D01*
X177946005Y-97999154D01*
X177946000Y-98000000D01*
X177946000Y-99033647D01*
X177916731Y-99062309D01*
X177875958Y-99121857D01*
X177847528Y-99188189D01*
X177832524Y-99258781D01*
X177831516Y-99330942D01*
X177844544Y-99401925D01*
X177871111Y-99469026D01*
X177910205Y-99529689D01*
X177960338Y-99581602D01*
X178019599Y-99622790D01*
X178085731Y-99651683D01*
X178156216Y-99667180D01*
X178228369Y-99668691D01*
X178299441Y-99656159D01*
X178366726Y-99630061D01*
X178427660Y-99591391D01*
X178479922Y-99541623D01*
X178521523Y-99482650D01*
X178550876Y-99416721D01*
X178566865Y-99346346D01*
X178568016Y-99263916D01*
X178553999Y-99193122D01*
X178526497Y-99126398D01*
X178486560Y-99066288D01*
X178454000Y-99033500D01*
X178454000Y-98105210D01*
X179279605Y-97279605D01*
X179294511Y-97261458D01*
X179309579Y-97243502D01*
X179310221Y-97242332D01*
X179311071Y-97241299D01*
X179322191Y-97220559D01*
X179333460Y-97200061D01*
X179333862Y-97198792D01*
X179334496Y-97197611D01*
X179341363Y-97175147D01*
X179348449Y-97152810D01*
X179348598Y-97151480D01*
X179348988Y-97150205D01*
X179351356Y-97126890D01*
X179353975Y-97103546D01*
X179353993Y-97100931D01*
X179353998Y-97100887D01*
X179353994Y-97100845D01*
X179354000Y-97100000D01*
X179354000Y-92366307D01*
X179379922Y-92341623D01*
X179421523Y-92282650D01*
X179450876Y-92216721D01*
X179466865Y-92146346D01*
X179468016Y-92063916D01*
X179468016Y-110208806D01*
X179279605Y-110020395D01*
X179261458Y-110005488D01*
X179243502Y-109990421D01*
X179242332Y-109989778D01*
X179241299Y-109988929D01*
X179220559Y-109977808D01*
X179200061Y-109966540D01*
X179198792Y-109966137D01*
X179197611Y-109965504D01*
X179175105Y-109958623D01*
X179152810Y-109951551D01*
X179151485Y-109951402D01*
X179150205Y-109951011D01*
X179126840Y-109948638D01*
X179103546Y-109946025D01*
X179100932Y-109946006D01*
X179100887Y-109946002D01*
X179100845Y-109946005D01*
X179100000Y-109946000D01*
X178268016Y-109946000D01*
X178268016Y-103463916D01*
X178253999Y-103393122D01*
X178226497Y-103326398D01*
X178186560Y-103266288D01*
X178135707Y-103215079D01*
X178075877Y-103174723D01*
X178009347Y-103146756D01*
X177938653Y-103132245D01*
X177866486Y-103131741D01*
X177795595Y-103145264D01*
X177728682Y-103172299D01*
X177668294Y-103211816D01*
X177654000Y-103225813D01*
X177654000Y-102200000D01*
X177651706Y-102176603D01*
X177649666Y-102153276D01*
X177649293Y-102151993D01*
X177649163Y-102150664D01*
X177642373Y-102128175D01*
X177635835Y-102105672D01*
X177635221Y-102104488D01*
X177634835Y-102103208D01*
X177623804Y-102082462D01*
X177613022Y-102061662D01*
X177612189Y-102060619D01*
X177611562Y-102059439D01*
X177596698Y-102041214D01*
X177582094Y-102022920D01*
X177580264Y-102021063D01*
X177580231Y-102021023D01*
X177580193Y-102020991D01*
X177579605Y-102020395D01*
X177067397Y-101508187D01*
X177068016Y-101463916D01*
X177053999Y-101393122D01*
X177026497Y-101326398D01*
X176986560Y-101266288D01*
X176935707Y-101215079D01*
X176875877Y-101174723D01*
X176809347Y-101146756D01*
X176738653Y-101132245D01*
X176666486Y-101131741D01*
X176595595Y-101145264D01*
X176528682Y-101172299D01*
X176468294Y-101211816D01*
X176433385Y-101246000D01*
X176365210Y-101246000D01*
X175268016Y-100148806D01*
X175268016Y-87563916D01*
X175253999Y-87493122D01*
X175226497Y-87426398D01*
X175186560Y-87366288D01*
X175135707Y-87315079D01*
X175075877Y-87274723D01*
X175009347Y-87246756D01*
X174938653Y-87232245D01*
X174866486Y-87231741D01*
X174795595Y-87245264D01*
X174728682Y-87272299D01*
X174668294Y-87311816D01*
X174616731Y-87362309D01*
X174575958Y-87421857D01*
X174547528Y-87488189D01*
X174532524Y-87558781D01*
X174531516Y-87630942D01*
X174544544Y-87701925D01*
X174571111Y-87769026D01*
X174610205Y-87829689D01*
X174660338Y-87881602D01*
X174719599Y-87922790D01*
X174785731Y-87951683D01*
X174856216Y-87967180D01*
X174928369Y-87968691D01*
X174999441Y-87956159D01*
X175066726Y-87930061D01*
X175127660Y-87891391D01*
X175179922Y-87841623D01*
X175221523Y-87782650D01*
X175250876Y-87716721D01*
X175266865Y-87646346D01*
X175268016Y-87563916D01*
X175268016Y-100148806D01*
X174815829Y-99696619D01*
X174918066Y-99507538D01*
X174987696Y-99282601D01*
X175012309Y-99048423D01*
X175007500Y-98995580D01*
X175007500Y-97534861D01*
X175007500Y-97497139D01*
X175007500Y-96548375D01*
X175007500Y-96451625D01*
X175007500Y-95502861D01*
X175007500Y-95465139D01*
X175000141Y-95428141D01*
X174985705Y-95393291D01*
X174964748Y-95361926D01*
X174938074Y-95335252D01*
X174906709Y-95314295D01*
X174871858Y-95299859D01*
X174834861Y-95292500D01*
X173968016Y-95292500D01*
X173968016Y-86363916D01*
X173953999Y-86293122D01*
X173926497Y-86226398D01*
X173886560Y-86166288D01*
X173835707Y-86115079D01*
X173775877Y-86074723D01*
X173709347Y-86046756D01*
X173638653Y-86032245D01*
X173566486Y-86031741D01*
X173495595Y-86045264D01*
X173428682Y-86072299D01*
X173368294Y-86111816D01*
X173316731Y-86162309D01*
X173275958Y-86221857D01*
X173247528Y-86288189D01*
X173232524Y-86358781D01*
X173231516Y-86430942D01*
X173244544Y-86501925D01*
X173271111Y-86569026D01*
X173310205Y-86629689D01*
X173360338Y-86681602D01*
X173419599Y-86722790D01*
X173485731Y-86751683D01*
X173556216Y-86767180D01*
X173628369Y-86768691D01*
X173699441Y-86756159D01*
X173766726Y-86730061D01*
X173827660Y-86691391D01*
X173879922Y-86641623D01*
X173921523Y-86582650D01*
X173950876Y-86516721D01*
X173966865Y-86446346D01*
X173968016Y-86363916D01*
X173968016Y-95292500D01*
X173848375Y-95292500D01*
X173800500Y-95340375D01*
X173800500Y-96499500D01*
X174959625Y-96499500D01*
X175007500Y-96451625D01*
X175007500Y-96548375D01*
X174959625Y-96500500D01*
X173800500Y-96500500D01*
X173800500Y-97659625D01*
X173848375Y-97707500D01*
X174834861Y-97707500D01*
X174871858Y-97700141D01*
X174906709Y-97685705D01*
X174938074Y-97664748D01*
X174964748Y-97638074D01*
X174985705Y-97606709D01*
X175000141Y-97571859D01*
X175007500Y-97534861D01*
X175007500Y-98995580D01*
X174990968Y-98813924D01*
X174924485Y-98588037D01*
X174815394Y-98379365D01*
X174667849Y-98195856D01*
X174487471Y-98044501D01*
X174281129Y-97931063D01*
X174056683Y-97859865D01*
X173822683Y-97833618D01*
X173805838Y-97833500D01*
X173799500Y-97833500D01*
X173799500Y-97659625D01*
X173799500Y-96500500D01*
X173799500Y-96499500D01*
X173799500Y-95340375D01*
X173751625Y-95292500D01*
X172765139Y-95292500D01*
X172728142Y-95299859D01*
X172693291Y-95314295D01*
X172661926Y-95335252D01*
X172635252Y-95361926D01*
X172614295Y-95393291D01*
X172599859Y-95428141D01*
X172592500Y-95465139D01*
X172592500Y-95502861D01*
X172592500Y-96451625D01*
X172640375Y-96499500D01*
X173799500Y-96499500D01*
X173799500Y-96500500D01*
X172640375Y-96500500D01*
X172592500Y-96548375D01*
X172592500Y-97497139D01*
X172592500Y-97534861D01*
X172599859Y-97571859D01*
X172614295Y-97606709D01*
X172635252Y-97638074D01*
X172661926Y-97664748D01*
X172693291Y-97685705D01*
X172728142Y-97700141D01*
X172765139Y-97707500D01*
X173751625Y-97707500D01*
X173799500Y-97659625D01*
X173799500Y-97833500D01*
X173794162Y-97833500D01*
X173559818Y-97856478D01*
X173334401Y-97924535D01*
X173126495Y-98035081D01*
X172944021Y-98183903D01*
X172793928Y-98365334D01*
X172681934Y-98572462D01*
X172612304Y-98797399D01*
X172587691Y-99031577D01*
X172609032Y-99266076D01*
X172675515Y-99491963D01*
X172784606Y-99700635D01*
X172932151Y-99884144D01*
X173112529Y-100035499D01*
X173318871Y-100148937D01*
X173543317Y-100220135D01*
X173777317Y-100246382D01*
X173794162Y-100246500D01*
X173805838Y-100246500D01*
X174040182Y-100223522D01*
X174265599Y-100155465D01*
X174455357Y-100054567D01*
X176080395Y-101679605D01*
X176098514Y-101694488D01*
X176116498Y-101709579D01*
X176117670Y-101710223D01*
X176118701Y-101711070D01*
X176139367Y-101722150D01*
X176159939Y-101733460D01*
X176161211Y-101733863D01*
X176162389Y-101734495D01*
X176184819Y-101741352D01*
X176207190Y-101748449D01*
X176208518Y-101748598D01*
X176209794Y-101748988D01*
X176233114Y-101751356D01*
X176256454Y-101753975D01*
X176259068Y-101753993D01*
X176259113Y-101753998D01*
X176259154Y-101753994D01*
X176260000Y-101754000D01*
X176433682Y-101754000D01*
X176460338Y-101781602D01*
X176519599Y-101822790D01*
X176585731Y-101851683D01*
X176656216Y-101867180D01*
X176709076Y-101868286D01*
X177146000Y-102305210D01*
X177146000Y-108733647D01*
X177116731Y-108762309D01*
X177075958Y-108821857D01*
X177047528Y-108888189D01*
X177032524Y-108958781D01*
X177031516Y-109030942D01*
X177044544Y-109101925D01*
X177071111Y-109169026D01*
X177110205Y-109229689D01*
X177160338Y-109281602D01*
X177219599Y-109322790D01*
X177285731Y-109351683D01*
X177356216Y-109367180D01*
X177428369Y-109368691D01*
X177499441Y-109356159D01*
X177566726Y-109330061D01*
X177627660Y-109291391D01*
X177679922Y-109241623D01*
X177721523Y-109182650D01*
X177750876Y-109116721D01*
X177766865Y-109046346D01*
X177768016Y-108963916D01*
X177753999Y-108893122D01*
X177726497Y-108826398D01*
X177686560Y-108766288D01*
X177654000Y-108733500D01*
X177654000Y-103775038D01*
X177660338Y-103781602D01*
X177719599Y-103822790D01*
X177785731Y-103851683D01*
X177856216Y-103867180D01*
X177928369Y-103868691D01*
X177999441Y-103856159D01*
X178066726Y-103830061D01*
X178127660Y-103791391D01*
X178179922Y-103741623D01*
X178221523Y-103682650D01*
X178250876Y-103616721D01*
X178266865Y-103546346D01*
X178268016Y-103463916D01*
X178268016Y-109946000D01*
X177505210Y-109946000D01*
X176654000Y-109094790D01*
X176654000Y-106250000D01*
X176651706Y-106226603D01*
X176649666Y-106203276D01*
X176649293Y-106201993D01*
X176649163Y-106200664D01*
X176642373Y-106178175D01*
X176635835Y-106155672D01*
X176635221Y-106154488D01*
X176634835Y-106153208D01*
X176623804Y-106132462D01*
X176613022Y-106111662D01*
X176612189Y-106110619D01*
X176611562Y-106109439D01*
X176596723Y-106091245D01*
X176582095Y-106072920D01*
X176580263Y-106071062D01*
X176580231Y-106071023D01*
X176580194Y-106070992D01*
X176579605Y-106070395D01*
X173867397Y-103358187D01*
X173868016Y-103313916D01*
X173853999Y-103243122D01*
X173826497Y-103176398D01*
X173786560Y-103116288D01*
X173735707Y-103065079D01*
X173675877Y-103024723D01*
X173609347Y-102996756D01*
X173538653Y-102982245D01*
X173466486Y-102981741D01*
X173395595Y-102995264D01*
X173328682Y-103022299D01*
X173268294Y-103061816D01*
X173216731Y-103112309D01*
X173175958Y-103171857D01*
X173147528Y-103238189D01*
X173132524Y-103308781D01*
X173131516Y-103380942D01*
X173144544Y-103451925D01*
X173171111Y-103519026D01*
X173210205Y-103579689D01*
X173260338Y-103631602D01*
X173319599Y-103672790D01*
X173385731Y-103701683D01*
X173456216Y-103717180D01*
X173509076Y-103718286D01*
X176146000Y-106355210D01*
X176146000Y-109200000D01*
X176148289Y-109223355D01*
X176150334Y-109246723D01*
X176150706Y-109248005D01*
X176150837Y-109249336D01*
X176157634Y-109271850D01*
X176164165Y-109294327D01*
X176164777Y-109295508D01*
X176165165Y-109296792D01*
X176176205Y-109317555D01*
X176186978Y-109338338D01*
X176187810Y-109339380D01*
X176188438Y-109340561D01*
X176203276Y-109358754D01*
X176217905Y-109377080D01*
X176219736Y-109378937D01*
X176219769Y-109378977D01*
X176219805Y-109379007D01*
X176220395Y-109379605D01*
X177220395Y-110379605D01*
X177238541Y-110394511D01*
X177256498Y-110409579D01*
X177257667Y-110410221D01*
X177258701Y-110411071D01*
X177279440Y-110422191D01*
X177299939Y-110433460D01*
X177301207Y-110433862D01*
X177302389Y-110434496D01*
X177324894Y-110441376D01*
X177347190Y-110448449D01*
X177348514Y-110448597D01*
X177349795Y-110448989D01*
X177373199Y-110451366D01*
X177396454Y-110453975D01*
X177399058Y-110453993D01*
X177399114Y-110453999D01*
X177399165Y-110453994D01*
X177400000Y-110454000D01*
X178994790Y-110454000D01*
X179232070Y-110691280D01*
X179231516Y-110730942D01*
X179244544Y-110801925D01*
X179271111Y-110869026D01*
X179310205Y-110929689D01*
X179360338Y-110981602D01*
X179419599Y-111022790D01*
X179485731Y-111051683D01*
X179556216Y-111067180D01*
X179628369Y-111068691D01*
X179699441Y-111056159D01*
X179766726Y-111030061D01*
X179827660Y-110991391D01*
X179879922Y-110941623D01*
X179921523Y-110882650D01*
X179950876Y-110816721D01*
X179966865Y-110746346D01*
X179968016Y-110663916D01*
X179968016Y-111346000D01*
X174266413Y-111346000D01*
X174235707Y-111315079D01*
X174175877Y-111274723D01*
X174109347Y-111246756D01*
X174038653Y-111232245D01*
X173966486Y-111231741D01*
X173895595Y-111245264D01*
X173828682Y-111272299D01*
X173768294Y-111311816D01*
X173716731Y-111362309D01*
X173675958Y-111421857D01*
X173647528Y-111488189D01*
X173632524Y-111558781D01*
X173631516Y-111630942D01*
X173644544Y-111701925D01*
X173671111Y-111769026D01*
X173710205Y-111829689D01*
X173760338Y-111881602D01*
X173819599Y-111922790D01*
X173885731Y-111951683D01*
X173956216Y-111967180D01*
X174028369Y-111968691D01*
X174099441Y-111956159D01*
X174166726Y-111930061D01*
X174227660Y-111891391D01*
X174266924Y-111854000D01*
X180500000Y-111854000D01*
X180523355Y-111851710D01*
X180546723Y-111849666D01*
X180548005Y-111849293D01*
X180549336Y-111849163D01*
X180571850Y-111842365D01*
X180594327Y-111835835D01*
X180595508Y-111835222D01*
X180596792Y-111834835D01*
X180617555Y-111823794D01*
X180638338Y-111813022D01*
X180639380Y-111812189D01*
X180640561Y-111811562D01*
X180658754Y-111796723D01*
X180677080Y-111782095D01*
X180678937Y-111780263D01*
X180678977Y-111780231D01*
X180679007Y-111780194D01*
X180679605Y-111779605D01*
X181146000Y-111313210D01*
X181146000Y-111594790D01*
X180094790Y-112646000D01*
X175064468Y-112646000D01*
X175053999Y-112593122D01*
X175026497Y-112526398D01*
X174986560Y-112466288D01*
X174935707Y-112415079D01*
X174875877Y-112374723D01*
X174809347Y-112346756D01*
X174738653Y-112332245D01*
X174666486Y-112331741D01*
X174595595Y-112345264D01*
X174528682Y-112372299D01*
X174468294Y-112411816D01*
X174416731Y-112462309D01*
X174375958Y-112521857D01*
X174347528Y-112588189D01*
X174332524Y-112658781D01*
X174331516Y-112730942D01*
X174344544Y-112801925D01*
X174371111Y-112869026D01*
X174410205Y-112929689D01*
X174460338Y-112981602D01*
X174519599Y-113022790D01*
X174585731Y-113051683D01*
X174656216Y-113067180D01*
X174709076Y-113068286D01*
X174720395Y-113079605D01*
X174738541Y-113094511D01*
X174756498Y-113109579D01*
X174757667Y-113110221D01*
X174758701Y-113111071D01*
X174779440Y-113122191D01*
X174799939Y-113133460D01*
X174801207Y-113133862D01*
X174802389Y-113134496D01*
X174824894Y-113141376D01*
X174847190Y-113148449D01*
X174848514Y-113148597D01*
X174849795Y-113148989D01*
X174873203Y-113151366D01*
X174896454Y-113153975D01*
X174899057Y-113153993D01*
X174899113Y-113153999D01*
X174899164Y-113153994D01*
X174900000Y-113154000D01*
X180200000Y-113154000D01*
X180223355Y-113151710D01*
X180246723Y-113149666D01*
X180248005Y-113149293D01*
X180249336Y-113149163D01*
X180271850Y-113142365D01*
X180294327Y-113135835D01*
X180295508Y-113135222D01*
X180296792Y-113134835D01*
X180317555Y-113123794D01*
X180338338Y-113113022D01*
X180339380Y-113112189D01*
X180340561Y-113111562D01*
X180358754Y-113096723D01*
X180377080Y-113082095D01*
X180378937Y-113080263D01*
X180378977Y-113080231D01*
X180379007Y-113080194D01*
X180379605Y-113079605D01*
X181579605Y-111879605D01*
X181594488Y-111861485D01*
X181609579Y-111843502D01*
X181610223Y-111842329D01*
X181611070Y-111841299D01*
X181622170Y-111820597D01*
X181633460Y-111800061D01*
X181633862Y-111798792D01*
X181634496Y-111797611D01*
X181641363Y-111775147D01*
X181648449Y-111752810D01*
X181648598Y-111751480D01*
X181648988Y-111750205D01*
X181651356Y-111726890D01*
X181653975Y-111703546D01*
X181653993Y-111700931D01*
X181653998Y-111700887D01*
X181653994Y-111700845D01*
X181654000Y-111700000D01*
X181654000Y-91966307D01*
X181679922Y-91941623D01*
X181721523Y-91882650D01*
X181750876Y-91816721D01*
X181766865Y-91746346D01*
X181768016Y-91663916D01*
X181753999Y-91593122D01*
X181726497Y-91526398D01*
X181686560Y-91466288D01*
X181635707Y-91415079D01*
X181575877Y-91374723D01*
X181511534Y-91347675D01*
X181591295Y-91267914D01*
X181628369Y-91268691D01*
X181699441Y-91256159D01*
X181766726Y-91230061D01*
X181827660Y-91191391D01*
X181879922Y-91141623D01*
X181921523Y-91082650D01*
X181932865Y-91057173D01*
X181932524Y-91058781D01*
X181931516Y-91130942D01*
X181944544Y-91201925D01*
X181971111Y-91269026D01*
X182010205Y-91329689D01*
X182060338Y-91381602D01*
X182119599Y-91422790D01*
X182185731Y-91451683D01*
X182256216Y-91467180D01*
X182328369Y-91468691D01*
X182399441Y-91456159D01*
X182466726Y-91430061D01*
X182527660Y-91391391D01*
X182579922Y-91341623D01*
X182621523Y-91282650D01*
X182650876Y-91216721D01*
X182666865Y-91146346D01*
X182668016Y-91063916D01*
X182668016Y-115336500D01*
X181668016Y-115336500D01*
X181668016Y-113163916D01*
X181653999Y-113093122D01*
X181626497Y-113026398D01*
X181586560Y-112966288D01*
X181535707Y-112915079D01*
X181475877Y-112874723D01*
X181409347Y-112846756D01*
X181338653Y-112832245D01*
X181266486Y-112831741D01*
X181195595Y-112845264D01*
X181128682Y-112872299D01*
X181068294Y-112911816D01*
X181016731Y-112962309D01*
X180975958Y-113021857D01*
X180947528Y-113088189D01*
X180932524Y-113158781D01*
X180931516Y-113230942D01*
X180944544Y-113301925D01*
X180971111Y-113369026D01*
X181010205Y-113429689D01*
X181060338Y-113481602D01*
X181119599Y-113522790D01*
X181185731Y-113551683D01*
X181256216Y-113567180D01*
X181328369Y-113568691D01*
X181399441Y-113556159D01*
X181466726Y-113530061D01*
X181527660Y-113491391D01*
X181579922Y-113441623D01*
X181621523Y-113382650D01*
X181650876Y-113316721D01*
X181666865Y-113246346D01*
X181668016Y-113163916D01*
X181668016Y-115336500D01*
X173068016Y-115336500D01*
X173068016Y-109063916D01*
X173053999Y-108993122D01*
X173026497Y-108926398D01*
X172986560Y-108866288D01*
X172935707Y-108815079D01*
X172875877Y-108774723D01*
X172809347Y-108746756D01*
X172738653Y-108732245D01*
X172666486Y-108731741D01*
X172595595Y-108745264D01*
X172528682Y-108772299D01*
X172468294Y-108811816D01*
X172416731Y-108862309D01*
X172375958Y-108921857D01*
X172347528Y-108988189D01*
X172332524Y-109058781D01*
X172331516Y-109130942D01*
X172344544Y-109201925D01*
X172371111Y-109269026D01*
X172410205Y-109329689D01*
X172460338Y-109381602D01*
X172519599Y-109422790D01*
X172585731Y-109451683D01*
X172656216Y-109467180D01*
X172728369Y-109468691D01*
X172799441Y-109456159D01*
X172866726Y-109430061D01*
X172927660Y-109391391D01*
X172979922Y-109341623D01*
X173021523Y-109282650D01*
X173050876Y-109216721D01*
X173066865Y-109146346D01*
X173068016Y-109063916D01*
X173068016Y-115336500D01*
X169368016Y-115336500D01*
X169368016Y-111063916D01*
X169353999Y-110993122D01*
X169326497Y-110926398D01*
X169286560Y-110866288D01*
X169235707Y-110815079D01*
X169175877Y-110774723D01*
X169109347Y-110746756D01*
X169038653Y-110732245D01*
X168966486Y-110731741D01*
X168895595Y-110745264D01*
X168828682Y-110772299D01*
X168768294Y-110811816D01*
X168716731Y-110862309D01*
X168675958Y-110921857D01*
X168647528Y-110988189D01*
X168632524Y-111058781D01*
X168631516Y-111130942D01*
X168644544Y-111201925D01*
X168671111Y-111269026D01*
X168710205Y-111329689D01*
X168760338Y-111381602D01*
X168819599Y-111422790D01*
X168885731Y-111451683D01*
X168956216Y-111467180D01*
X169028369Y-111468691D01*
X169099441Y-111456159D01*
X169166726Y-111430061D01*
X169227660Y-111391391D01*
X169279922Y-111341623D01*
X169321523Y-111282650D01*
X169350876Y-111216721D01*
X169366865Y-111146346D01*
X169368016Y-111063916D01*
X169368016Y-115336500D01*
X168468016Y-115336500D01*
X168468016Y-113963916D01*
X168453999Y-113893122D01*
X168426497Y-113826398D01*
X168386560Y-113766288D01*
X168335707Y-113715079D01*
X168275877Y-113674723D01*
X168209347Y-113646756D01*
X168168016Y-113638272D01*
X168168016Y-110163916D01*
X168153999Y-110093122D01*
X168126497Y-110026398D01*
X168086560Y-109966288D01*
X168035707Y-109915079D01*
X167975877Y-109874723D01*
X167909347Y-109846756D01*
X167838653Y-109832245D01*
X167766486Y-109831741D01*
X167695595Y-109845264D01*
X167628682Y-109872299D01*
X167568294Y-109911816D01*
X167516731Y-109962309D01*
X167475958Y-110021857D01*
X167447528Y-110088189D01*
X167432524Y-110158781D01*
X167431516Y-110230942D01*
X167444544Y-110301925D01*
X167471111Y-110369026D01*
X167510205Y-110429689D01*
X167560338Y-110481602D01*
X167619599Y-110522790D01*
X167685731Y-110551683D01*
X167756216Y-110567180D01*
X167828369Y-110568691D01*
X167899441Y-110556159D01*
X167966726Y-110530061D01*
X168027660Y-110491391D01*
X168079922Y-110441623D01*
X168121523Y-110382650D01*
X168150876Y-110316721D01*
X168166865Y-110246346D01*
X168168016Y-110163916D01*
X168168016Y-113638272D01*
X168138653Y-113632245D01*
X168066486Y-113631741D01*
X167995595Y-113645264D01*
X167928682Y-113672299D01*
X167868294Y-113711816D01*
X167816731Y-113762309D01*
X167775958Y-113821857D01*
X167747528Y-113888189D01*
X167732524Y-113958781D01*
X167731516Y-114030942D01*
X167744544Y-114101925D01*
X167771111Y-114169026D01*
X167810205Y-114229689D01*
X167860338Y-114281602D01*
X167919599Y-114322790D01*
X167985731Y-114351683D01*
X168056216Y-114367180D01*
X168128369Y-114368691D01*
X168199441Y-114356159D01*
X168266726Y-114330061D01*
X168327660Y-114291391D01*
X168379922Y-114241623D01*
X168421523Y-114182650D01*
X168450876Y-114116721D01*
X168466865Y-114046346D01*
X168468016Y-113963916D01*
X168468016Y-115336500D01*
X165168016Y-115336500D01*
X165168016Y-112163916D01*
X165153999Y-112093122D01*
X165126497Y-112026398D01*
X165086560Y-111966288D01*
X165035707Y-111915079D01*
X164975877Y-111874723D01*
X164909347Y-111846756D01*
X164838653Y-111832245D01*
X164766486Y-111831741D01*
X164695595Y-111845264D01*
X164628682Y-111872299D01*
X164568294Y-111911816D01*
X164516731Y-111962309D01*
X164475958Y-112021857D01*
X164447528Y-112088189D01*
X164432524Y-112158781D01*
X164431516Y-112230942D01*
X164444544Y-112301925D01*
X164471111Y-112369026D01*
X164510205Y-112429689D01*
X164560338Y-112481602D01*
X164619599Y-112522790D01*
X164685731Y-112551683D01*
X164756216Y-112567180D01*
X164828369Y-112568691D01*
X164899441Y-112556159D01*
X164966726Y-112530061D01*
X165027660Y-112491391D01*
X165079922Y-112441623D01*
X165121523Y-112382650D01*
X165150876Y-112316721D01*
X165166865Y-112246346D01*
X165168016Y-112163916D01*
X165168016Y-115336500D01*
X164268016Y-115336500D01*
X164268016Y-114763916D01*
X164253999Y-114693122D01*
X164226497Y-114626398D01*
X164186560Y-114566288D01*
X164135707Y-114515079D01*
X164075877Y-114474723D01*
X164009347Y-114446756D01*
X163938653Y-114432245D01*
X163891123Y-114431913D01*
X163579605Y-114120395D01*
X163561458Y-114105488D01*
X163543502Y-114090421D01*
X163542332Y-114089778D01*
X163541299Y-114088929D01*
X163520559Y-114077808D01*
X163500061Y-114066540D01*
X163498792Y-114066137D01*
X163497611Y-114065504D01*
X163475105Y-114058623D01*
X163452810Y-114051551D01*
X163451485Y-114051402D01*
X163450205Y-114051011D01*
X163426840Y-114048638D01*
X163403546Y-114046025D01*
X163400932Y-114046006D01*
X163400887Y-114046002D01*
X163400845Y-114046005D01*
X163400000Y-114046000D01*
X163068016Y-114046000D01*
X163068016Y-109763916D01*
X163053999Y-109693122D01*
X163026497Y-109626398D01*
X162986560Y-109566288D01*
X162935707Y-109515079D01*
X162875877Y-109474723D01*
X162809347Y-109446756D01*
X162738653Y-109432245D01*
X162666486Y-109431741D01*
X162595595Y-109445264D01*
X162528682Y-109472299D01*
X162468294Y-109511816D01*
X162433385Y-109546000D01*
X160566413Y-109546000D01*
X160535707Y-109515079D01*
X160475877Y-109474723D01*
X160409347Y-109446756D01*
X160338653Y-109432245D01*
X160266486Y-109431741D01*
X160195595Y-109445264D01*
X160128682Y-109472299D01*
X160068294Y-109511816D01*
X160016731Y-109562309D01*
X159975958Y-109621857D01*
X159947528Y-109688189D01*
X159932524Y-109758781D01*
X159931516Y-109830942D01*
X159944544Y-109901925D01*
X159971111Y-109969026D01*
X160010205Y-110029689D01*
X160020633Y-110040487D01*
X159995595Y-110045264D01*
X159993773Y-110046000D01*
X156766413Y-110046000D01*
X156735707Y-110015079D01*
X156675877Y-109974723D01*
X156609347Y-109946756D01*
X156538653Y-109932245D01*
X156466486Y-109931741D01*
X156395595Y-109945264D01*
X156328682Y-109972299D01*
X156268294Y-110011816D01*
X156216731Y-110062309D01*
X156175958Y-110121857D01*
X156147528Y-110188189D01*
X156132524Y-110258781D01*
X156131516Y-110330942D01*
X156144544Y-110401925D01*
X156171111Y-110469026D01*
X156210205Y-110529689D01*
X156260338Y-110581602D01*
X156319599Y-110622790D01*
X156372723Y-110646000D01*
X155566413Y-110646000D01*
X155535707Y-110615079D01*
X155475877Y-110574723D01*
X155409347Y-110546756D01*
X155338653Y-110532245D01*
X155266486Y-110531741D01*
X155195595Y-110545264D01*
X155128682Y-110572299D01*
X155068294Y-110611816D01*
X155016731Y-110662309D01*
X154975958Y-110721857D01*
X154947528Y-110788189D01*
X154932524Y-110858781D01*
X154931516Y-110930942D01*
X154944544Y-111001925D01*
X154971111Y-111069026D01*
X155010205Y-111129689D01*
X155060338Y-111181602D01*
X155119599Y-111222790D01*
X155185731Y-111251683D01*
X155256216Y-111267180D01*
X155328369Y-111268691D01*
X155399441Y-111256159D01*
X155466726Y-111230061D01*
X155527660Y-111191391D01*
X155566924Y-111154000D01*
X161465161Y-111154000D01*
X161471111Y-111169026D01*
X161510205Y-111229689D01*
X161560338Y-111281602D01*
X161619599Y-111322790D01*
X161685731Y-111351683D01*
X161756216Y-111367180D01*
X161828369Y-111368691D01*
X161899441Y-111356159D01*
X161966726Y-111330061D01*
X162027660Y-111291391D01*
X162079922Y-111241623D01*
X162121523Y-111182650D01*
X162150876Y-111116721D01*
X162166865Y-111046346D01*
X162168016Y-110963916D01*
X162153999Y-110893122D01*
X162126497Y-110826398D01*
X162086560Y-110766288D01*
X162035707Y-110715079D01*
X161975877Y-110674723D01*
X161909347Y-110646756D01*
X161838653Y-110632245D01*
X161766486Y-110631741D01*
X161695595Y-110645264D01*
X161693773Y-110646000D01*
X160375325Y-110646000D01*
X160379922Y-110641623D01*
X160421523Y-110582650D01*
X160450876Y-110516721D01*
X160466865Y-110446346D01*
X160468016Y-110363916D01*
X160453999Y-110293122D01*
X160426497Y-110226398D01*
X160386560Y-110166288D01*
X160379919Y-110159601D01*
X160399441Y-110156159D01*
X160466726Y-110130061D01*
X160527660Y-110091391D01*
X160566924Y-110054000D01*
X162433682Y-110054000D01*
X162460338Y-110081602D01*
X162519599Y-110122790D01*
X162585731Y-110151683D01*
X162656216Y-110167180D01*
X162728369Y-110168691D01*
X162799441Y-110156159D01*
X162866726Y-110130061D01*
X162927660Y-110091391D01*
X162979922Y-110041623D01*
X163021523Y-109982650D01*
X163050876Y-109916721D01*
X163066865Y-109846346D01*
X163068016Y-109763916D01*
X163068016Y-114046000D01*
X159905210Y-114046000D01*
X159167397Y-113308187D01*
X159168016Y-113263916D01*
X159153999Y-113193122D01*
X159126497Y-113126398D01*
X159086560Y-113066288D01*
X159035707Y-113015079D01*
X158975877Y-112974723D01*
X158909347Y-112946756D01*
X158838653Y-112932245D01*
X158766486Y-112931741D01*
X158695595Y-112945264D01*
X158628682Y-112972299D01*
X158568294Y-113011816D01*
X158516731Y-113062309D01*
X158475958Y-113121857D01*
X158449790Y-113182910D01*
X158426497Y-113126398D01*
X158386560Y-113066288D01*
X158335707Y-113015079D01*
X158275877Y-112974723D01*
X158209347Y-112946756D01*
X158138653Y-112932245D01*
X158066486Y-112931741D01*
X157995595Y-112945264D01*
X157928682Y-112972299D01*
X157868294Y-113011816D01*
X157816731Y-113062309D01*
X157775958Y-113121857D01*
X157747528Y-113188189D01*
X157732524Y-113258781D01*
X157731516Y-113330942D01*
X157744544Y-113401925D01*
X157771111Y-113469026D01*
X157810205Y-113529689D01*
X157860338Y-113581602D01*
X157919599Y-113622790D01*
X157985731Y-113651683D01*
X158056216Y-113667180D01*
X158109076Y-113668286D01*
X159420395Y-114979605D01*
X159438514Y-114994488D01*
X159456498Y-115009579D01*
X159457670Y-115010223D01*
X159458701Y-115011070D01*
X159479367Y-115022150D01*
X159499939Y-115033460D01*
X159501211Y-115033863D01*
X159502389Y-115034495D01*
X159524819Y-115041352D01*
X159547190Y-115048449D01*
X159548518Y-115048598D01*
X159549794Y-115048988D01*
X159573114Y-115051356D01*
X159596454Y-115053975D01*
X159599068Y-115053993D01*
X159599113Y-115053998D01*
X159599154Y-115053994D01*
X159600000Y-115054000D01*
X162633682Y-115054000D01*
X162660338Y-115081602D01*
X162719599Y-115122790D01*
X162785731Y-115151683D01*
X162856216Y-115167180D01*
X162928369Y-115168691D01*
X162999441Y-115156159D01*
X163066726Y-115130061D01*
X163127660Y-115091391D01*
X163179922Y-115041623D01*
X163221523Y-114982650D01*
X163250876Y-114916721D01*
X163266865Y-114846346D01*
X163268016Y-114763916D01*
X163253999Y-114693122D01*
X163226497Y-114626398D01*
X163186560Y-114566288D01*
X163174357Y-114554000D01*
X163294790Y-114554000D01*
X163532070Y-114791280D01*
X163531516Y-114830942D01*
X163544544Y-114901925D01*
X163571111Y-114969026D01*
X163610205Y-115029689D01*
X163660338Y-115081602D01*
X163719599Y-115122790D01*
X163785731Y-115151683D01*
X163856216Y-115167180D01*
X163928369Y-115168691D01*
X163999441Y-115156159D01*
X164066726Y-115130061D01*
X164127660Y-115091391D01*
X164179922Y-115041623D01*
X164221523Y-114982650D01*
X164250876Y-114916721D01*
X164266865Y-114846346D01*
X164268016Y-114763916D01*
X164268016Y-115336500D01*
X154968016Y-115336500D01*
X154968016Y-114163916D01*
X154953999Y-114093122D01*
X154926497Y-114026398D01*
X154886560Y-113966288D01*
X154835707Y-113915079D01*
X154775877Y-113874723D01*
X154709347Y-113846756D01*
X154638653Y-113832245D01*
X154566486Y-113831741D01*
X154495595Y-113845264D01*
X154428682Y-113872299D01*
X154368294Y-113911816D01*
X154316731Y-113962309D01*
X154275958Y-114021857D01*
X154247528Y-114088189D01*
X154232524Y-114158781D01*
X154231516Y-114230942D01*
X154244544Y-114301925D01*
X154271111Y-114369026D01*
X154310205Y-114429689D01*
X154360338Y-114481602D01*
X154419599Y-114522790D01*
X154485731Y-114551683D01*
X154556216Y-114567180D01*
X154628369Y-114568691D01*
X154699441Y-114556159D01*
X154766726Y-114530061D01*
X154827660Y-114491391D01*
X154879922Y-114441623D01*
X154921523Y-114382650D01*
X154950876Y-114316721D01*
X154966865Y-114246346D01*
X154968016Y-114163916D01*
X154968016Y-115336500D01*
X152907422Y-115336500D01*
X152907422Y-110216000D01*
X152907422Y-108184000D01*
X152904909Y-108153087D01*
X152888868Y-108101788D01*
X152859198Y-108056970D01*
X152818238Y-108022167D01*
X152769217Y-108000124D01*
X152716000Y-107992578D01*
X150684000Y-107992578D01*
X150653087Y-107995091D01*
X150601788Y-108011132D01*
X150556970Y-108040802D01*
X150522167Y-108081762D01*
X150500124Y-108130783D01*
X150492578Y-108184000D01*
X150492578Y-110216000D01*
X150495091Y-110246913D01*
X150511132Y-110298212D01*
X150540802Y-110343030D01*
X150581762Y-110377833D01*
X150630783Y-110399876D01*
X150684000Y-110407422D01*
X152716000Y-110407422D01*
X152746913Y-110404909D01*
X152798212Y-110388868D01*
X152843030Y-110359198D01*
X152877833Y-110318238D01*
X152899876Y-110269217D01*
X152907422Y-110216000D01*
X152907422Y-115336500D01*
X152892555Y-115336500D01*
X152892555Y-111929388D01*
X152892555Y-111550612D01*
X152874253Y-111458601D01*
X152796792Y-111234923D01*
X152677182Y-111030654D01*
X152520019Y-110853645D01*
X152331343Y-110710698D01*
X152118405Y-110607307D01*
X151889388Y-110547445D01*
X151700500Y-110580375D01*
X151700500Y-111739500D01*
X152859625Y-111739500D01*
X152892555Y-111550612D01*
X152892555Y-111929388D01*
X152859625Y-111740500D01*
X151700500Y-111740500D01*
X151700500Y-112899625D01*
X151889388Y-112932555D01*
X152118405Y-112872693D01*
X152331343Y-112769302D01*
X152520019Y-112626355D01*
X152677182Y-112449346D01*
X152796792Y-112245077D01*
X152874253Y-112021399D01*
X152892555Y-111929388D01*
X152892555Y-115336500D01*
X151699500Y-115336500D01*
X151699500Y-112899625D01*
X151699500Y-111740500D01*
X151699500Y-111739500D01*
X151699500Y-110580375D01*
X151510612Y-110547445D01*
X151281595Y-110607307D01*
X151068657Y-110710698D01*
X150879981Y-110853645D01*
X150722818Y-111030654D01*
X150603208Y-111234923D01*
X150525747Y-111458601D01*
X150507445Y-111550612D01*
X150540375Y-111739500D01*
X151699500Y-111739500D01*
X151699500Y-111740500D01*
X150540375Y-111740500D01*
X150507445Y-111929388D01*
X150525747Y-112021399D01*
X150603208Y-112245077D01*
X150722818Y-112449346D01*
X150879981Y-112626355D01*
X151068657Y-112769302D01*
X151281595Y-112872693D01*
X151510612Y-112932555D01*
X151699500Y-112899625D01*
X151699500Y-115336500D01*
X150659916Y-115336500D01*
X150440500Y-111561545D01*
X150440500Y-107940500D01*
X170962573Y-107940500D01*
X172563500Y-108594537D01*
X172563500Y-81063500D01*
X173600000Y-81063500D01*
X184836500Y-81063500D01*
X184836500Y-115336500D01*
M02*
