G04 #@! TF.FileFunction,Copper,L3,Inr,Signal*
%FSLAX46Y46*%
G04 Gerber Fmt 4.6, Leading zero omitted, Abs format (unit mm)*
G04 Created by KiCad (PCBNEW (2015-07-20 BZR 5967)-product) date Monday, September 28, 2015 'PMt' 07:14:34 PM*
%MOMM*%
G01*
G04 APERTURE LIST*
%ADD10C,0.100000*%
%ADD11R,2.032000X2.032000*%
%ADD12O,2.032000X2.032000*%
%ADD13C,0.355000*%
%ADD14C,0.127000*%
G04 APERTURE END LIST*
D10*
D11*
X173800000Y-96500000D03*
D12*
X173800000Y-99040000D03*
D11*
X151700000Y-109200000D03*
D12*
X151700000Y-111740000D03*
D13*
X161250000Y-112550000D03*
X174613000Y-85029040D03*
X177700000Y-111940000D03*
X180000000Y-104650000D03*
X173300000Y-102650000D03*
X184302400Y-88417400D03*
X169325000Y-111035000D03*
X151590000Y-114200000D03*
X164725000Y-114145000D03*
X181550000Y-114030000D03*
X177800000Y-103700000D03*
X173600000Y-87550000D03*
X179200000Y-92000000D03*
X178250000Y-99150000D03*
X162975000Y-111035000D03*
X155000000Y-108500000D03*
X182350000Y-90700000D03*
X161250000Y-108850000D03*
X161250000Y-110550000D03*
X157300000Y-110550000D03*
X167700000Y-112250000D03*
X181900000Y-93050000D03*
X183330000Y-86160000D03*
X183770000Y-114080000D03*
X183170000Y-85360000D03*
X166860000Y-114110000D03*
X182680000Y-84920000D03*
X153760000Y-114140000D03*
X178816000Y-94843600D03*
X179120800Y-93268800D03*
X179044600Y-97739200D03*
X180187600Y-97790000D03*
X181051200Y-92146120D03*
X174708820Y-109720380D03*
X180662580Y-92801440D03*
X173804580Y-109923580D03*
X181493160Y-83903820D03*
X175701960Y-109888020D03*
X173400000Y-111650000D03*
X180925000Y-111590000D03*
X176660000Y-107290000D03*
X174550000Y-94550000D03*
X173300000Y-103600000D03*
D14*
X183330000Y-86160000D02*
X183770000Y-86600000D01*
X183770000Y-86600000D02*
X183770000Y-114080000D01*
X183170000Y-85360000D02*
X182840000Y-85690000D01*
X182840000Y-85690000D02*
X182840000Y-86580000D01*
X182840000Y-86580000D02*
X182970000Y-86710000D01*
X182970000Y-86710000D02*
X182970000Y-99510000D01*
X182970000Y-99510000D02*
X168370000Y-114110000D01*
X168370000Y-114110000D02*
X166860000Y-114110000D01*
X182680000Y-84920000D02*
X181940000Y-85660000D01*
X181940000Y-85660000D02*
X181940000Y-92250000D01*
X181940000Y-92250000D02*
X182440000Y-92750000D01*
X182440000Y-92750000D02*
X182440000Y-98160000D01*
X182440000Y-98160000D02*
X174250000Y-106350000D01*
X174250000Y-106350000D02*
X174250000Y-107240000D01*
X174250000Y-107240000D02*
X169610000Y-111880000D01*
X169610000Y-111880000D02*
X165920000Y-111880000D01*
X165920000Y-111880000D02*
X163660000Y-114140000D01*
X163660000Y-114140000D02*
X153760000Y-114140000D01*
M02*
